<!DOCTYPE svg PUBLIC "-//W3C//DTD SVG 20010904//EN" "http://www.w3.org/TR/2001/REC-SVG-20010904/DTD/svg10.dtd">
<svg version="1.0" xmlns="http://www.w3.org/2000/svg" width="1600px" height="686px" viewBox="0 0 16000 6860" preserveAspectRatio="xMidYMid meet">
<g id="layer1" fill="#b26d5b" stroke="none">
 <path d="M2835 2311 c0 -401 4 -733 8 -737 4 -4 7 324 7 729 0 406 -3 737 -7 737 -5 0 -8 -328 -8 -729z"/>
 <path d="M2200 2240 c0 -433 3 -660 10 -660 7 0 10 227 10 660 0 433 -3 660 -10 660 -7 0 -10 -227 -10 -660z"/>
 </g>
<g id="layer2" fill="#01559c" stroke="none">
 <path d="M2473 5712 c-34 -70 -68 -143 -74 -162 -7 -19 -22 -51 -34 -70 -12 -19 -35 -62 -50 -95 -15 -33 -61 -128 -101 -212 -41 -83 -74 -158 -74 -166 0 -9 -4 -19 -10 -22 -5 -3 -28 -45 -51 -93 -23 -48 -81 -168 -129 -267 -48 -99 -104 -216 -125 -260 -42 -89 -89 -188 -230 -480 -54 -110 -115 -238 -137 -285 -48 -101 -94 -197 -224 -465 -53 -110 -120 -249 -149 -310 -200 -416 -215 -448 -271 -555 -18 -36 -33 -70 -34 -76 0 -6 -11 -31 -24 -55 -35 -62 -70 -135 -97 -199 -12 -30 -27 -62 -34 -70 -6 -8 -18 -31 -27 -50 -9 -19 -53 -109 -97 -200 -45 -91 -81 -168 -81 -173 0 -4 143 -6 317 -5 l318 3 31 75 c17 41 50 116 73 165 23 50 45 99 50 110 4 11 22 52 41 90 18 39 39 84 46 100 39 92 50 117 86 195 54 116 72 156 98 215 12 28 35 79 52 115 16 36 34 74 38 85 5 11 22 50 39 86 17 36 31 68 31 72 0 3 12 28 28 54 15 26 33 66 41 88 8 22 45 104 82 182 38 78 69 144 69 148 0 3 13 33 29 68 84 179 111 237 111 242 0 3 14 36 31 73 74 158 90 192 134 292 51 114 92 202 136 294 16 33 29 63 29 68 0 5 24 59 54 121 29 62 68 143 86 182 17 38 36 75 41 82 14 16 61 -1 74 -27 31 -60 57 -116 76 -157 12 -27 42 -93 69 -148 26 -55 54 -116 63 -135 42 -98 69 -156 78 -170 5 -8 13 -24 18 -35 80 -181 83 -187 96 -205 7 -8 24 -46 39 -85 16 -38 31 -77 36 -85 4 -9 23 -47 43 -85 20 -39 43 -88 53 -110 18 -42 70 -156 134 -290 45 -96 90 -192 120 -260 12 -27 45 -97 72 -155 61 -130 88 -188 123 -265 28 -63 94 -204 148 -315 17 -36 34 -74 38 -85 15 -41 53 -121 74 -155 12 -19 26 -46 30 -60 4 -14 28 -70 54 -125 26 -55 60 -128 76 -163 l29 -62 308 0 c240 0 308 3 308 13 0 6 -37 89 -84 182 -90 184 -234 479 -326 670 -32 66 -142 291 -245 500 -219 446 -305 621 -336 690 -12 28 -32 66 -44 85 -12 19 -34 67 -50 105 -16 39 -39 86 -50 105 -12 19 -34 62 -49 95 -32 70 -51 108 -93 190 -34 65 -236 478 -353 720 -39 83 -159 326 -265 540 -106 215 -201 409 -211 433 -10 23 -20 42 -23 41 -3 0 -34 -57 -68 -127z"/>
 <path d="M11967 3839 c-85 -12 -194 -68 -251 -129 -113 -120 -149 -301 -95 -469 16 -50 84 -145 128 -178 104 -80 155 -102 260 -110 127 -10 254 38 345 131 67 67 96 146 103 285 l6 101 -347 0 -346 0 0 29 c0 70 52 138 135 177 42 20 66 24 153 24 110 0 150 -11 210 -57 l34 -25 44 43 44 43 -26 27 c-29 31 -106 70 -181 93 -63 19 -144 25 -216 15z m323 -537 c0 -57 -42 -132 -91 -164 -51 -33 -137 -52 -197 -44 -128 17 -232 112 -232 212 l0 34 260 0 260 0 0 -38z"/>
 <path d="M13109 3840 c-55 -9 -140 -51 -195 -96 -23 -19 -46 -34 -53 -34 -7 0 -11 22 -11 60 l0 60 -80 0 -80 0 0 -605 0 -605 80 0 80 0 0 245 c0 171 3 245 11 245 6 0 31 -22 55 -49 26 -29 69 -62 102 -78 49 -24 69 -28 142 -28 77 1 92 4 160 37 155 76 227 183 247 368 6 65 -18 204 -47 259 -25 50 -129 155 -176 179 -79 40 -160 54 -235 42z m139 -166 c214 -107 207 -449 -11 -552 -68 -32 -166 -30 -235 4 -95 47 -152 147 -152 268 0 138 53 235 154 282 73 34 173 33 244 -2z"/>
 <path d="M8592 3258 l3 -583 215 1 c235 2 325 15 415 59 106 51 201 172 250 316 26 76 28 97 28 219 1 120 -2 144 -26 217 -65 194 -201 316 -382 343 -38 5 -168 10 -288 10 l-217 0 2 -582z m520 387 c150 -53 239 -247 209 -452 -35 -233 -174 -343 -437 -343 -84 0 -103 3 -108 16 -3 9 -6 188 -6 398 0 292 3 385 13 395 18 19 266 9 329 -14z"/>
 <path d="M5740 3783 c-12 -27 -30 -73 -40 -105 -11 -31 -37 -96 -59 -145 -21 -50 -44 -105 -49 -124 -6 -19 -34 -88 -62 -154 -29 -66 -58 -139 -65 -162 -8 -24 -35 -91 -60 -149 -36 -83 -95 -237 -95 -251 0 -2 42 -3 94 -3 l94 0 21 49 c11 27 21 53 21 58 0 4 27 71 59 148 33 77 76 181 96 230 21 50 50 119 65 155 15 36 41 99 57 140 16 41 36 76 44 78 15 3 48 -67 109 -228 16 -41 47 -116 69 -167 22 -51 49 -116 60 -145 10 -29 43 -111 73 -183 l55 -130 96 -3 c60 -2 97 1 97 7 0 6 -11 34 -24 63 -14 30 -34 78 -46 107 -11 30 -30 74 -41 97 -10 24 -19 47 -19 53 0 5 -27 73 -60 151 -33 78 -60 146 -60 150 0 5 -13 38 -28 72 -16 35 -39 90 -52 123 -13 33 -26 65 -30 70 -4 6 -15 35 -24 65 -10 30 -31 83 -46 117 l-29 63 -100 0 -100 0 -21 -47z"/>
 <path d="M6592 3398 l3 -433 83 -3 82 -3 0 436 0 435 -85 0 -85 0 2 -432z"/>
 <path d="M7363 3778 c-11 -29 -31 -80 -44 -113 -12 -33 -35 -88 -51 -123 -15 -34 -37 -88 -48 -120 -10 -31 -42 -111 -70 -177 -29 -66 -55 -131 -60 -145 -11 -36 -48 -126 -72 -179 -12 -25 -33 -80 -48 -121 -15 -41 -31 -83 -35 -92 -6 -16 1 -18 87 -18 92 0 94 1 110 28 8 15 23 52 33 82 10 30 32 87 50 125 17 39 42 97 55 130 13 33 31 79 41 102 11 24 31 73 46 110 14 38 32 77 40 88 7 11 13 26 13 33 0 27 62 162 75 162 7 0 25 -30 41 -67 15 -38 31 -72 35 -78 3 -5 17 -39 29 -75 12 -36 36 -94 53 -130 16 -36 41 -94 54 -130 13 -36 54 -136 91 -222 l67 -158 94 0 c111 0 108 -14 32 165 -29 66 -61 147 -72 180 -12 33 -36 92 -54 131 -18 39 -46 107 -60 150 -15 43 -31 84 -35 89 -4 6 -22 48 -40 95 -18 47 -36 90 -40 95 -4 6 -10 22 -13 36 -4 15 -23 65 -43 113 l-36 86 -102 0 -102 0 -21 -52z"/>
 <path d="M8212 3398 l3 -433 83 -3 82 -3 0 436 0 435 -85 0 -85 0 2 -432z"/>
 <path d="M10189 3803 c-46 -120 -99 -269 -99 -277 0 -5 -28 -89 -63 -185 -79 -221 -117 -329 -177 -506 l-47 -140 84 -3 c47 -2 90 2 97 7 7 6 23 45 36 88 12 43 28 92 35 108 7 17 23 62 35 100 13 39 26 75 31 80 4 6 19 49 33 95 27 90 83 249 111 313 21 50 36 39 60 -45 9 -35 43 -146 75 -248 32 -102 70 -225 85 -275 15 -49 37 -120 49 -157 l21 -68 80 0 80 0 38 118 c20 64 37 122 37 127 0 6 27 93 59 195 33 102 72 227 87 278 15 51 33 97 40 103 16 13 27 -11 105 -236 32 -93 88 -255 124 -360 37 -104 69 -198 72 -207 5 -16 18 -18 98 -18 l93 0 -28 88 c-16 48 -45 132 -65 187 -20 55 -61 174 -92 265 -30 91 -61 177 -69 192 -7 14 -25 64 -39 110 -13 45 -41 130 -62 188 l-38 105 -91 3 -90 3 -28 -93 c-15 -51 -52 -169 -82 -263 -29 -93 -60 -195 -67 -225 -30 -116 -59 -199 -72 -210 -15 -13 -35 -5 -35 13 0 11 -26 97 -125 412 -48 153 -105 349 -105 360 0 3 -41 5 -90 5 -89 0 -91 0 -101 -27z"/>
 <path d="M2240 3317 c0 -224 -4 -347 -10 -353 -12 -12 -15 -1370 -4 -1399 5 -13 45 -15 299 -15 222 0 295 3 302 13 6 7 8 299 5 767 -2 415 -3 872 -2 1015 1 166 -2 270 -9 288 l-11 27 -285 0 -285 0 0 -343z"/>
 <path d="M6612 2772 c-60 -56 -51 -136 20 -171 46 -23 75 -17 120 26 34 33 42 65 24 107 -28 67 -112 86 -164 38z"/>
 <path d="M8247 2785 c-55 -31 -65 -119 -18 -166 51 -51 131 -36 166 31 22 43 18 76 -12 110 -34 38 -93 49 -136 25z"/>
 <path d="M2485 1274 c-126 -34 -222 -103 -287 -209 -66 -109 -77 -305 -23 -420 41 -88 80 -138 142 -181 147 -101 305 -98 445 9 41 31 116 140 140 202 32 84 31 226 -4 315 -22 59 -75 143 -110 177 -39 37 -119 83 -145 83 -11 0 -24 5 -29 10 -12 12 -100 21 -129 14z"/>
 </g>
<g id="layer3" fill="#f27d2d" stroke="none">
 <path d="M2259 6678 c-125 -17 -193 -31 -268 -54 -25 -8 -53 -14 -64 -14 -10 0 -33 -6 -50 -14 -18 -7 -52 -19 -77 -26 -25 -6 -61 -19 -80 -27 -19 -9 -48 -21 -65 -28 -37 -16 -281 -136 -303 -150 -257 -157 -399 -279 -641 -550 -39 -44 -71 -85 -71 -91 0 -6 -7 -18 -16 -25 -18 -15 -94 -129 -94 -140 0 -4 -18 -34 -39 -67 -60 -90 -171 -333 -201 -442 -7 -25 -19 -64 -26 -88 -8 -23 -14 -50 -14 -59 0 -8 -6 -36 -14 -62 -26 -83 -46 -179 -46 -219 0 -21 -5 -64 -10 -93 -15 -74 -15 -312 0 -434 15 -128 46 -287 75 -385 9 -30 25 -89 36 -130 11 -41 25 -79 30 -84 5 -6 9 -16 9 -22 0 -12 39 -99 112 -252 39 -81 223 -359 264 -397 5 -5 27 -31 48 -57 20 -27 41 -48 45 -48 4 0 19 28 34 63 16 34 48 103 71 152 24 50 65 133 90 186 51 104 51 111 4 170 -15 20 -28 41 -28 45 0 5 -25 51 -55 103 -30 51 -55 98 -55 105 0 6 -7 20 -15 30 -8 11 -15 29 -15 41 0 12 -3 25 -7 29 -10 10 -43 98 -43 116 0 8 -6 27 -14 42 -8 14 -17 46 -21 70 -4 24 -11 50 -15 58 -22 42 -33 451 -17 640 5 52 15 120 24 150 8 30 22 80 30 110 17 60 40 125 54 152 5 10 9 23 9 29 0 10 8 30 38 99 6 14 25 48 41 75 17 28 36 61 42 75 31 73 223 317 311 395 110 99 244 203 306 239 91 53 257 136 271 136 6 0 19 4 29 9 9 5 46 19 82 31 36 12 74 25 85 30 31 12 154 39 210 47 28 4 163 8 300 9 255 2 334 -5 460 -41 33 -9 78 -21 100 -27 41 -10 96 -31 127 -48 10 -6 26 -10 35 -10 10 0 27 -7 37 -15 11 -8 26 -15 34 -15 8 0 33 -12 56 -28 22 -15 67 -41 99 -56 31 -16 62 -35 68 -43 7 -7 16 -13 21 -13 33 0 313 -251 415 -373 50 -59 163 -238 208 -327 66 -134 72 -148 91 -215 9 -33 20 -67 25 -75 8 -16 22 -67 45 -170 39 -176 51 -406 30 -580 -18 -151 -39 -258 -54 -287 -7 -12 -12 -30 -12 -41 0 -11 -7 -33 -15 -48 -8 -16 -15 -37 -15 -46 0 -16 -34 -104 -69 -178 -21 -46 -83 -149 -138 -232 l-44 -66 24 -39 c13 -21 70 -132 127 -248 56 -115 105 -212 107 -215 3 -3 14 8 26 25 12 16 29 37 37 45 32 33 148 197 212 298 26 41 164 321 183 372 10 25 24 59 31 77 8 17 14 38 14 46 0 9 4 18 9 21 5 3 11 20 14 38 6 36 28 129 45 193 37 140 47 242 46 490 0 195 -4 270 -18 340 -26 135 -47 226 -62 268 -8 20 -14 46 -14 57 0 11 -4 28 -9 38 -5 9 -24 58 -41 107 -58 161 -167 373 -271 525 -124 181 -348 417 -514 540 -105 79 -112 83 -185 126 -25 15 -67 41 -95 59 -27 17 -68 40 -90 49 -22 10 -76 35 -120 55 -99 46 -147 65 -205 81 -25 7 -59 19 -77 26 -17 8 -41 14 -53 14 -12 0 -31 5 -43 12 -12 6 -40 15 -62 19 -22 4 -65 11 -95 17 -222 40 -510 48 -711 20z"/>
 <path d="M5930 5744 c-73 -9 -187 -37 -228 -56 -77 -36 -89 -76 -47 -158 37 -73 79 -116 132 -134 55 -19 63 -19 63 -6 0 6 -11 15 -25 20 -29 11 -33 35 -7 45 36 14 309 17 489 5 229 -15 319 -38 440 -111 96 -58 103 -76 53 -133 -74 -84 -199 -130 -500 -187 -30 -6 -111 -38 -180 -72 -106 -53 -128 -67 -145 -99 -18 -34 -18 -42 -6 -112 27 -162 85 -270 185 -340 82 -58 105 -69 232 -109 147 -47 235 -65 384 -78 191 -16 361 2 432 47 36 23 38 27 38 74 0 60 -36 138 -74 164 -15 9 -63 30 -109 47 -45 16 -113 48 -150 71 -37 22 -71 38 -74 34 -12 -11 39 -54 107 -89 66 -35 91 -60 76 -74 -16 -16 -289 -6 -421 16 -170 29 -224 44 -317 93 -99 51 -148 103 -148 158 0 50 13 59 150 100 323 96 487 167 595 255 163 132 96 381 -135 504 -31 17 -74 35 -95 40 -22 6 -76 19 -120 31 -44 11 -120 27 -170 35 -90 15 -359 27 -425 19z"/>
 <path d="M9484 5642 c-30 -23 -54 -75 -54 -113 0 -37 23 -133 51 -207 39 -107 21 -104 -106 17 -196 188 -321 281 -377 281 -17 0 -37 -10 -53 -27 -40 -44 -35 -111 19 -247 25 -61 48 -124 51 -141 7 -29 5 -28 -39 20 -25 28 -88 102 -139 165 -131 163 -206 208 -273 164 -34 -23 -71 -89 -84 -152 -7 -30 -17 -52 -25 -52 -7 0 -31 24 -54 54 -92 119 -244 236 -308 236 -43 0 -86 -22 -111 -57 -26 -37 -62 -155 -62 -204 0 -49 -15 -50 -74 -5 -41 31 -115 56 -166 56 -11 0 -48 28 -83 63 -83 81 -161 121 -222 115 -68 -8 -145 -77 -176 -160 -35 -92 -33 -211 4 -292 54 -115 222 -283 335 -333 75 -33 167 -41 211 -18 32 16 33 18 26 61 -4 28 -2 44 4 44 27 0 51 41 51 88 0 58 -41 209 -69 258 -25 41 -26 57 -7 73 19 16 90 -2 132 -34 26 -20 34 -36 48 -102 9 -43 21 -97 26 -120 11 -49 132 -323 165 -373 12 -19 46 -72 73 -117 107 -175 212 -292 311 -351 42 -25 44 -25 57 -7 32 44 2 225 -61 361 -65 142 -183 319 -317 477 -46 54 -91 109 -101 121 -29 35 -27 149 3 211 24 51 49 65 109 65 46 0 85 -25 192 -121 55 -50 79 -80 87 -108 17 -56 102 -182 199 -294 88 -101 110 -117 167 -117 32 0 96 18 96 26 0 2 -9 24 -20 48 -26 54 -139 177 -226 247 -75 59 -94 94 -94 169 0 44 3 52 24 62 21 9 32 6 69 -16 55 -32 338 -293 379 -350 16 -23 64 -79 105 -124 137 -150 192 -165 193 -51 0 27 -66 146 -105 189 -35 39 -114 165 -141 226 -26 58 -32 132 -12 152 56 56 248 -65 405 -253 71 -86 173 -230 173 -245 0 -9 -25 -11 -106 -8 l-105 4 6 -25 c7 -28 56 -103 94 -144 44 -48 89 -65 195 -73 l97 -7 40 -63 c67 -106 144 -157 203 -135 14 6 26 14 26 19 0 5 -27 44 -60 88 -33 43 -60 84 -60 91 0 6 23 14 50 18 28 4 50 10 50 15 0 4 -33 57 -73 116 l-72 109 -85 -3 -85 -3 -29 56 c-16 31 -43 77 -59 101 -45 68 -97 225 -97 293 0 78 17 101 78 101 41 0 58 -7 127 -55 148 -101 179 -128 186 -163 15 -76 121 -243 206 -324 87 -84 175 -112 207 -67 34 49 -35 171 -171 306 -88 87 -103 112 -103 169 0 84 68 133 156 114 25 -6 58 -17 73 -24 20 -11 155 -107 169 -120 1 -2 9 -29 17 -61 9 -32 28 -81 43 -109 33 -61 200 -232 262 -268 104 -61 238 -74 283 -29 18 18 20 24 9 41 -16 26 -15 50 1 50 31 0 52 40 50 98 -1 65 -41 201 -75 261 -21 37 -22 42 -7 56 22 22 76 11 133 -27 34 -22 48 -40 60 -74 18 -54 113 -200 171 -263 63 -70 138 -93 183 -58 24 19 11 47 -55 120 -131 143 -173 206 -173 260 0 34 2 37 29 37 32 0 44 -11 161 -144 77 -88 163 -169 281 -266 148 -122 194 -119 214 11 l7 45 -108 130 c-134 160 -175 247 -144 305 33 60 186 -25 357 -198 199 -202 353 -377 363 -412 23 -84 61 -117 126 -109 26 3 29 7 32 43 1 22 12 82 24 134 36 166 23 265 -48 362 -41 56 -118 127 -179 166 -25 15 -44 36 -45 46 0 14 10 17 68 17 81 0 136 -23 253 -106 68 -47 79 -52 79 -35 0 59 -300 275 -420 302 -50 11 -116 -6 -178 -47 -69 -45 -110 -103 -118 -166 -4 -28 -13 -52 -21 -55 -7 -3 -49 28 -99 73 -178 164 -263 221 -310 210 -49 -13 -64 -40 -64 -113 0 -75 21 -131 84 -224 20 -30 36 -57 36 -61 0 -4 16 -33 35 -65 60 -99 38 -111 -61 -33 -83 67 -174 166 -279 306 -48 63 -95 119 -105 124 -44 24 -85 -33 -102 -144 -8 -48 -17 -76 -25 -76 -7 0 -35 16 -63 36 -37 26 -66 38 -117 46 -64 11 -72 15 -137 76 -71 66 -151 112 -198 112 -39 0 -76 -16 -117 -52 -49 -43 -68 -73 -87 -140 -9 -32 -22 -58 -28 -58 -6 0 -51 42 -101 93 -229 235 -372 221 -431 -43 -9 -39 -21 -70 -27 -70 -5 0 -49 37 -96 83 -99 95 -236 202 -286 223 -46 19 -95 17 -121 -4z m-2022 -186 c25 -7 62 -26 82 -42 l36 -29 0 -107 c0 -120 8 -148 73 -261 57 -98 42 -104 -80 -28 -59 37 -129 92 -172 135 -79 79 -97 122 -105 238 -4 63 8 82 60 98 42 12 55 12 106 -4z m3384 1 c16 -7 50 -25 75 -40 l44 -29 0 -116 c0 -126 3 -135 79 -265 22 -37 26 -51 17 -60 -9 -9 -22 -6 -54 12 -100 58 -177 115 -233 173 -57 59 -62 69 -82 150 -12 48 -22 96 -22 107 0 59 98 97 176 68z m1653 -77 c81 -41 131 -129 131 -231 0 -70 -23 -219 -34 -219 -13 0 -306 302 -306 316 0 5 20 20 44 31 30 15 54 38 77 72 18 28 36 51 41 51 5 0 26 -9 47 -20z m-4287 -422 c74 -88 178 -252 224 -352 29 -65 39 -175 16 -184 -8 -2 -39 22 -70 54 -98 101 -229 373 -249 513 -6 41 -5 43 15 32 11 -6 40 -34 64 -63z"/>
 <path d="M12986 5651 c-7 -10 47 -148 64 -164 4 -5 17 -4 28 2 20 11 20 13 -23 88 -43 78 -58 93 -69 74z"/>
 <path d="M14283 5560 c-84 -20 -177 -105 -209 -191 -23 -61 -23 -181 0 -247 25 -73 104 -152 183 -182 73 -28 177 -31 250 -6 49 16 144 79 142 94 0 4 -14 18 -30 31 l-30 23 -37 -26 c-139 -96 -311 -61 -385 78 -30 56 -30 164 1 222 72 139 266 174 389 70 l30 -25 31 32 32 33 -50 38 c-27 21 -71 44 -96 52 -50 15 -167 17 -221 4z"/>
 <path d="M13277 5553 c-4 -3 -7 -145 -7 -315 l0 -308 45 0 45 0 2 268 3 267 88 3 87 3 0 44 0 45 -128 0 c-71 0 -132 -3 -135 -7z"/>
 <path d="M13680 5245 l0 -315 45 0 45 0 2 268 3 267 88 3 88 3 -3 42 -3 42 -132 3 -133 3 0 -316z"/>
 <path d="M10433 4700 c-33 -30 -30 -84 6 -141 56 -89 118 -113 166 -64 85 84 -86 287 -172 205z"/>
 <path d="M2850 2299 c0 -683 1 -727 18 -733 30 -10 81 -42 153 -98 39 -29 90 -66 113 -83 40 -28 109 -85 236 -193 73 -62 399 -388 477 -477 74 -84 183 -213 212 -252 38 -52 23 1 -33 114 -55 110 -150 306 -205 423 -16 36 -39 81 -50 100 -11 19 -27 53 -37 75 -16 37 -78 169 -209 440 -84 175 -160 336 -185 390 -13 28 -62 131 -110 230 -122 253 -172 358 -215 450 -20 44 -66 139 -101 210 l-63 130 -1 -726z"/>
 <path d="M2190 2879 c0 -11 -24 -65 -100 -224 -26 -55 -58 -122 -70 -150 -26 -59 -58 -128 -133 -285 -30 -63 -71 -149 -90 -190 -67 -144 -119 -256 -182 -385 -34 -71 -70 -148 -80 -170 -10 -22 -41 -89 -70 -150 -132 -277 -154 -323 -175 -370 -12 -27 -44 -96 -72 -152 -28 -55 -48 -107 -46 -114 2 -6 28 19 58 57 166 211 334 390 471 502 35 28 71 58 79 66 18 16 237 176 265 193 11 7 39 22 62 33 23 11 45 24 48 30 3 5 15 10 26 10 19 0 19 13 19 655 0 360 -2 655 -5 655 -3 0 -5 -5 -5 -11z"/>
 </g>
<g id="layer4" fill="#fefdfd" stroke="none">
 <path d="M2150 6751 c-187 -29 -307 -55 -324 -72 -6 -5 -19 -9 -31 -9 -12 0 -30 -7 -41 -15 -10 -8 -27 -15 -37 -15 -11 0 -31 -6 -45 -14 -15 -8 -47 -20 -72 -27 -25 -7 -65 -24 -90 -38 -43 -25 -107 -57 -160 -81 -36 -16 -58 -30 -122 -77 -31 -24 -62 -43 -68 -43 -6 0 -32 -17 -58 -38 -26 -21 -80 -65 -121 -97 -40 -33 -83 -72 -94 -87 -12 -16 -26 -28 -33 -28 -7 0 -32 -23 -56 -51 -24 -28 -56 -63 -72 -78 -36 -33 -215 -256 -223 -279 -7 -19 -39 -67 -64 -97 -17 -19 -164 -308 -179 -350 -4 -11 -13 -36 -20 -55 -7 -19 -15 -47 -17 -62 -3 -16 -9 -28 -13 -28 -5 0 -11 -15 -15 -32 -4 -18 -14 -55 -22 -83 -8 -27 -20 -65 -25 -84 -18 -58 -39 -227 -58 -454 -11 -136 -5 -296 20 -482 5 -38 13 -107 19 -152 5 -46 14 -91 19 -100 5 -10 13 -37 17 -60 4 -24 11 -45 16 -49 5 -3 9 -15 9 -27 0 -12 7 -35 15 -51 8 -15 15 -33 15 -38 0 -6 6 -24 13 -41 8 -18 20 -49 27 -71 15 -47 51 -125 84 -185 14 -24 30 -56 36 -70 6 -14 16 -35 23 -46 42 -67 66 -102 81 -114 9 -7 16 -21 16 -31 0 -10 19 -40 43 -66 24 -27 54 -65 67 -84 13 -19 53 -68 88 -107 61 -69 67 -73 108 -73 41 0 74 19 74 42 0 6 3 8 6 5 4 -3 -5 -30 -19 -59 -14 -29 -31 -64 -37 -78 -5 -14 -19 -39 -30 -57 -10 -17 -33 -67 -51 -110 -18 -43 -44 -98 -58 -123 -14 -25 -33 -61 -42 -80 -18 -38 -108 -227 -212 -440 -103 -212 -117 -247 -117 -282 0 -66 -19 -63 396 -66 327 -2 380 -1 400 13 13 8 24 20 24 26 0 8 67 154 101 221 5 10 9 23 9 29 0 6 26 63 58 127 32 65 64 137 72 162 7 25 19 52 25 60 12 16 28 49 45 90 5 14 14 32 18 40 23 41 32 61 32 74 0 8 27 67 60 131 33 64 60 122 60 130 0 11 27 73 62 138 5 10 18 37 29 60 11 23 25 50 30 59 5 10 9 22 9 28 0 6 27 66 60 133 33 68 60 127 60 131 0 5 29 69 65 143 36 74 65 138 65 143 0 8 24 58 90 190 15 30 31 70 34 88 20 87 26 25 26 -250 0 -334 2 -325 -99 -523 -28 -55 -51 -104 -51 -110 0 -5 -26 -62 -58 -125 -32 -63 -64 -134 -71 -157 -8 -24 -18 -43 -23 -43 -4 0 -8 -5 -8 -11 0 -10 -33 -79 -72 -152 -9 -18 -17 -42 -18 -54 0 -12 -4 -24 -8 -27 -11 -6 -162 -314 -162 -329 0 -4 -13 -28 -29 -54 -16 -27 -35 -66 -42 -88 -8 -22 -39 -90 -70 -151 -31 -61 -60 -122 -64 -135 -11 -36 -48 -112 -62 -127 -7 -7 -13 -17 -13 -22 0 -5 -11 -33 -24 -62 -13 -29 -32 -73 -42 -98 -10 -25 -23 -52 -29 -60 -13 -17 -65 -128 -86 -180 -7 -19 -26 -57 -41 -83 -15 -26 -28 -51 -28 -55 0 -15 -142 -303 -158 -320 -16 -17 -16 -124 0 -140 7 -7 29 -12 49 -12 40 0 59 19 103 100 10 19 31 50 47 68 16 18 29 38 29 45 0 7 17 35 38 62 21 28 66 89 100 137 35 47 73 97 85 110 12 13 35 43 51 67 16 23 47 56 68 72 21 17 38 36 38 42 0 6 46 55 103 108 56 54 118 114 137 133 20 19 56 50 80 67 25 18 51 39 59 47 8 7 30 24 50 37 20 12 43 30 50 39 8 10 28 24 45 31 37 18 59 31 107 68 l37 27 341 0 340 0 115 -83 c63 -45 128 -95 145 -110 17 -15 35 -27 39 -27 10 0 136 -111 223 -195 31 -30 60 -55 64 -55 9 0 188 -182 260 -264 28 -32 77 -86 110 -122 33 -36 65 -73 70 -83 6 -9 21 -30 35 -46 64 -74 89 -104 127 -155 22 -30 52 -68 67 -85 14 -16 26 -35 26 -42 0 -6 21 -32 46 -57 35 -36 53 -46 78 -46 57 0 81 50 55 117 -5 15 -13 30 -17 33 -11 8 -42 70 -42 84 0 10 -51 114 -94 194 -8 15 -27 54 -41 87 -38 85 -59 129 -66 135 -7 6 -49 94 -49 103 0 10 -62 141 -69 147 -8 7 -61 117 -61 127 0 4 -13 33 -29 63 -76 148 -90 178 -105 218 -9 23 -27 60 -41 82 -14 22 -25 44 -25 49 0 5 -7 22 -15 38 -8 15 -28 57 -45 93 -17 36 -35 72 -40 80 -5 8 -20 39 -32 68 -12 28 -25 52 -30 52 -4 0 -8 8 -8 18 0 10 -29 77 -65 147 -36 71 -65 135 -65 142 0 6 -12 34 -28 60 -15 26 -38 69 -50 95 -13 26 -27 50 -33 53 -5 4 -9 17 -9 31 0 13 -10 41 -23 62 -12 20 -33 60 -46 87 -14 28 -27 52 -30 55 -11 9 -31 61 -31 80 0 10 -6 25 -13 32 -7 7 -21 33 -32 58 -11 25 -32 66 -47 91 -15 25 -28 54 -28 63 0 9 -11 34 -25 56 -14 22 -25 42 -25 45 0 4 -10 27 -22 53 -21 45 -22 60 -22 323 -1 258 -2 278 -20 298 -19 21 -26 21 -352 21 l-333 0 14 28 c7 15 17 38 23 52 11 30 98 214 118 252 8 14 14 31 14 38 0 6 22 57 49 113 54 113 70 150 97 219 18 45 34 62 34 36 0 -13 40 -100 49 -108 4 -3 12 -23 19 -45 8 -22 41 -96 74 -165 97 -201 108 -225 108 -232 0 -4 13 -29 29 -56 16 -27 32 -60 36 -73 4 -13 34 -79 66 -147 33 -67 68 -143 78 -170 10 -26 42 -92 70 -148 28 -55 51 -105 51 -110 0 -6 27 -64 60 -129 33 -66 60 -125 60 -130 0 -6 29 -68 65 -138 36 -70 65 -133 65 -140 0 -14 97 -207 111 -222 5 -5 9 -16 9 -26 0 -9 26 -70 59 -135 32 -65 62 -130 66 -143 4 -13 34 -76 66 -140 33 -64 59 -120 59 -125 0 -5 29 -69 65 -142 36 -73 65 -138 65 -143 0 -14 91 -192 108 -213 14 -17 45 -18 387 -18 348 0 373 1 388 18 20 22 22 84 4 120 -8 15 -33 68 -57 117 -24 50 -49 97 -56 105 -6 8 -17 32 -24 53 -7 21 -32 75 -56 120 -24 45 -50 98 -59 117 -48 104 -208 428 -241 489 -13 24 -24 50 -24 58 0 7 -12 32 -26 54 -14 22 -23 46 -21 52 2 6 12 -7 23 -28 18 -37 22 -40 67 -43 45 -3 49 -1 85 40 20 23 56 62 80 87 23 25 42 49 42 54 0 6 17 30 37 55 41 50 74 97 98 140 9 15 24 41 35 57 11 17 23 37 27 45 3 8 17 29 30 46 13 17 23 38 23 48 0 9 11 34 25 56 14 22 25 42 25 45 0 3 15 38 34 78 18 40 39 97 46 127 8 30 17 60 21 65 7 11 37 112 62 210 38 148 42 197 42 555 0 351 -2 375 -37 520 -6 25 -14 64 -19 87 -4 23 -12 50 -17 60 -12 23 -62 179 -62 193 0 6 -8 30 -19 53 -10 23 -27 61 -37 85 -10 23 -21 42 -26 42 -4 0 -8 5 -8 11 0 10 -9 33 -38 99 -7 14 -23 43 -37 65 -14 22 -28 48 -31 58 -4 9 -10 17 -15 17 -5 0 -17 17 -27 38 -62 137 -380 485 -565 620 -24 18 -56 43 -70 56 -14 13 -47 35 -73 47 -25 13 -49 29 -51 36 -3 7 -10 13 -15 13 -6 0 -29 13 -52 28 -22 15 -57 34 -76 42 -19 8 -53 24 -75 37 -22 12 -60 31 -85 43 -25 12 -53 26 -62 31 -10 5 -24 9 -33 9 -8 0 -29 6 -47 14 -18 8 -49 21 -70 30 -20 9 -44 16 -55 16 -10 0 -27 7 -37 15 -11 8 -30 15 -42 15 -12 0 -37 6 -55 14 -19 7 -81 19 -139 25 -58 7 -123 17 -145 23 -22 5 -155 11 -295 13 -241 4 -265 3 -440 -24z m685 -71 c44 -7 105 -17 135 -22 30 -6 73 -13 95 -17 22 -4 50 -13 62 -19 12 -7 31 -12 43 -12 12 0 36 -6 53 -14 18 -7 52 -19 77 -26 58 -16 106 -35 205 -81 44 -20 98 -45 120 -55 22 -9 63 -32 90 -49 28 -18 70 -44 95 -59 73 -43 80 -47 185 -126 166 -123 390 -359 514 -540 104 -152 213 -364 271 -525 17 -49 36 -98 41 -107 5 -10 9 -27 9 -38 0 -11 6 -37 14 -57 15 -42 36 -133 62 -268 14 -70 18 -145 18 -340 1 -248 -9 -350 -46 -490 -17 -64 -39 -157 -45 -193 -3 -18 -9 -35 -14 -38 -5 -3 -9 -12 -9 -21 0 -8 -6 -29 -14 -46 -7 -18 -21 -52 -31 -77 -19 -51 -157 -331 -183 -372 -64 -101 -180 -265 -212 -298 -8 -8 -25 -29 -37 -45 -12 -17 -23 -28 -26 -25 -2 3 -51 100 -107 215 -57 116 -114 227 -127 248 l-24 39 44 66 c55 83 117 186 138 232 35 74 69 162 69 178 0 9 7 30 15 46 8 15 15 37 15 48 0 11 5 29 12 41 15 29 36 136 54 287 21 174 9 404 -30 580 -23 103 -37 154 -45 170 -5 8 -16 42 -25 75 -19 67 -25 81 -91 215 -45 89 -158 268 -208 327 -102 122 -382 373 -415 373 -5 0 -14 6 -21 13 -6 8 -37 27 -68 43 -32 15 -77 41 -99 56 -23 16 -48 28 -56 28 -8 0 -23 7 -34 15 -10 8 -27 15 -37 15 -9 0 -25 4 -35 10 -31 17 -86 38 -127 48 -22 6 -67 18 -100 27 -126 36 -205 43 -460 41 -137 -1 -272 -5 -300 -9 -56 -8 -179 -35 -210 -47 -11 -5 -49 -18 -85 -30 -36 -12 -73 -26 -82 -31 -10 -5 -23 -9 -29 -9 -14 0 -180 -83 -271 -136 -62 -36 -196 -140 -306 -239 -88 -78 -280 -322 -311 -395 -6 -14 -25 -47 -42 -75 -16 -27 -35 -61 -41 -75 -30 -69 -38 -89 -38 -99 0 -6 -4 -19 -9 -29 -14 -27 -37 -92 -54 -152 -8 -30 -22 -80 -30 -110 -9 -30 -19 -98 -24 -150 -16 -189 -5 -598 17 -640 4 -8 11 -34 15 -58 4 -24 13 -56 21 -70 8 -15 14 -34 14 -42 0 -18 33 -106 43 -116 4 -4 7 -17 7 -29 0 -12 7 -30 15 -41 8 -10 15 -24 15 -30 0 -7 25 -54 55 -105 30 -52 55 -98 55 -103 0 -4 13 -25 28 -45 47 -59 47 -66 -4 -170 -25 -53 -66 -136 -90 -186 -23 -49 -55 -118 -71 -152 -15 -35 -30 -63 -34 -63 -4 0 -25 21 -45 48 -21 26 -43 52 -48 57 -41 38 -225 316 -264 397 -73 153 -112 240 -112 252 0 6 -4 16 -9 22 -5 5 -19 43 -30 84 -11 41 -27 100 -36 130 -29 98 -60 257 -75 385 -15 122 -15 360 0 434 5 29 10 72 10 93 0 40 20 136 46 219 8 26 14 54 14 62 0 9 6 36 14 59 7 24 19 63 26 88 14 50 40 118 75 195 69 152 90 194 126 247 21 33 39 63 39 67 0 11 76 125 94 140 9 7 16 19 16 25 0 6 32 47 71 91 242 271 384 393 641 550 22 14 266 134 303 150 17 7 46 19 65 28 19 8 55 21 80 27 25 7 59 19 77 26 17 8 40 14 50 14 11 0 39 6 64 14 157 49 346 71 576 69 103 -1 224 -7 268 -13z m-56 -615 c107 -19 211 -44 232 -55 9 -5 34 -12 55 -15 42 -7 80 -19 131 -41 17 -8 36 -14 42 -14 6 0 11 -4 11 -10 0 -5 12 -13 26 -16 42 -11 175 -83 229 -124 28 -22 60 -43 72 -47 49 -18 265 -222 335 -315 27 -38 53 -68 57 -68 4 0 20 -24 35 -52 16 -29 36 -62 46 -73 15 -17 32 -48 96 -178 8 -16 14 -34 14 -42 0 -7 7 -18 15 -25 8 -7 15 -20 15 -29 0 -9 6 -28 14 -43 8 -15 17 -40 21 -57 4 -17 11 -33 16 -36 5 -4 9 -20 9 -37 0 -18 4 -45 9 -62 19 -63 40 -184 52 -298 15 -159 -5 -363 -52 -524 -5 -17 -9 -44 -9 -62 0 -17 -4 -33 -9 -37 -5 -3 -13 -20 -17 -37 -3 -18 -10 -39 -14 -48 -24 -46 -79 -168 -85 -189 -4 -14 -23 -46 -41 -73 -19 -26 -34 -51 -34 -54 0 -3 -10 -20 -22 -37 -42 -59 -52 -82 -58 -142 l-6 -60 -19 37 c-23 41 -28 52 -135 273 -107 221 -118 244 -145 295 -13 25 -35 72 -50 105 -14 33 -30 67 -34 75 -17 32 -80 157 -110 220 -17 36 -36 72 -41 80 -5 8 -30 60 -55 115 -25 55 -50 107 -55 115 -5 8 -23 44 -41 80 -46 95 -159 328 -185 380 -29 59 -80 164 -161 330 -36 74 -76 155 -88 180 -13 25 -39 79 -59 120 -20 41 -66 132 -101 202 -36 70 -65 138 -65 150 0 51 -69 76 -118 43 -12 -9 -49 -73 -83 -143 -33 -70 -85 -176 -114 -237 -30 -60 -86 -177 -126 -260 -209 -438 -282 -586 -291 -591 -5 -3 -8 -12 -8 -21 0 -8 -30 -76 -66 -151 -37 -76 -81 -166 -98 -202 -17 -36 -40 -81 -52 -100 -11 -19 -27 -53 -34 -75 -7 -22 -25 -60 -40 -86 -15 -25 -31 -56 -35 -70 -4 -13 -13 -31 -20 -39 -6 -8 -17 -31 -24 -50 -17 -44 -110 -232 -122 -244 -5 -6 -9 -17 -9 -27 0 -9 -16 -47 -36 -85 -65 -123 -94 -183 -94 -194 0 -6 -11 -28 -25 -49 -13 -22 -27 -51 -31 -65 -3 -14 -12 -30 -20 -37 -8 -6 -14 -17 -14 -23 0 -7 -7 -21 -15 -32 -13 -17 -14 -16 -8 18 7 46 -25 127 -67 168 -21 21 -91 150 -124 230 -3 8 -10 22 -14 30 -30 51 -62 142 -62 172 0 11 -6 34 -14 51 -31 69 -75 334 -76 454 0 117 39 357 78 478 5 17 15 55 22 85 7 30 17 62 21 70 7 13 84 177 103 220 21 50 158 242 226 320 71 79 268 260 285 260 3 0 40 24 83 53 70 48 118 74 282 150 30 15 84 33 120 42 36 9 74 20 85 25 22 9 123 33 230 54 100 19 358 20 464 1z m-215 -267 c10 -24 105 -218 211 -433 106 -214 226 -457 265 -540 117 -242 319 -655 353 -720 42 -82 61 -120 93 -190 15 -33 37 -76 49 -95 11 -19 34 -66 50 -105 16 -38 38 -86 50 -105 12 -19 32 -57 44 -85 31 -69 117 -244 336 -690 103 -209 213 -434 245 -500 92 -191 236 -486 326 -670 47 -93 84 -176 84 -182 0 -10 -68 -13 -308 -13 l-308 0 -29 62 c-16 35 -50 108 -76 163 -26 55 -50 111 -54 125 -4 14 -18 41 -30 60 -21 34 -59 114 -74 155 -4 11 -21 49 -38 85 -54 111 -120 252 -148 315 -35 77 -62 135 -123 265 -27 58 -60 128 -72 155 -30 68 -75 164 -120 260 -64 134 -116 248 -134 290 -10 22 -33 71 -53 110 -20 38 -39 76 -43 85 -5 8 -20 47 -36 85 -15 39 -32 77 -39 85 -13 18 -16 24 -96 205 -5 11 -13 27 -18 35 -9 14 -36 72 -78 170 -9 19 -37 80 -63 135 -27 55 -57 121 -69 148 -19 41 -45 97 -76 157 -13 26 -60 43 -74 27 -5 -7 -24 -44 -41 -82 -18 -39 -57 -120 -86 -182 -30 -62 -54 -116 -54 -121 0 -5 -13 -35 -29 -68 -44 -92 -85 -180 -136 -294 -44 -100 -60 -134 -134 -292 -17 -37 -31 -70 -31 -73 0 -5 -27 -63 -111 -242 -16 -35 -29 -65 -29 -68 0 -4 -31 -70 -69 -148 -37 -78 -74 -160 -82 -182 -8 -22 -26 -62 -41 -88 -16 -26 -28 -51 -28 -54 0 -4 -14 -36 -31 -72 -17 -36 -34 -75 -39 -86 -4 -11 -22 -49 -38 -85 -17 -36 -40 -87 -52 -115 -26 -59 -44 -99 -98 -215 -36 -78 -47 -103 -86 -195 -7 -16 -28 -61 -46 -100 -19 -38 -37 -79 -41 -90 -5 -11 -27 -60 -50 -110 -23 -49 -56 -124 -73 -165 l-31 -75 -318 -3 c-174 -1 -317 1 -317 5 0 5 36 82 81 173 44 91 88 181 97 200 9 19 21 42 27 50 7 8 22 40 34 70 27 64 62 137 97 199 13 24 24 49 24 55 1 6 16 40 34 76 56 107 71 139 271 555 29 61 96 200 149 310 130 268 176 364 224 465 22 47 83 175 137 285 141 292 188 391 230 480 21 44 77 161 125 260 48 99 106 219 129 267 23 48 46 90 51 93 6 3 10 13 10 22 0 8 33 83 74 166 40 84 86 179 101 212 15 33 38 76 50 95 12 19 27 51 34 70 15 46 134 289 142 289 3 1 13 -18 23 -41z m257 -2165 c7 -18 10 -122 7 -293 l-3 -265 81 -165 c45 -91 96 -196 114 -235 36 -79 85 -181 210 -440 48 -99 97 -202 110 -230 25 -54 101 -215 185 -390 131 -271 193 -403 209 -440 10 -22 26 -56 37 -75 11 -19 34 -64 50 -100 55 -117 150 -313 205 -423 56 -113 71 -166 33 -114 -29 39 -138 168 -212 252 -78 89 -404 415 -477 477 -127 108 -196 165 -236 193 -23 17 -76 56 -117 88 -42 31 -79 57 -84 57 -4 0 -19 9 -33 20 -27 21 -65 26 -75 10 -4 -6 -115 -10 -300 -10 -251 0 -294 2 -299 15 -6 17 -61 21 -71 5 -3 -6 -25 -19 -48 -30 -23 -11 -51 -26 -62 -33 -28 -17 -247 -177 -265 -193 -8 -8 -44 -38 -79 -66 -137 -112 -305 -291 -471 -502 -30 -38 -56 -63 -58 -57 -2 7 18 59 46 114 28 56 60 125 72 152 21 47 43 93 175 370 29 61 60 128 70 150 10 22 46 99 80 170 63 129 115 241 182 385 19 41 60 127 90 190 75 157 107 226 133 285 12 28 44 95 70 150 26 55 60 127 74 160 41 90 58 128 67 147 5 10 9 171 9 358 l0 340 285 0 285 0 11 -27z m-1699 -505 c-8 -8 -9 -4 -5 13 4 13 8 18 11 10 2 -7 -1 -18 -6 -23z m2879 -14 c11 -26 18 -49 15 -51 -4 -4 -46 82 -46 93 0 16 14 -4 31 -42z m-2917 -70 c-60 -111 -84 -162 -84 -177 0 -8 -7 -20 -15 -27 -8 -7 -15 -19 -15 -26 0 -8 -10 -31 -23 -52 -12 -20 -28 -50 -35 -66 -7 -16 -15 -26 -18 -24 -2 3 20 55 51 116 30 61 55 115 55 120 0 5 12 31 26 58 15 27 38 71 52 99 14 27 27 45 29 39 2 -6 -8 -32 -23 -60z m3000 -101 c27 -54 64 -129 82 -167 19 -38 33 -71 30 -73 -5 -5 -46 69 -66 117 -7 19 -35 77 -62 129 -26 51 -48 95 -48 98 0 17 23 -20 64 -104z"/>
 <path d="M5855 5789 c-114 -15 -205 -47 -242 -85 -30 -31 -33 -39 -33 -99 0 -53 6 -79 30 -129 54 -112 121 -149 256 -144 l79 3 3 44 3 44 187 -7 c181 -7 258 -16 408 -50 72 -16 204 -82 204 -102 0 -17 -124 -91 -200 -118 -39 -14 -108 -30 -153 -35 -91 -11 -210 -47 -299 -92 -32 -16 -63 -29 -71 -29 -22 0 -93 -67 -107 -100 -29 -69 6 -288 63 -395 29 -55 86 -125 101 -125 7 0 22 -9 33 -19 31 -29 178 -101 226 -110 23 -5 78 -18 122 -30 139 -35 225 -45 420 -45 214 -1 302 12 365 52 l40 26 0 96 c0 85 -3 102 -27 150 -25 47 -36 58 -93 86 -36 18 -74 33 -86 33 -24 1 -114 47 -191 98 -43 28 -60 34 -95 31 l-43 -3 -3 -51 c-3 -51 -2 -52 52 -102 l55 -50 -42 5 c-310 35 -500 92 -591 179 -35 34 -37 38 -22 49 20 15 177 66 296 95 70 18 224 83 337 143 12 7 51 38 87 70 54 48 67 66 80 111 33 113 14 252 -45 332 -66 90 -180 169 -292 203 -81 24 -268 59 -387 71 -114 12 -328 11 -425 -1z m500 -64 c50 -8 126 -24 170 -35 44 -12 98 -25 120 -31 115 -29 239 -127 286 -227 59 -123 38 -241 -56 -317 -108 -88 -272 -159 -595 -255 -137 -41 -150 -50 -150 -100 0 -55 49 -107 148 -158 93 -49 147 -64 317 -93 132 -22 405 -32 421 -16 15 14 -10 39 -76 74 -68 35 -119 78 -107 89 3 4 37 -12 74 -34 37 -23 105 -55 150 -71 46 -17 94 -38 109 -47 38 -26 74 -104 74 -164 0 -47 -2 -51 -38 -74 -96 -60 -396 -70 -632 -20 -88 19 -280 78 -324 101 -162 82 -244 201 -277 399 -12 70 -12 78 6 112 17 32 39 46 145 99 69 34 150 66 180 72 301 57 426 103 500 187 50 57 43 75 -53 133 -121 73 -211 96 -440 111 -180 12 -453 9 -489 -5 -26 -10 -22 -34 7 -45 14 -5 25 -14 25 -20 0 -13 -8 -13 -63 6 -53 18 -95 61 -132 134 -42 82 -30 122 47 158 41 19 155 47 228 56 66 8 335 -4 425 -19z"/>
 <path d="M9480 5714 c-82 -30 -100 -64 -100 -187 l0 -95 -31 27 c-17 14 -61 53 -99 86 -111 98 -152 119 -242 124 -75 3 -78 2 -108 -27 -28 -28 -30 -36 -30 -103 l0 -73 -75 74 -74 74 -83 4 c-46 2 -94 -1 -108 -6 -15 -6 -40 -35 -62 -73 l-38 -63 -62 67 c-35 37 -67 67 -73 67 -5 0 -23 12 -40 26 -47 41 -91 54 -176 54 l-78 0 -45 -42 c-48 -46 -76 -99 -76 -145 0 -46 -12 -56 -44 -39 -16 8 -55 17 -88 21 -55 7 -62 11 -108 60 -28 28 -77 66 -110 83 -52 28 -70 32 -136 32 -74 0 -144 -20 -144 -41 0 -5 -6 -9 -14 -9 -14 0 -47 -39 -86 -105 -22 -37 -24 -50 -24 -195 l-1 -155 43 -70 c89 -146 154 -211 302 -299 l75 -46 123 0 c117 0 124 1 147 25 17 16 25 35 25 60 0 22 8 43 20 55 17 17 20 34 21 123 1 101 1 101 14 59 17 -54 58 -154 85 -209 11 -23 20 -47 20 -54 0 -6 24 -52 53 -101 28 -49 63 -110 77 -136 33 -60 148 -212 209 -275 25 -27 72 -66 105 -88 50 -33 66 -39 112 -39 74 0 77 9 71 179 -4 109 -9 147 -27 191 -41 103 -139 286 -185 344 -25 32 -45 63 -45 68 0 9 -19 32 -172 209 -67 77 -68 78 -68 136 0 48 4 63 25 86 33 34 47 34 98 -3 86 -60 163 -143 180 -192 8 -26 27 -63 41 -81 14 -19 26 -39 26 -45 0 -13 101 -132 186 -219 l61 -63 92 0 c57 0 105 5 126 14 33 14 35 18 35 63 -1 56 -18 92 -80 164 -70 83 -224 229 -240 229 -4 0 -13 14 -19 30 -9 27 -8 29 7 21 10 -5 26 -19 36 -30 11 -12 23 -21 28 -21 6 0 17 -8 26 -19 10 -10 58 -55 109 -100 51 -45 113 -110 139 -144 52 -69 85 -106 165 -187 81 -82 96 -90 156 -90 73 0 93 21 93 98 l1 57 25 -50 c14 -27 32 -57 40 -66 8 -8 14 -20 14 -25 0 -19 76 -84 109 -94 17 -5 74 -12 126 -16 l95 -7 26 -46 c62 -108 138 -161 231 -161 74 0 107 17 111 54 5 43 -4 68 -43 119 -19 25 -35 48 -35 51 0 3 16 6 35 6 34 0 35 1 35 38 0 26 -11 54 -35 92 -19 30 -35 59 -35 66 0 6 -10 22 -23 35 -13 13 -38 44 -57 68 l-34 43 -73 -4 -73 -5 -37 56 c-20 31 -45 68 -55 83 -10 15 -18 31 -18 36 0 5 -15 44 -34 88 -43 101 -50 134 -33 158 13 17 15 17 63 -7 28 -14 74 -45 103 -69 30 -24 65 -50 80 -59 16 -10 28 -28 33 -53 5 -21 14 -50 22 -65 7 -14 21 -43 31 -63 10 -20 25 -45 34 -55 9 -10 34 -40 54 -68 43 -55 139 -142 175 -156 13 -5 50 -9 83 -9 l61 0 -31 -26 c-29 -24 -31 -30 -31 -92 0 -106 21 -151 94 -204 33 -24 49 -28 102 -28 57 0 65 3 94 32 31 31 32 33 28 107 -4 65 -9 84 -37 128 -36 57 -83 83 -147 83 l-35 0 20 26 c60 77 -3 216 -181 401 -85 89 -101 118 -80 149 4 6 17 14 28 18 42 13 100 -10 176 -70 65 -50 76 -64 81 -95 5 -38 75 -167 108 -200 10 -10 19 -23 19 -28 0 -18 130 -130 206 -177 l79 -49 128 -3 c122 -3 130 -2 153 19 18 17 24 33 24 66 0 30 4 43 14 43 17 0 36 72 36 132 0 44 -24 190 -35 221 -4 9 -4 17 -1 17 3 0 17 -24 30 -52 29 -68 135 -219 194 -280 59 -61 114 -83 188 -75 81 8 104 27 104 83 l0 46 53 -45 c28 -24 89 -69 133 -101 77 -53 85 -56 143 -56 l61 0 22 43 c15 29 23 66 26 122 5 89 8 82 -104 210 -44 51 -120 163 -133 198 -10 26 -10 27 11 16 12 -7 50 -34 84 -60 34 -27 64 -49 67 -49 3 0 34 -30 69 -67 126 -135 204 -218 261 -274 31 -32 57 -62 57 -67 0 -5 10 -17 21 -28 12 -10 32 -44 46 -74 13 -30 36 -67 50 -82 25 -26 33 -28 103 -28 46 0 81 5 88 12 7 7 12 30 12 53 0 22 11 79 24 125 58 204 39 353 -60 468 -20 23 -35 42 -32 42 6 0 110 -76 129 -95 11 -11 30 -15 55 -13 l39 3 3 72 3 72 -67 66 c-36 36 -69 65 -71 65 -6 0 -78 57 -111 87 -13 12 -34 25 -46 28 -11 4 -46 18 -76 33 -47 23 -68 27 -145 27 -80 0 -97 -3 -148 -30 -61 -30 -136 -104 -158 -154 l-13 -29 -31 25 c-16 14 -54 48 -84 76 -29 28 -61 56 -71 62 -10 5 -40 22 -66 38 -83 48 -195 33 -229 -33 -18 -35 -20 -171 -4 -219 18 -52 3 -47 -34 10 -19 30 -49 70 -67 89 -18 19 -43 52 -56 72 -27 42 -66 54 -137 45 -49 -7 -70 -30 -94 -107 -9 -30 -18 -56 -19 -58 -1 -2 -15 3 -31 12 -16 8 -57 18 -92 22 -59 6 -64 9 -109 59 -68 76 -150 115 -242 115 -110 0 -171 -35 -231 -133 l-30 -48 -68 63 c-38 35 -97 78 -131 96 -55 28 -72 32 -139 32 -111 -1 -159 -34 -192 -131 -12 -35 -25 -68 -29 -72 -3 -4 -43 26 -88 68 -45 41 -86 75 -91 75 -4 0 -20 11 -34 24 -63 58 -208 102 -267 80z m125 -68 c50 -21 187 -128 286 -223 47 -46 91 -83 96 -83 6 0 18 31 27 70 59 264 202 278 431 43 50 -51 95 -93 101 -93 6 0 19 26 28 58 19 67 38 97 87 140 41 36 78 52 117 52 47 0 127 -46 198 -112 65 -61 73 -65 137 -76 51 -8 80 -20 117 -46 28 -20 56 -36 63 -36 8 0 17 28 25 76 17 111 58 168 102 144 10 -5 57 -61 105 -124 105 -140 196 -239 279 -306 99 -78 121 -66 61 33 -19 32 -35 61 -35 65 0 4 -16 31 -36 61 -63 93 -84 149 -84 224 0 53 4 71 20 87 59 59 129 23 354 -184 50 -45 92 -76 99 -73 8 3 17 27 21 55 16 121 181 239 296 213 120 -27 420 -243 420 -302 0 -17 -11 -12 -79 35 -117 83 -172 106 -253 106 -58 0 -68 -3 -68 -17 1 -10 20 -31 45 -46 61 -39 138 -110 179 -166 71 -97 84 -196 48 -362 -12 -52 -23 -112 -24 -134 -3 -36 -6 -40 -32 -43 -65 -8 -103 25 -126 109 -10 35 -164 210 -363 412 -171 173 -324 258 -357 198 -31 -58 10 -145 144 -305 l108 -130 -7 -45 c-20 -130 -66 -133 -214 -11 -118 97 -204 178 -281 266 -117 133 -129 144 -161 144 -27 0 -29 -3 -29 -37 0 -54 42 -117 173 -260 66 -73 79 -101 55 -120 -45 -35 -120 -12 -183 58 -58 63 -153 209 -171 263 -12 34 -26 52 -60 74 -57 38 -111 49 -133 27 -15 -14 -14 -19 7 -56 34 -60 74 -196 75 -261 2 -58 -19 -98 -50 -98 -16 0 -17 -24 -1 -50 11 -17 9 -23 -9 -41 -45 -45 -179 -32 -283 29 -62 36 -229 207 -262 268 -15 28 -34 77 -43 109 -8 32 -16 59 -17 61 -14 13 -149 109 -169 120 -118 61 -229 17 -229 -90 0 -57 15 -82 103 -169 95 -94 152 -173 172 -240 12 -39 11 -48 -1 -66 -32 -45 -120 -17 -207 67 -85 81 -191 248 -206 324 -7 35 -38 62 -186 163 -69 48 -86 55 -127 55 -61 0 -78 -23 -78 -101 0 -68 52 -225 97 -293 16 -24 43 -70 59 -101 l29 -56 85 3 85 3 72 -109 c40 -59 73 -112 73 -116 0 -5 -22 -11 -50 -15 -27 -4 -50 -12 -50 -18 0 -7 27 -48 60 -91 33 -44 60 -83 60 -88 0 -5 -12 -13 -26 -19 -59 -22 -136 29 -203 135 l-40 63 -97 7 c-106 8 -151 25 -195 73 -38 41 -87 116 -94 144 l-6 25 105 -4 c81 -3 106 -1 106 8 0 15 -102 159 -173 245 -93 111 -195 197 -294 249 -38 19 -94 21 -111 4 -20 -20 -14 -94 12 -152 27 -61 106 -187 141 -226 39 -43 105 -162 105 -189 -1 -114 -56 -99 -193 51 -41 45 -89 101 -105 124 -41 57 -324 318 -379 350 -37 22 -48 25 -69 16 -21 -10 -24 -18 -24 -62 0 -75 19 -110 94 -169 87 -70 200 -193 226 -247 11 -24 20 -46 20 -48 0 -8 -64 -26 -96 -26 -57 0 -79 16 -167 117 -97 112 -182 238 -199 294 -8 28 -32 58 -87 108 -107 96 -146 121 -192 121 -60 0 -85 -14 -109 -65 -30 -62 -32 -176 -3 -211 10 -12 55 -67 101 -121 134 -158 252 -335 317 -477 63 -136 93 -317 61 -361 -13 -18 -15 -18 -57 7 -99 59 -204 176 -311 351 -27 45 -61 98 -73 117 -33 50 -154 324 -165 373 -5 23 -17 77 -26 120 -14 66 -22 82 -48 102 -42 32 -113 50 -132 34 -19 -16 -18 -32 7 -73 28 -49 69 -200 69 -258 0 -47 -24 -88 -51 -88 -6 0 -8 -16 -4 -44 7 -43 6 -45 -26 -61 -44 -23 -136 -15 -211 18 -113 50 -281 218 -335 333 -37 81 -39 200 -4 292 31 83 108 152 176 160 61 6 139 -34 222 -115 35 -35 72 -63 83 -63 51 0 125 -25 166 -56 59 -45 74 -44 74 5 0 49 36 167 62 204 25 35 68 57 111 57 64 0 216 -117 308 -236 23 -30 47 -54 54 -54 8 0 18 22 25 52 13 63 50 129 84 152 67 44 142 -1 273 -164 51 -63 114 -137 139 -165 44 -48 46 -49 39 -20 -3 17 -26 80 -51 141 -54 136 -59 203 -19 247 16 17 36 27 53 27 56 0 181 -93 377 -281 127 -121 145 -124 106 -17 -28 74 -51 170 -51 207 0 38 24 90 54 113 26 21 75 23 121 4z m-397 -316 c19 -12 45 -31 59 -44 14 -13 37 -30 51 -38 15 -7 42 -31 61 -53 20 -22 50 -54 67 -71 17 -16 43 -48 57 -70 13 -21 39 -54 56 -73 17 -19 29 -37 26 -39 -2 -3 -24 1 -48 7 -24 7 -59 11 -78 9 -29 -3 -35 -7 -40 -33 -5 -28 -6 -28 -13 -8 -9 28 -95 158 -130 198 -14 17 -26 35 -26 41 0 6 -14 30 -31 53 -25 36 -69 122 -69 137 0 10 28 2 58 -16z m-1337 -121 c4 -13 7 -37 7 -54 0 -27 -1 -27 -9 8 -5 21 -14 47 -20 59 -9 16 -8 19 2 16 8 -3 16 -15 20 -29z m2691 -526 c67 -64 86 -146 43 -188 -48 -49 -110 -25 -166 64 -36 57 -39 111 -6 141 30 29 89 22 129 -17z"/>
 <path d="M7356 5460 c-52 -16 -64 -35 -60 -98 8 -116 26 -159 105 -238 43 -43 113 -98 172 -135 122 -76 137 -70 80 28 -65 113 -73 141 -73 261 l0 107 -36 29 c-35 28 -111 57 -143 55 -9 0 -29 -5 -45 -9z m111 -80 l51 -29 4 -108 c2 -59 8 -116 12 -125 17 -37 -18 -16 -83 50 -63 63 -68 71 -82 139 -14 65 -14 74 0 88 22 21 39 19 98 -15z"/>
 <path d="M10740 5460 c-38 -9 -70 -42 -70 -71 0 -11 10 -59 22 -107 20 -81 25 -91 82 -150 56 -58 133 -115 233 -173 32 -18 45 -21 54 -12 9 9 5 23 -17 60 -76 130 -79 139 -79 265 l0 116 -44 29 c-80 50 -114 59 -181 43z m105 -77 l55 -27 0 -81 c0 -44 6 -104 13 -132 13 -49 13 -51 -6 -40 -22 14 -91 79 -125 118 -28 32 -49 153 -31 175 16 20 31 18 94 -13z"/>
 <path d="M12411 5349 c-23 -34 -47 -57 -77 -72 -24 -11 -44 -26 -44 -31 0 -14 293 -316 306 -316 11 0 34 149 34 219 0 68 -20 127 -57 171 -31 36 -97 80 -121 80 -5 0 -23 -23 -41 -51z m92 -51 c8 -13 24 -33 35 -44 29 -31 43 -93 36 -158 l-7 -56 -86 92 c-94 99 -100 108 -77 108 8 0 27 18 43 40 15 22 31 40 34 40 4 0 13 -10 22 -22z"/>
 <path d="M8133 4989 c20 -140 151 -412 249 -513 31 -32 62 -56 70 -54 23 9 13 119 -16 184 -67 146 -233 386 -288 415 -20 11 -21 9 -15 -32z"/>
 <path d="M12963 5693 c-25 -13 -33 -23 -33 -43 0 -14 4 -30 8 -35 9 -11 57 -126 67 -162 3 -11 13 -24 21 -27 18 -7 68 14 103 42 l25 20 -19 44 c-34 75 -105 178 -123 177 -9 0 -32 -8 -49 -16z m92 -116 c43 -75 43 -77 23 -88 -11 -6 -24 -7 -28 -2 -17 16 -71 154 -64 164 11 19 26 4 69 -74z"/>
 <path d="M13241 5596 c-8 -9 -11 -113 -9 -362 l3 -349 80 0 80 0 3 272 2 272 93 3 92 3 3 73 c2 46 -2 79 -9 88 -17 20 -321 20 -338 0z m299 -81 l0 -44 -87 -3 -88 -3 -3 -267 -2 -268 -45 0 -45 0 0 308 c0 170 3 312 7 315 3 4 64 7 135 7 l128 0 0 -45z"/>
 <path d="M13641 5596 c-8 -9 -11 -113 -9 -362 l3 -349 85 0 85 0 3 272 2 272 93 3 92 3 3 75 c2 62 0 77 -14 87 -26 19 -327 18 -343 -1z m307 -83 l3 -42 -88 -3 -88 -3 -3 -267 -2 -268 -45 0 -45 0 0 315 0 316 133 -3 132 -3 3 -42z"/>
 <path d="M14214 5586 c-70 -32 -140 -107 -177 -186 -26 -57 -30 -76 -30 -156 -1 -80 3 -98 30 -155 36 -76 104 -146 182 -186 52 -26 64 -28 171 -28 95 1 123 4 160 22 56 26 160 112 160 132 0 11 -108 111 -120 111 -5 0 -28 -15 -52 -33 -76 -58 -135 -73 -205 -52 -88 26 -143 99 -143 190 0 60 19 103 63 142 78 69 174 70 267 4 33 -22 65 -41 72 -41 23 0 108 94 108 118 0 12 -3 22 -7 22 -5 0 -26 16 -48 37 -73 67 -123 83 -260 83 -106 0 -126 -3 -171 -24z m290 -30 c25 -8 69 -31 96 -52 l50 -38 -32 -33 -31 -32 -30 25 c-123 104 -317 69 -389 -70 -31 -58 -31 -166 -1 -222 74 -139 246 -174 385 -78 l37 26 30 -23 c16 -13 30 -27 30 -31 2 -15 -93 -78 -142 -94 -73 -25 -177 -22 -250 6 -79 30 -158 109 -183 182 -23 66 -23 186 0 247 32 86 125 171 209 191 54 13 171 11 221 -4z"/>
 <path d="M8548 3900 c-17 -10 -18 -52 -18 -640 l0 -629 22 -12 c34 -18 513 -5 593 17 250 67 410 292 423 596 5 137 -6 213 -49 323 -38 98 -55 123 -134 202 -120 119 -205 141 -575 149 -170 4 -250 2 -262 -6z m547 -70 c181 -27 317 -149 382 -343 24 -73 27 -97 26 -217 0 -122 -2 -143 -28 -219 -49 -144 -144 -265 -250 -316 -90 -44 -180 -57 -415 -59 l-215 -1 -3 583 -2 582 217 0 c120 0 250 -5 288 -10z"/>
 <path d="M8783 3659 c-10 -10 -13 -103 -13 -395 0 -210 3 -389 6 -398 5 -13 24 -16 108 -16 263 0 402 110 437 343 30 205 -59 399 -209 452 -63 23 -311 33 -329 14z m299 -69 c44 -13 120 -85 150 -144 19 -36 22 -57 22 -176 0 -129 -1 -137 -27 -185 -32 -56 -54 -84 -82 -102 -81 -51 -155 -73 -250 -73 l-55 0 0 351 0 352 103 -6 c56 -3 119 -11 139 -17z"/>
 <path d="M11930 3890 c-81 -13 -128 -26 -153 -43 -42 -28 -141 -120 -153 -141 -53 -101 -64 -130 -74 -201 -7 -48 -10 -114 -5 -164 6 -80 38 -193 63 -222 7 -8 23 -30 35 -49 32 -49 144 -123 227 -150 61 -20 85 -22 194 -18 122 4 126 5 209 46 94 47 168 117 207 197 19 40 22 63 23 208 l2 162 -332 3 c-183 1 -333 5 -333 8 0 3 13 23 30 44 22 28 45 42 95 58 79 27 98 27 177 5 41 -12 73 -29 95 -50 51 -52 83 -46 155 27 77 79 78 106 11 172 -57 54 -97 76 -175 94 -75 18 -229 25 -298 14z m253 -66 c75 -23 152 -62 181 -93 l26 -27 -44 -43 -44 -43 -34 25 c-60 46 -100 57 -210 57 -87 0 -111 -4 -153 -24 -83 -39 -135 -107 -135 -177 l0 -29 346 0 347 0 -6 -101 c-7 -139 -36 -218 -103 -285 -142 -145 -383 -176 -539 -69 -99 67 -169 149 -194 226 -73 226 18 460 215 555 109 52 234 62 347 28z"/>
 <path d="M11770 3306 c0 -100 104 -195 232 -212 60 -8 146 11 197 44 49 32 91 107 91 164 l0 38 -260 0 -260 0 0 -34z m460 -23 c0 -4 -10 -21 -21 -38 -29 -42 -89 -83 -136 -93 -73 -16 -195 44 -232 116 l-12 22 201 0 c110 0 200 -3 200 -7z"/>
 <path d="M13061 3889 c-43 -7 -100 -28 -153 -57 -3 -2 -8 7 -10 20 -3 23 -5 23 -133 23 l-130 0 0 -650 0 -650 130 0 130 0 3 202 2 202 47 -29 c26 -17 63 -35 83 -40 52 -15 198 -12 262 5 55 14 208 99 208 114 0 5 19 32 41 60 73 92 105 260 80 421 -25 163 -147 315 -288 362 -68 22 -198 30 -272 17z m209 -61 c66 -20 113 -50 172 -111 33 -34 68 -78 78 -98 29 -55 53 -194 47 -259 -20 -185 -92 -292 -247 -368 -68 -33 -83 -36 -160 -37 -73 0 -93 4 -142 28 -33 16 -76 49 -102 78 -24 27 -49 49 -55 49 -8 0 -11 -74 -11 -245 l0 -245 -80 0 -80 0 0 605 0 605 80 0 80 0 0 -60 c0 -38 4 -60 11 -60 7 0 30 15 53 34 113 92 233 120 356 84z"/>
 <path d="M13004 3676 c-101 -47 -154 -144 -154 -282 0 -173 112 -294 272 -294 162 0 280 124 281 295 1 130 -53 228 -155 279 -71 35 -171 36 -244 2z m180 -48 c79 -22 166 -137 166 -220 0 -143 -154 -284 -272 -249 -99 30 -186 162 -174 265 9 84 80 179 149 201 54 17 80 18 131 3z"/>
 <path d="M5714 3872 c-5 -4 -21 -34 -34 -67 -13 -33 -30 -71 -37 -85 -7 -14 -13 -31 -13 -39 0 -8 -29 -83 -65 -166 -36 -84 -65 -157 -65 -163 0 -6 -27 -73 -60 -149 -33 -76 -60 -142 -60 -147 0 -6 -29 -78 -65 -161 -54 -127 -65 -161 -65 -208 l0 -57 146 0 145 0 16 38 c8 20 26 61 39 89 13 29 27 65 30 80 4 16 28 75 54 133 26 58 55 128 64 155 15 43 65 161 110 258 l13 28 17 -51 c9 -28 27 -74 40 -103 55 -120 76 -170 76 -182 0 -12 12 -41 90 -211 16 -33 33 -78 39 -100 7 -21 22 -59 34 -84 l22 -45 150 0 150 0 3 34 c2 21 -7 57 -24 95 -14 34 -37 84 -49 111 -12 28 -30 75 -40 105 -16 49 -52 135 -106 257 -11 23 -19 48 -19 56 0 8 -16 50 -36 93 -19 43 -44 98 -54 120 -11 23 -22 55 -26 70 -12 47 -116 288 -128 296 -6 4 -72 8 -146 8 -74 0 -140 -4 -146 -8z m276 -105 c15 -34 36 -87 46 -117 9 -30 20 -59 24 -65 4 -5 17 -37 30 -70 13 -33 36 -88 52 -123 15 -34 28 -67 28 -72 0 -4 27 -72 60 -150 33 -78 60 -146 60 -151 0 -6 9 -29 19 -53 11 -23 30 -67 41 -97 12 -29 32 -77 46 -107 13 -29 24 -57 24 -63 0 -6 -37 -9 -97 -7 l-96 3 -55 130 c-30 72 -63 154 -73 183 -11 29 -38 94 -60 145 -22 51 -53 126 -69 167 -61 161 -94 231 -109 228 -8 -2 -28 -37 -44 -78 -16 -41 -42 -104 -57 -140 -15 -36 -44 -105 -65 -155 -20 -49 -63 -153 -96 -230 -32 -77 -59 -144 -59 -148 0 -5 -10 -31 -21 -58 l-21 -49 -94 0 c-52 0 -94 1 -94 3 0 14 59 168 95 251 25 58 52 125 60 149 7 23 36 96 65 162 28 66 56 135 62 154 5 19 28 74 49 124 22 49 48 114 59 145 10 32 28 78 40 105 l21 47 100 0 100 0 29 -63z"/>
 <path d="M6545 3868 c-3 -7 -4 -224 -3 -483 l3 -470 130 0 130 0 0 480 0 480 -128 3 c-96 2 -129 -1 -132 -10z m215 -473 l0 -436 -82 3 -83 3 -3 433 -2 432 85 0 85 0 0 -435z"/>
 <path d="M7333 3868 c-15 -20 -83 -185 -83 -201 0 -13 -22 -65 -80 -193 -10 -22 -26 -65 -36 -95 -9 -30 -43 -113 -76 -186 -32 -72 -58 -138 -58 -146 0 -13 -22 -65 -80 -193 -33 -73 -51 -141 -48 -180 l3 -39 143 -3 143 -3 38 84 c21 46 42 95 46 108 10 35 57 151 71 174 7 11 28 63 47 115 20 52 49 124 65 160 15 36 35 80 43 98 15 35 29 42 29 15 0 -10 29 -83 65 -163 36 -80 65 -151 65 -158 0 -7 11 -37 24 -65 58 -126 96 -215 96 -226 0 -6 13 -41 29 -76 l30 -66 148 3 148 3 3 38 c2 24 -5 56 -17 83 -12 24 -21 46 -21 49 0 2 -12 30 -26 62 -15 31 -35 84 -46 116 -11 33 -40 105 -65 161 -25 55 -50 117 -55 136 -9 33 -43 114 -93 226 -13 28 -27 66 -33 85 -11 42 -102 259 -115 277 -7 8 -50 12 -152 12 -102 0 -145 -4 -152 -12z m291 -124 c20 -48 39 -98 43 -113 3 -14 9 -30 13 -36 4 -5 22 -48 40 -95 18 -47 36 -89 40 -95 4 -5 20 -46 35 -89 14 -43 42 -111 60 -150 18 -39 42 -98 54 -131 11 -33 43 -114 72 -180 76 -179 79 -165 -32 -165 l-94 0 -67 158 c-37 86 -78 186 -91 222 -13 36 -38 94 -54 130 -17 36 -41 94 -53 130 -12 36 -26 70 -29 75 -4 6 -20 40 -35 78 -16 37 -34 67 -41 67 -13 0 -75 -135 -75 -162 0 -7 -6 -22 -13 -33 -8 -11 -26 -50 -40 -88 -15 -37 -35 -86 -46 -110 -10 -23 -28 -69 -41 -102 -13 -33 -38 -91 -55 -130 -18 -38 -40 -95 -50 -125 -10 -30 -25 -67 -33 -82 -16 -27 -18 -28 -110 -28 -86 0 -93 2 -87 18 4 9 20 51 35 92 15 41 36 96 48 121 24 53 61 143 72 179 5 14 31 79 60 145 28 66 60 146 70 177 11 32 33 86 48 120 16 35 39 90 51 123 13 33 33 84 44 113 l21 52 102 0 102 0 36 -86z"/>
 <path d="M8165 3868 c-3 -7 -4 -224 -3 -483 l3 -470 130 0 130 0 0 480 0 480 -128 3 c-96 2 -129 -1 -132 -10z m215 -473 l0 -436 -82 3 -83 3 -3 433 -2 432 85 0 85 0 0 -435z"/>
 <path d="M10142 3868 c-6 -6 -12 -20 -12 -29 0 -10 -18 -66 -41 -126 -22 -59 -52 -144 -66 -188 -36 -111 -91 -264 -108 -301 -8 -18 -22 -60 -31 -95 -9 -34 -28 -95 -44 -133 -87 -227 -92 -241 -93 -300 l-2 -61 136 -3 c105 -2 139 1 147 11 13 15 77 187 97 257 7 25 37 113 68 195 30 83 61 171 67 198 7 26 16 47 19 47 7 0 102 -277 101 -298 0 -7 28 -97 61 -200 34 -103 63 -193 65 -199 2 -10 36 -13 122 -13 84 0 122 4 129 13 12 14 123 350 123 369 0 23 104 328 112 328 5 0 8 -12 8 -26 0 -14 6 -40 14 -57 30 -65 116 -304 116 -321 0 -10 6 -32 14 -49 8 -18 31 -77 52 -132 20 -55 41 -106 47 -113 7 -9 45 -12 146 -10 l136 3 3 33 c2 19 -4 52 -12 73 -9 22 -16 49 -16 60 0 12 -6 35 -14 52 -25 54 -88 228 -112 307 -12 41 -44 136 -72 210 -27 74 -56 158 -65 185 -8 28 -38 111 -65 185 l-51 135 -138 0 -138 0 -47 -140 c-25 -77 -47 -149 -47 -160 -1 -11 -28 -99 -60 -195 l-58 -175 -12 43 c-7 24 -34 109 -61 190 -27 81 -56 176 -64 212 -9 36 -28 101 -43 145 l-28 80 -135 3 c-97 2 -139 -1 -148 -10z m238 -43 c0 -11 57 -207 105 -360 99 -315 125 -401 125 -412 0 -18 20 -26 35 -13 13 11 42 94 72 210 7 30 38 132 67 225 30 94 67 212 82 263 l28 93 90 -3 91 -3 38 -105 c21 -58 49 -143 62 -188 14 -46 32 -96 39 -110 8 -15 39 -101 69 -192 31 -91 72 -210 92 -265 20 -55 49 -139 65 -187 l28 -88 -93 0 c-80 0 -93 2 -98 18 -3 9 -35 103 -72 207 -36 105 -92 267 -124 360 -78 225 -89 249 -105 236 -7 -6 -25 -52 -40 -103 -15 -51 -54 -176 -87 -278 -32 -102 -59 -189 -59 -195 0 -5 -17 -63 -37 -127 l-38 -118 -80 0 -80 0 -21 68 c-12 37 -34 108 -49 157 -15 50 -53 173 -85 275 -32 102 -66 213 -75 248 -24 84 -39 95 -60 45 -28 -64 -84 -223 -111 -313 -14 -46 -29 -89 -33 -95 -5 -5 -18 -41 -31 -80 -12 -38 -28 -83 -35 -100 -7 -16 -23 -65 -35 -108 -13 -43 -29 -82 -36 -88 -7 -5 -50 -9 -97 -7 l-84 3 47 140 c60 177 98 285 177 506 35 96 63 180 63 185 0 8 53 157 99 277 10 27 12 27 101 27 49 0 90 -2 90 -5z"/>
 <path d="M6579 2837 c-19 -12 -42 -38 -51 -57 -25 -49 -24 -134 2 -176 39 -62 153 -94 219 -60 15 8 42 31 60 51 27 31 31 43 31 91 0 70 -19 114 -62 148 -48 36 -148 38 -199 3z m152 -53 c35 -18 62 -73 53 -108 -7 -29 -50 -71 -85 -85 -41 -15 -104 20 -119 65 -15 46 -6 81 32 116 34 32 73 36 119 12z"/>
 <path d="M8202 2839 c-47 -30 -62 -67 -62 -148 0 -61 3 -73 27 -102 68 -81 204 -79 267 3 23 30 26 44 26 108 0 72 0 73 -44 116 -43 43 -44 44 -112 44 -53 0 -77 -5 -102 -21z m181 -79 c86 -96 -62 -232 -154 -141 -31 31 -38 76 -19 125 23 62 123 72 173 16z"/>
 <path d="M2445 1363 c-71 -16 -181 -71 -198 -99 -4 -8 -13 -14 -20 -14 -17 0 -97 -92 -97 -112 0 -10 -3 -18 -7 -18 -10 0 -37 -58 -58 -123 -24 -75 -21 -281 6 -352 31 -83 66 -141 124 -203 50 -54 138 -112 169 -112 8 0 16 -6 18 -12 3 -9 40 -14 120 -16 100 -4 125 -1 180 18 34 12 65 25 68 28 3 4 22 16 44 27 21 11 48 33 60 48 11 16 37 47 57 70 20 23 49 69 64 102 28 58 29 65 29 231 1 124 -3 179 -13 200 -57 124 -106 190 -181 246 -59 45 -93 63 -159 82 -49 15 -159 20 -206 9z m169 -103 c5 -5 18 -10 29 -10 26 0 106 -46 145 -83 35 -34 88 -118 110 -177 35 -89 36 -231 4 -315 -24 -62 -99 -171 -140 -202 -140 -107 -298 -110 -445 -9 -62 43 -101 93 -142 181 -54 115 -43 311 23 420 65 106 161 175 287 209 29 7 117 -2 129 -14z"/>
 </g>

</svg>