<!DOCTYPE svg PUBLIC "-//W3C//DTD SVG 20010904//EN" "http://www.w3.org/TR/2001/REC-SVG-20010904/DTD/svg10.dtd">
<svg version="1.0" xmlns="http://www.w3.org/2000/svg" width="1399px" height="741px" viewBox="0 0 13990 7410" preserveAspectRatio="xMidYMid meet">
<g id="layer1" fill="#fffefd" stroke="none">
 <path d="M2520 7295 c-8 -2 -58 -9 -110 -15 -107 -13 -220 -34 -296 -56 -28 -7 -59 -14 -70 -14 -10 0 -32 -7 -48 -15 -15 -8 -36 -15 -45 -15 -9 0 -29 -7 -45 -15 -15 -8 -35 -15 -43 -15 -8 0 -27 -6 -41 -14 -15 -8 -47 -22 -72 -31 -41 -16 -288 -136 -328 -160 -494 -293 -892 -750 -1110 -1275 -6 -14 -20 -47 -31 -74 -12 -27 -21 -56 -21 -65 0 -9 -4 -21 -9 -26 -6 -6 -15 -30 -21 -55 -24 -94 -45 -179 -71 -290 -12 -50 -24 -161 -39 -350 -19 -237 16 -586 84 -835 9 -33 21 -78 27 -100 6 -22 14 -44 20 -50 5 -5 9 -18 9 -28 0 -10 6 -33 14 -50 7 -18 21 -52 31 -77 19 -46 137 -288 158 -325 73 -124 219 -323 315 -432 74 -83 105 -93 141 -47 12 15 21 30 21 35 0 11 63 146 176 375 52 106 94 201 94 211 0 11 -13 38 -28 59 -36 50 -142 228 -164 277 -18 37 -34 74 -59 132 -21 51 -48 129 -49 142 0 6 -5 24 -12 40 -32 76 -67 296 -75 470 -7 173 27 437 73 566 8 20 14 46 14 56 0 10 7 32 15 47 8 16 15 37 15 46 0 9 4 19 9 22 5 3 12 18 16 33 6 27 92 208 118 248 196 315 386 510 659 678 90 56 250 137 270 137 7 0 22 6 33 13 11 7 54 23 95 36 41 12 84 26 95 31 27 10 148 36 261 55 193 32 509 15 714 -39 30 -8 75 -20 100 -26 25 -7 59 -18 77 -26 17 -8 36 -14 42 -14 6 0 19 -4 29 -9 9 -6 37 -19 62 -30 420 -184 756 -500 950 -891 69 -141 78 -160 86 -193 3 -15 10 -30 15 -33 5 -3 9 -14 9 -26 0 -11 6 -34 14 -51 32 -73 61 -219 82 -419 16 -147 16 -168 1 -315 -20 -193 -49 -340 -83 -420 -8 -17 -14 -40 -14 -51 0 -12 -4 -23 -9 -26 -5 -3 -12 -18 -15 -32 -9 -35 -93 -210 -125 -259 -14 -22 -33 -55 -43 -73 -10 -18 -32 -51 -48 -74 -51 -70 -46 -87 96 -377 69 -141 135 -276 147 -301 18 -37 27 -46 53 -48 28 -3 39 5 97 70 94 105 222 280 292 400 67 114 148 279 190 388 10 25 24 59 31 77 8 17 14 40 14 50 0 10 4 23 9 28 10 10 18 40 46 155 7 30 18 75 24 100 40 169 46 244 46 555 0 319 -5 370 -51 575 -37 162 -106 370 -171 510 -57 123 -72 153 -103 205 -16 28 -34 59 -39 70 -17 34 -163 240 -225 317 -93 115 -303 317 -433 415 -120 91 -210 153 -220 153 -3 0 -24 12 -47 28 -36 24 -264 139 -321 163 -11 4 -42 17 -69 28 -27 12 -54 21 -61 21 -7 0 -26 7 -41 15 -16 8 -36 15 -45 15 -9 0 -30 7 -45 15 -16 8 -37 15 -48 15 -10 0 -39 6 -65 14 -68 22 -135 35 -231 47 -47 6 -116 14 -155 19 -64 8 -459 12 -495 5z m515 -70 c152 -16 259 -35 370 -65 44 -12 89 -24 100 -27 11 -3 34 -11 52 -19 17 -8 38 -14 46 -14 9 0 28 -6 44 -14 42 -22 100 -46 110 -46 13 0 306 -150 324 -166 8 -8 18 -14 22 -14 9 0 130 -84 232 -161 240 -181 509 -488 652 -744 59 -107 173 -346 173 -364 0 -6 4 -19 9 -29 25 -44 90 -268 116 -392 38 -188 45 -269 45 -504 0 -235 -8 -330 -46 -516 -22 -109 -67 -271 -91 -327 -7 -17 -13 -38 -13 -46 0 -9 -4 -18 -9 -21 -5 -3 -12 -18 -16 -33 -5 -23 -140 -301 -178 -369 -58 -101 -288 -413 -321 -436 -7 -4 -34 41 -69 115 -33 67 -95 195 -140 285 -92 186 -92 160 -2 298 58 88 99 165 135 249 12 28 25 59 30 70 9 18 21 57 65 195 14 47 35 148 54 263 19 112 24 314 12 417 -7 52 -16 125 -20 161 -26 208 -127 495 -250 704 -104 178 -315 420 -476 547 -93 72 -223 157 -315 204 -87 45 -196 94 -209 94 -5 0 -22 7 -37 15 -16 8 -38 15 -49 15 -12 0 -25 4 -30 9 -6 5 -30 14 -55 19 -25 6 -65 16 -90 22 -25 6 -65 15 -90 21 -144 33 -526 35 -705 3 -323 -58 -608 -182 -865 -374 -109 -83 -308 -281 -388 -388 -34 -45 -62 -85 -62 -88 0 -3 -11 -20 -24 -37 -13 -18 -40 -63 -61 -102 -57 -105 -48 -86 -109 -227 -9 -20 -16 -42 -16 -50 0 -8 -4 -18 -9 -23 -6 -6 -14 -28 -20 -50 -5 -22 -19 -73 -31 -114 -45 -160 -60 -283 -60 -512 0 -172 4 -241 20 -335 11 -66 24 -130 29 -144 5 -14 19 -61 31 -105 12 -44 26 -84 31 -90 5 -5 9 -15 9 -22 0 -11 42 -109 88 -203 14 -28 85 -148 152 -255 13 -22 10 -31 -42 -137 -31 -62 -75 -153 -98 -203 -23 -49 -55 -116 -71 -148 -16 -31 -29 -63 -29 -71 0 -7 -6 -19 -14 -25 -10 -9 -24 1 -62 47 -91 104 -242 315 -297 412 -54 95 -133 262 -167 350 -11 30 -24 64 -29 75 -8 20 -30 92 -52 170 -23 83 -41 163 -55 245 -37 214 -46 406 -29 640 7 102 16 192 19 200 3 8 10 42 16 75 11 74 30 153 64 270 25 84 39 125 72 202 8 17 14 35 14 40 0 16 144 297 178 347 18 26 32 49 32 52 0 10 94 141 168 233 143 178 378 396 552 511 36 23 77 51 92 61 116 80 384 204 593 274 292 98 704 138 1050 100z"/>
 <path d="M2718 6419 c-10 -5 -38 -53 -64 -107 -57 -120 -154 -320 -249 -517 -40 -82 -93 -193 -118 -245 -42 -89 -84 -177 -274 -570 -42 -85 -94 -195 -118 -245 -24 -49 -77 -160 -118 -245 -96 -200 -201 -416 -267 -555 -29 -60 -85 -177 -125 -260 -92 -190 -197 -409 -265 -550 -50 -105 -117 -244 -275 -570 -40 -82 -99 -204 -130 -270 -72 -150 -198 -410 -281 -580 -63 -128 -76 -179 -52 -203 9 -9 111 -12 398 -12 333 0 389 2 408 16 12 8 22 19 22 24 0 8 25 64 91 208 16 34 29 64 29 67 0 3 14 36 31 73 65 137 92 198 105 227 13 31 55 125 106 235 16 36 36 79 43 95 7 17 28 62 45 100 77 167 92 202 105 230 16 36 65 145 107 235 17 36 36 79 44 95 33 75 76 168 118 257 25 53 46 99 46 102 0 3 20 47 44 98 70 150 106 228 106 233 0 2 20 46 44 97 72 152 106 228 106 233 0 3 18 42 39 88 62 131 111 237 111 242 0 4 46 106 90 200 15 33 40 87 55 120 15 33 37 81 49 106 l21 45 19 -40 c10 -23 27 -61 38 -86 12 -25 38 -81 58 -125 93 -199 109 -234 135 -290 15 -33 46 -100 70 -150 52 -109 103 -220 140 -300 30 -66 58 -127 130 -280 26 -55 60 -127 75 -160 42 -92 84 -181 133 -285 25 -52 57 -122 72 -155 29 -64 71 -155 140 -300 23 -49 53 -112 65 -140 12 -27 40 -86 60 -130 93 -199 109 -234 135 -290 15 -33 46 -100 70 -150 59 -123 98 -208 131 -285 16 -35 47 -100 69 -145 l40 -80 394 -3 c282 -1 398 1 407 9 26 22 14 68 -60 215 -78 157 -260 529 -391 799 -80 165 -220 451 -450 920 -73 149 -166 340 -207 425 -73 148 -208 425 -473 965 -67 138 -162 331 -210 430 -48 99 -147 302 -220 450 -253 514 -315 644 -315 657 0 34 -46 49 -82 27z m64 -149 c17 -36 90 -186 163 -335 250 -509 402 -820 495 -1010 97 -200 237 -486 463 -945 74 -151 172 -351 217 -445 81 -168 230 -471 460 -940 65 -132 152 -312 195 -400 69 -142 293 -602 300 -615 2 -3 -156 -5 -351 -5 l-354 0 -19 40 c-30 63 -121 258 -131 280 -11 25 -71 155 -122 265 -22 47 -53 112 -68 145 -48 104 -101 217 -140 300 -21 44 -48 103 -60 130 -29 64 -90 195 -145 310 -24 50 -53 113 -65 140 -21 48 -50 111 -145 310 -24 50 -53 113 -65 140 -12 28 -39 86 -60 130 -35 74 -80 170 -135 290 -13 28 -44 95 -70 150 -54 115 -89 191 -135 290 -18 39 -52 113 -77 165 -24 52 -60 129 -80 170 -70 151 -101 199 -119 187 -14 -8 -161 -311 -234 -482 -19 -43 -73 -163 -100 -220 -16 -33 -38 -82 -50 -110 -12 -27 -32 -72 -45 -100 -33 -71 -73 -161 -102 -225 -14 -30 -35 -77 -48 -105 -33 -73 -71 -157 -101 -222 -30 -68 -63 -140 -111 -243 -19 -41 -38 -84 -43 -95 -5 -11 -24 -54 -43 -95 -61 -131 -98 -214 -107 -235 -5 -11 -24 -54 -43 -95 -61 -131 -98 -214 -107 -235 -5 -11 -24 -54 -43 -95 -55 -118 -98 -213 -107 -235 -12 -26 -65 -144 -100 -220 -15 -33 -37 -82 -49 -110 -12 -27 -28 -63 -36 -80 -13 -28 -50 -110 -89 -197 -9 -20 -16 -41 -16 -47 0 -20 -42 -22 -387 -19 l-341 3 83 170 c46 94 113 233 150 310 37 77 100 208 140 290 122 251 220 455 270 560 26 55 87 181 135 280 103 212 195 403 258 535 24 52 77 163 117 245 110 227 217 448 270 560 26 55 80 168 120 250 121 248 220 454 270 560 49 103 143 298 270 560 40 83 94 195 120 250 26 55 61 130 79 166 17 36 33 61 35 55 2 -6 17 -40 33 -76z"/>
 <path d="M6095 5966 c-113 -27 -231 -123 -271 -220 -16 -38 -24 -46 -44 -46 -43 0 -50 -17 -50 -115 0 -57 4 -95 12 -103 8 -8 53 -12 138 -12 147 0 160 6 160 79 0 24 7 58 16 77 45 95 222 132 342 72 84 -42 113 -118 73 -196 -29 -56 -92 -91 -250 -136 -204 -59 -255 -82 -321 -143 -36 -33 -70 -77 -87 -111 -26 -53 -28 -66 -28 -177 0 -143 14 -184 96 -270 100 -106 242 -153 429 -142 153 8 256 60 343 172 31 41 48 55 68 55 42 0 49 17 49 116 0 66 -4 95 -14 103 -9 8 -56 11 -141 9 -141 -3 -139 -2 -150 -73 -17 -105 -174 -166 -306 -120 -87 31 -129 99 -109 174 16 59 53 81 250 146 96 32 205 73 241 91 80 40 148 104 186 175 26 51 28 61 28 179 0 118 -2 128 -29 183 -54 107 -174 198 -303 232 -69 18 -256 19 -328 1z m286 -50 c119 -26 225 -96 282 -187 56 -92 59 -229 7 -336 -52 -104 -114 -142 -393 -233 -196 -65 -241 -90 -271 -154 -20 -42 -21 -128 -2 -164 54 -103 204 -155 341 -117 101 27 175 103 175 180 0 25 0 25 95 25 l95 0 0 -65 0 -65 -29 0 c-24 0 -34 -8 -55 -44 -53 -91 -158 -156 -283 -176 -148 -24 -326 26 -415 115 -126 127 -126 358 -2 479 51 50 116 79 279 126 174 51 220 71 268 118 53 51 67 82 67 146 0 91 -33 145 -115 189 -34 19 -56 22 -155 22 -104 0 -121 -3 -164 -25 -68 -35 -104 -83 -118 -158 l-12 -62 -93 0 -93 0 0 59 c0 57 1 60 27 63 21 2 33 15 59 67 18 35 47 79 66 98 89 93 272 134 439 99z"/>
 <path d="M7155 5966 c-171 -41 -314 -202 -345 -388 -17 -97 -8 -246 19 -322 44 -124 133 -224 249 -279 66 -32 68 -32 222 -32 l155 0 70 34 c122 60 215 174 250 306 20 78 20 262 0 340 -43 164 -175 299 -330 340 -70 18 -218 19 -290 1z m231 -47 c216 -40 354 -222 354 -467 -1 -276 -177 -462 -439 -462 -267 1 -442 181 -444 460 -2 204 84 360 238 432 97 45 186 56 291 37z"/>
 <path d="M7207 5796 c-82 -30 -152 -106 -184 -199 -26 -76 -23 -224 5 -298 47 -120 150 -193 271 -193 126 1 225 71 272 193 31 80 31 233 1 312 -27 68 -79 131 -139 166 -55 32 -166 42 -226 19z m193 -69 c189 -92 187 -454 -3 -543 -137 -63 -278 9 -323 165 -11 37 -15 79 -12 132 8 133 73 231 178 264 53 17 99 12 160 -18z"/>
 <path d="M9965 5970 c-91 -13 -137 -49 -177 -135 -22 -48 -23 -62 -26 -352 l-4 -303 -57 0 c-31 0 -62 -5 -69 -12 -7 -7 -12 -44 -12 -98 0 -54 5 -91 12 -98 7 -7 39 -12 75 -12 l63 0 0 -98 c0 -115 -2 -112 104 -160 127 -59 136 -51 136 125 l0 133 93 0 c59 0 97 4 105 12 7 7 12 44 12 98 0 54 -5 91 -12 98 -8 8 -47 12 -110 12 l-98 0 0 248 c0 140 5 263 11 284 11 43 36 54 97 44 136 -22 128 -25 156 58 29 88 18 112 -59 139 -52 18 -176 27 -240 17z m201 -66 c27 -9 50 -18 52 -19 2 -2 -2 -22 -9 -45 -11 -35 -16 -40 -33 -35 -56 16 -123 17 -159 2 -65 -28 -68 -44 -65 -385 l3 -297 108 -3 107 -3 0 -49 0 -49 -107 -3 -108 -3 -3 -142 -3 -142 -62 30 -62 29 -5 112 -5 113 -72 3 -73 3 0 49 0 49 73 3 72 3 0 305 c0 214 4 317 12 345 33 107 89 144 214 145 44 0 96 -7 125 -16z"/>
 <path d="M11240 5964 c-151 -40 -283 -178 -325 -339 -19 -74 -20 -261 -1 -330 21 -79 64 -154 124 -217 101 -106 183 -138 357 -138 174 0 256 32 357 138 97 101 138 213 138 377 0 110 -20 199 -62 277 -61 115 -186 212 -306 237 -73 15 -216 13 -282 -5z m234 -44 c219 -36 359 -215 360 -460 0 -102 -16 -175 -57 -254 -74 -141 -207 -216 -382 -216 -183 0 -319 82 -392 235 -73 154 -72 314 3 471 80 170 264 258 468 224z"/>
 <path d="M11285 5787 c-73 -35 -140 -114 -165 -194 -43 -141 -17 -300 65 -391 63 -69 119 -95 209 -95 122 0 211 58 265 172 24 51 26 67 26 176 0 109 -2 125 -26 176 -53 112 -137 171 -254 177 -58 2 -79 -1 -120 -21z m216 -63 c138 -69 179 -297 85 -459 -31 -53 -93 -92 -159 -101 -152 -21 -271 108 -271 291 0 135 64 244 167 284 62 25 108 21 178 -15z"/>
 <path d="M13440 5967 c-54 -15 -106 -45 -139 -81 -19 -20 -34 -26 -66 -26 -22 0 -46 -5 -53 -12 -8 -8 -12 -47 -12 -108 0 -61 4 -100 12 -108 17 -17 222 -16 235 1 6 6 16 29 23 50 10 31 21 43 54 58 108 49 244 -7 208 -86 -14 -30 -39 -43 -192 -100 -149 -55 -170 -66 -222 -113 -60 -54 -78 -100 -78 -203 0 -72 4 -93 26 -137 31 -62 93 -116 164 -143 39 -15 76 -19 168 -19 143 0 192 14 261 76 38 34 57 44 83 44 19 0 39 5 46 12 16 16 16 190 0 206 -17 17 -222 16 -235 0 -6 -7 -13 -25 -17 -40 -9 -39 -41 -65 -96 -78 -89 -21 -172 23 -156 84 7 28 31 41 199 100 151 54 158 57 214 109 70 65 87 106 88 212 0 74 -4 98 -23 137 -29 59 -88 113 -161 146 -48 22 -72 26 -171 29 -72 2 -132 -2 -160 -10z m292 -67 c113 -42 168 -118 168 -231 -1 -124 -60 -196 -209 -249 -187 -67 -226 -84 -260 -116 -31 -28 -36 -39 -36 -77 0 -52 28 -90 82 -113 38 -17 123 -18 176 -3 44 12 107 71 107 99 0 18 7 20 80 20 l80 0 0 -60 0 -60 -37 0 c-30 0 -45 -8 -73 -37 -51 -53 -110 -76 -209 -81 -207 -11 -328 73 -338 236 -4 56 -1 74 19 111 35 67 80 96 247 160 171 66 194 79 221 124 26 42 25 76 -3 118 -33 51 -88 74 -173 74 -90 -1 -153 -34 -180 -95 l-18 -40 -78 0 -78 0 0 60 0 60 44 0 c36 0 47 5 60 25 25 38 92 78 155 92 72 16 184 9 253 -17z"/>
 <path d="M8795 5961 c-81 -20 -155 -80 -194 -158 -31 -62 -41 -154 -41 -395 l0 -218 -48 0 c-26 0 -53 -5 -60 -12 -16 -16 -16 -190 0 -206 17 -17 332 -17 346 1 7 8 12 128 14 327 3 297 4 318 24 361 18 39 29 49 69 65 40 15 55 16 101 6 29 -6 74 -20 99 -31 l45 -20 0 -245 0 -246 -53 0 c-29 0 -58 -5 -65 -12 -16 -16 -16 -190 0 -206 17 -17 339 -17 356 0 9 9 12 107 12 380 l0 368 38 0 c21 0 43 5 50 12 16 16 16 190 0 206 -8 8 -59 12 -165 12 -140 0 -154 -2 -165 -19 -12 -19 -13 -19 -47 -1 -72 36 -231 51 -316 31z m249 -67 c22 -8 65 -28 94 -45 29 -16 57 -27 62 -24 6 4 10 22 10 41 l0 34 120 0 120 0 0 -64 0 -65 -47 -3 -48 -3 -3 -372 -2 -373 -135 0 -135 0 0 60 0 59 58 3 57 3 3 281 c3 324 10 299 -103 340 -138 50 -252 25 -305 -68 -25 -43 -25 -43 -28 -360 l-3 -318 -135 0 -134 0 0 60 0 59 63 3 62 3 5 285 c5 271 6 288 28 335 38 83 93 126 185 145 52 11 157 3 211 -16z"/>
 <path d="M7892 5938 c-8 -8 -12 -46 -12 -103 0 -57 4 -95 12 -103 7 -7 38 -12 70 -12 l58 0 0 -490 0 -490 -58 0 c-32 0 -63 -5 -70 -12 -8 -8 -12 -46 -12 -103 0 -57 4 -95 12 -103 8 -8 62 -12 178 -12 116 0 170 4 178 12 9 9 12 157 12 605 l0 593 58 0 c32 0 63 5 70 12 8 8 12 46 12 103 0 57 -4 95 -12 103 -9 9 -78 12 -248 12 -170 0 -239 -3 -248 -12z m448 -103 l0 -64 -62 -3 -63 -3 -3 -602 -2 -603 -135 0 -135 0 0 60 0 59 63 3 62 3 0 540 0 540 -62 3 -63 3 0 64 0 65 200 0 200 0 0 -65z"/>
 <path d="M10342 5938 c-16 -16 -16 -190 0 -206 7 -7 36 -12 65 -12 l53 0 0 -265 0 -265 -53 0 c-29 0 -58 -5 -65 -12 -16 -16 -16 -190 0 -206 8 -8 61 -12 173 -12 112 0 165 4 173 12 9 9 12 107 12 380 l0 368 58 0 c32 0 63 5 70 12 8 8 12 46 12 103 0 57 -4 95 -12 103 -9 9 -77 12 -243 12 -166 0 -234 -3 -243 -12z m448 -103 l0 -64 -67 -3 -68 -3 -3 -372 -2 -373 -135 0 -135 0 0 60 0 59 63 3 62 3 0 310 0 310 -62 3 -63 3 0 64 0 65 205 0 205 0 0 -65z"/>
 <path d="M12002 5938 c-16 -16 -16 -190 0 -206 7 -7 34 -12 60 -12 l48 0 0 -265 0 -265 -48 0 c-26 0 -53 -5 -60 -12 -16 -16 -16 -190 0 -206 8 -8 61 -12 173 -12 165 0 185 4 185 41 0 14 9 12 58 -14 56 -31 59 -32 192 -32 124 0 139 2 183 25 58 29 112 86 141 149 20 43 21 65 24 319 l3 272 53 0 c28 0 57 5 64 12 8 8 12 46 12 103 0 57 -4 95 -12 103 -17 17 -469 17 -486 0 -8 -8 -12 -46 -12 -103 0 -57 4 -95 12 -103 7 -7 36 -12 65 -12 l53 0 0 -212 c0 -192 -2 -216 -20 -253 -15 -30 -32 -47 -60 -60 -61 -28 -111 -23 -195 19 l-75 37 0 235 0 234 53 0 c29 0 58 5 65 12 8 8 12 46 12 103 0 57 -4 95 -12 103 -9 9 -76 12 -238 12 -162 0 -229 -3 -238 -12z m438 -103 l0 -64 -62 -3 -63 -3 -3 -272 -2 -271 27 -20 c146 -102 291 -107 376 -12 50 55 58 106 55 360 l-3 215 -62 3 -63 3 0 64 0 65 200 0 200 0 0 -65 0 -64 -62 -3 -63 -3 -5 -275 c-5 -228 -9 -283 -23 -319 -26 -66 -62 -108 -120 -139 -47 -24 -62 -27 -152 -27 -88 0 -107 3 -158 27 -32 15 -76 42 -98 59 -21 17 -43 28 -49 24 -5 -3 -10 -26 -10 -51 l0 -44 -130 0 -130 0 0 60 0 59 63 3 62 3 0 310 0 310 -62 3 -63 3 0 64 0 65 200 0 200 0 0 -65z"/>
 <path d="M10515 4826 c-17 -7 -43 -28 -58 -45 -24 -29 -27 -41 -27 -103 0 -70 1 -72 40 -110 39 -37 43 -38 110 -38 68 0 71 1 110 40 39 39 40 42 40 107 0 56 -4 71 -26 101 -44 57 -122 77 -189 48z m128 -66 c54 -43 43 -138 -18 -167 -71 -34 -145 11 -145 89 0 82 98 129 163 78z"/>
 <path d="M12053 4200 c-143 -20 -302 -138 -368 -274 -60 -123 -69 -305 -24 -452 45 -146 203 -287 360 -323 66 -15 227 -13 292 4 183 48 323 195 347 366 14 94 13 252 -2 267 -9 9 -105 12 -370 12 -260 0 -358 3 -358 11 0 7 19 31 43 54 109 108 299 111 419 6 20 -17 44 -31 55 -31 29 0 153 132 153 163 0 31 -78 105 -147 140 -103 53 -265 76 -400 57z m256 -65 c70 -17 157 -60 208 -103 l33 -27 -51 -52 -50 -52 -44 33 c-62 47 -131 68 -229 68 -106 1 -186 -32 -250 -103 -40 -45 -72 -121 -60 -141 3 -4 172 -8 376 -8 l370 0 -4 -127 c-3 -113 -6 -135 -30 -185 -113 -242 -453 -322 -693 -162 -94 62 -159 156 -184 265 -15 66 -13 207 4 274 41 158 159 277 316 319 71 19 208 19 288 1z"/>
 <path d="M11867 3603 c-10 -10 3 -72 24 -114 22 -45 79 -96 138 -123 62 -29 209 -30 261 -2 82 43 137 120 142 198 l3 43 -281 3 c-154 1 -283 -1 -287 -5z m498 -80 c-29 -69 -74 -104 -160 -123 -85 -19 -213 33 -255 103 -36 58 -40 57 205 57 l225 0 -15 -37z"/>
 <path d="M13282 4199 c-53 -9 -114 -35 -164 -71 l-28 -19 0 28 c0 16 -5 34 -12 41 -17 17 -239 17 -256 0 -17 -17 -17 -1369 0 -1386 17 -17 239 -17 256 0 9 9 12 74 12 230 l0 218 45 -35 c60 -45 130 -65 230 -65 94 0 178 20 249 58 67 37 165 136 199 203 70 140 75 368 11 509 -54 118 -166 227 -277 268 -64 24 -192 34 -265 21z m272 -88 c119 -58 200 -157 240 -290 18 -62 21 -221 5 -290 -37 -162 -168 -289 -338 -327 -144 -32 -258 2 -354 106 -30 32 -58 56 -61 53 -3 -4 -6 -125 -6 -270 l0 -263 -90 0 -90 0 0 655 0 655 90 0 90 0 0 -63 c0 -35 3 -66 6 -70 3 -3 30 14 60 39 103 83 165 105 290 101 80 -2 99 -7 158 -36z"/>
 <path d="M13260 3991 c-162 -53 -251 -208 -220 -382 15 -84 37 -124 102 -185 63 -60 110 -78 198 -78 83 0 142 27 205 95 70 75 89 126 89 234 0 71 -4 100 -21 137 -27 60 -101 134 -160 160 -51 22 -153 32 -193 19z m178 -77 c166 -83 194 -320 52 -447 -79 -71 -168 -86 -257 -42 -190 95 -189 402 1 491 69 32 137 32 204 -2z"/>
 <path d="M6178 4173 c-22 -27 -508 -1244 -508 -1274 0 -45 14 -49 162 -49 132 0 138 1 151 23 8 12 88 203 178 424 90 222 167 403 170 403 3 0 81 -185 174 -410 93 -226 176 -417 185 -425 13 -12 46 -15 151 -15 138 0 159 5 159 40 0 25 -499 1262 -518 1283 -13 15 -34 17 -152 17 -118 0 -139 -2 -152 -17z m512 -653 l247 -615 -100 -3 c-55 -1 -104 1 -108 5 -4 4 -91 213 -194 463 -103 250 -189 459 -192 463 -3 4 -11 3 -18 -3 -7 -6 -97 -217 -201 -470 l-189 -460 -102 0 c-57 0 -103 4 -103 8 0 5 99 256 221 558 122 302 232 577 246 612 l25 63 111 -3 111 -3 246 -615z"/>
 <path d="M7082 4178 c-17 -17 -17 -999 0 -1016 8 -8 51 -12 128 -12 77 0 120 4 128 12 17 17 17 999 0 1016 -8 8 -51 12 -128 12 -77 0 -120 -4 -128 -12z m218 -503 l0 -465 -90 0 -90 0 0 465 0 465 90 0 90 0 0 -465z"/>
 <path d="M7932 4178 c-15 -19 -505 -1239 -510 -1271 -8 -52 7 -57 159 -57 133 0 139 1 153 23 8 12 90 204 182 427 91 223 167 406 168 407 1 1 78 -182 170 -407 93 -225 175 -419 183 -430 13 -18 25 -20 152 -20 152 0 167 5 159 57 -5 32 -495 1252 -510 1271 -8 8 -51 12 -153 12 -102 0 -145 -4 -153 -12z m505 -641 c133 -331 245 -610 248 -619 7 -16 -2 -18 -98 -18 l-104 0 -188 458 c-104 251 -193 463 -198 470 -8 11 -12 11 -22 0 -6 -7 -92 -209 -190 -448 -98 -239 -183 -445 -188 -457 -10 -22 -16 -23 -114 -23 -62 0 -103 4 -101 10 2 5 113 284 248 620 l245 610 110 0 110 0 242 -603z"/>
 <path d="M8832 4178 c-17 -17 -17 -999 0 -1016 8 -8 51 -12 128 -12 77 0 120 4 128 12 17 17 17 999 0 1016 -8 8 -51 12 -128 12 -77 0 -120 -4 -128 -12z m218 -503 l0 -465 -90 0 -90 0 0 465 0 465 90 0 90 0 0 -465z"/>
 <path d="M10126 4168 c-18 -28 -446 -1255 -446 -1278 0 -34 21 -40 154 -40 102 0 133 3 146 15 10 9 77 188 151 400 129 369 134 382 146 351 6 -19 60 -191 119 -382 59 -192 114 -357 122 -366 13 -15 33 -18 127 -18 94 0 114 3 127 18 8 9 68 190 134 401 l118 383 13 -38 c159 -458 258 -733 271 -746 13 -15 34 -18 147 -18 134 0 155 5 155 41 0 23 -428 1249 -446 1277 -14 21 -21 22 -143 22 -91 0 -131 -4 -138 -12 -6 -7 -61 -180 -124 -385 -62 -205 -114 -371 -115 -370 -1 1 -52 169 -114 372 -62 204 -117 376 -122 383 -8 8 -48 12 -139 12 -122 0 -129 -1 -143 -22z m369 -458 c114 -368 134 -425 150 -425 17 0 37 57 150 425 l130 425 97 3 96 3 20 -58 c35 -104 400 -1147 408 -1166 6 -16 -1 -18 -96 -15 l-103 3 -148 425 c-177 505 -166 478 -184 459 -8 -8 -57 -153 -110 -324 -53 -170 -114 -367 -136 -437 l-40 -128 -84 0 -83 0 -16 48 c-8 26 -70 223 -136 437 -66 215 -127 396 -135 404 -18 18 -6 48 -183 -459 l-149 -425 -103 -3 c-95 -3 -102 -1 -95 15 12 32 425 1216 425 1220 0 2 44 2 97 1 l98 -3 130 -425z"/>
 <path d="M2367 4002 c-15 -17 -17 -58 -17 -379 0 -389 3 -360 -57 -493 -38 -82 -76 -165 -121 -260 -21 -47 -50 -107 -62 -135 -12 -27 -43 -93 -68 -145 -103 -218 -132 -279 -165 -350 -36 -76 -114 -242 -192 -405 -24 -49 -61 -128 -83 -175 -97 -208 -117 -250 -152 -325 -21 -44 -52 -111 -70 -150 -30 -65 -64 -137 -175 -370 -24 -49 -62 -130 -85 -180 -23 -49 -66 -140 -96 -200 -30 -61 -54 -122 -54 -136 0 -58 54 -66 94 -15 14 19 26 38 26 41 0 22 234 355 355 505 171 213 444 477 635 614 91 65 174 120 200 132 8 4 22 13 31 21 14 11 86 14 399 13 l383 0 60 -41 c441 -302 877 -731 1275 -1258 57 -75 113 -146 124 -158 36 -38 88 -25 88 21 0 12 -16 55 -36 96 -20 41 -76 156 -124 255 -48 99 -111 230 -140 290 -29 61 -84 175 -122 255 -88 181 -176 366 -235 490 -47 98 -116 243 -220 460 -33 69 -77 161 -98 205 -35 75 -79 166 -238 495 -36 74 -79 167 -97 205 -18 39 -66 140 -107 225 -73 151 -83 174 -99 215 -4 11 -8 153 -8 316 -1 277 -2 298 -20 318 -19 21 -26 21 -366 21 -323 0 -348 -1 -363 -18z m689 -89 c4 -27 4 -163 0 -304 -6 -223 -4 -258 9 -269 8 -7 15 -20 15 -28 0 -9 20 -57 44 -107 65 -135 173 -360 216 -450 46 -97 149 -311 240 -500 37 -77 84 -176 105 -220 45 -97 133 -280 225 -470 37 -77 82 -171 100 -210 36 -78 145 -304 255 -530 40 -82 96 -199 125 -260 28 -60 65 -136 81 -169 17 -32 28 -60 27 -62 -2 -2 -28 29 -58 69 -62 83 -87 114 -265 321 -251 292 -624 642 -859 806 -11 8 -52 38 -91 65 -38 28 -88 62 -109 75 -36 21 -40 22 -51 7 -11 -15 -45 -17 -339 -17 -277 0 -326 2 -326 14 0 8 -5 18 -10 21 -9 6 -87 -28 -134 -58 -109 -69 -258 -174 -340 -241 -105 -84 -350 -324 -448 -436 -49 -57 -283 -365 -315 -416 -12 -18 -12 -18 -5 1 4 11 31 70 61 130 63 131 127 265 169 355 17 36 53 115 82 175 51 108 75 161 140 300 36 78 90 193 173 365 30 63 72 151 92 195 20 44 56 121 80 170 99 207 154 323 175 370 12 28 39 86 60 130 51 108 104 222 124 270 21 47 73 158 92 197 11 21 14 103 14 392 l0 366 319 0 320 0 7 -47z"/>
 <path d="M7120 3058 c-52 -36 -73 -71 -78 -131 -5 -69 17 -120 69 -154 77 -51 158 -41 225 28 38 39 39 42 39 109 0 76 -15 107 -75 148 -25 16 -47 22 -90 22 -43 0 -65 -6 -90 -22z m135 -42 c43 -18 67 -56 67 -105 -1 -68 -45 -111 -113 -111 -121 0 -157 167 -46 215 41 18 50 18 92 1z"/>
 <path d="M8868 3055 c-52 -35 -68 -71 -68 -149 0 -62 2 -69 36 -106 80 -89 226 -73 279 31 9 15 15 55 15 89 0 59 -2 63 -44 108 -43 45 -46 46 -112 50 -61 3 -73 0 -106 -23z m147 -41 c34 -16 65 -65 65 -104 0 -29 -26 -76 -52 -94 -12 -9 -42 -16 -66 -16 -37 0 -50 6 -78 34 -26 26 -34 42 -34 70 0 51 25 95 63 111 42 19 62 18 102 -1z"/>
 <path d="M2645 1444 c-108 -29 -222 -97 -280 -168 -45 -55 -82 -125 -106 -200 -28 -87 -27 -283 2 -368 43 -127 156 -262 257 -309 26 -12 56 -26 67 -32 11 -6 68 -13 127 -15 112 -4 165 6 253 52 51 26 141 116 186 186 62 97 74 147 74 305 0 155 -11 200 -72 306 -54 93 -204 219 -261 219 -10 0 -23 5 -29 11 -12 12 -183 22 -218 13z m167 -65 c29 -6 77 -22 107 -37 55 -27 151 -117 175 -164 8 -15 21 -40 29 -55 31 -58 47 -140 47 -234 -1 -147 -43 -250 -145 -354 -67 -69 -119 -97 -217 -120 -61 -14 -75 -14 -140 0 -40 8 -97 27 -126 42 -135 68 -252 274 -252 439 1 105 60 265 128 344 42 50 157 119 225 136 67 16 103 17 169 3z"/>
 </g>
<g id="layer2" fill="#f27d2d" stroke="none">
 <path d="M2455 7244 c-172 -20 -341 -56 -470 -99 -276 -92 -537 -224 -732 -367 -35 -27 -66 -48 -69 -48 -3 0 -18 -11 -32 -24 -25 -22 -57 -51 -199 -176 -48 -43 -218 -236 -274 -310 -49 -66 -119 -169 -119 -175 0 -4 -12 -22 -26 -41 -27 -35 -184 -340 -184 -357 0 -5 -6 -23 -14 -40 -33 -77 -47 -118 -72 -202 -34 -117 -53 -196 -64 -270 -6 -33 -13 -67 -16 -75 -3 -8 -12 -98 -19 -200 -17 -234 -8 -426 29 -640 14 -82 32 -162 55 -245 22 -78 44 -150 52 -170 5 -11 18 -45 29 -75 26 -66 59 -140 110 -240 55 -109 69 -133 151 -253 41 -59 79 -116 84 -126 6 -10 17 -24 25 -33 8 -8 40 -46 70 -83 95 -118 100 -121 124 -75 14 27 90 187 123 260 12 25 49 102 83 173 56 111 62 130 51 150 -14 27 -26 46 -72 117 -42 64 -169 321 -169 342 0 8 -4 18 -9 23 -5 6 -19 46 -31 90 -12 44 -26 91 -31 105 -5 14 -18 78 -29 144 -16 94 -20 163 -20 335 0 229 15 352 60 512 12 41 26 92 31 114 6 22 14 44 20 50 5 5 9 15 9 23 0 29 127 290 177 366 18 26 33 50 33 53 0 8 64 88 77 96 7 4 13 14 13 22 0 17 288 305 306 305 7 0 17 6 21 13 9 14 89 77 98 77 4 0 21 11 38 24 28 21 89 56 192 110 148 77 357 145 550 180 179 32 561 30 705 -3 25 -6 65 -15 90 -21 25 -6 65 -16 90 -22 25 -5 49 -14 55 -19 5 -5 18 -9 30 -9 11 0 33 -7 49 -15 15 -8 33 -15 38 -15 23 0 238 -105 300 -147 28 -18 52 -33 55 -33 3 0 22 -13 43 -30 21 -16 41 -30 45 -30 4 0 31 -20 59 -44 28 -24 67 -56 86 -72 171 -141 341 -362 454 -589 96 -193 166 -412 187 -584 4 -36 13 -109 20 -161 12 -103 7 -305 -12 -417 -19 -115 -40 -216 -54 -263 -44 -138 -56 -177 -65 -195 -5 -11 -18 -42 -30 -70 -36 -84 -73 -155 -87 -166 -7 -7 -13 -16 -13 -21 0 -5 -20 -40 -45 -78 -78 -119 -78 -99 8 -272 41 -84 107 -219 146 -300 39 -82 73 -148 75 -148 2 0 29 30 61 68 31 37 67 78 78 92 12 14 27 33 32 42 6 9 46 70 90 134 44 65 85 127 92 138 38 68 173 346 178 369 4 15 11 30 16 33 5 3 9 12 9 21 0 8 6 29 13 46 24 56 69 218 91 327 38 186 46 281 46 516 0 235 -7 316 -45 504 -26 124 -91 348 -116 392 -5 10 -9 23 -9 29 0 18 -114 258 -173 364 -46 83 -163 254 -198 290 -16 17 -29 35 -29 39 0 21 -393 416 -415 416 -9 0 -88 63 -98 78 -4 6 -13 12 -19 12 -5 0 -27 13 -47 28 -20 16 -43 32 -51 36 -24 11 -57 31 -72 43 -17 15 -310 163 -321 163 -10 0 -68 24 -110 46 -16 8 -35 14 -44 14 -8 0 -29 6 -46 14 -18 8 -41 16 -52 19 -11 3 -56 15 -100 27 -263 72 -657 99 -950 64z"/>
 <path d="M6134 5935 c-34 -7 -83 -25 -111 -38 -61 -31 -144 -120 -169 -181 -16 -38 -24 -46 -49 -48 l-30 -3 0 -75 0 -75 109 0 110 0 12 68 c16 82 40 118 102 149 41 20 62 23 162 23 104 0 119 -2 159 -25 63 -36 84 -68 89 -140 6 -78 -1 -103 -43 -149 -43 -47 -90 -68 -271 -121 -168 -49 -229 -77 -288 -134 -139 -135 -138 -362 1 -502 128 -128 371 -168 546 -90 59 26 145 100 177 151 16 25 29 35 53 37 l32 3 0 80 0 80 -110 0 -110 0 -6 -46 c-9 -59 -21 -82 -62 -113 -121 -92 -352 -61 -413 56 -19 36 -18 122 2 164 25 52 58 70 254 135 279 92 353 138 410 252 153 312 -169 626 -556 542z"/>
 <path d="M7207 5940 c-120 -21 -256 -119 -310 -226 -87 -172 -81 -386 14 -536 86 -135 223 -208 390 -208 266 0 458 202 459 482 1 321 -247 539 -553 488z m227 -184 c94 -55 141 -156 140 -301 -1 -210 -100 -329 -275 -329 -119 0 -207 60 -249 173 -73 192 1 419 156 477 62 23 171 13 228 -20z"/>
 <path d="M11290 5936 c-211 -45 -360 -242 -360 -475 0 -234 145 -433 351 -480 56 -13 172 -13 228 0 158 36 291 172 332 339 7 30 13 93 13 140 -1 144 -48 265 -140 357 -108 108 -268 153 -424 119z m223 -170 c54 -27 96 -72 126 -136 23 -50 26 -67 26 -175 0 -108 -2 -125 -26 -175 -50 -107 -125 -153 -245 -153 -87 0 -148 26 -199 86 -100 117 -99 368 2 486 55 65 121 93 208 89 41 -2 86 -11 108 -22z"/>
 <path d="M13480 5937 c-68 -16 -91 -29 -144 -77 -33 -31 -51 -39 -86 -42 l-45 -3 0 -75 0 -75 93 -3 92 -3 10 28 c16 44 25 57 59 80 75 51 232 34 271 -30 25 -40 25 -73 1 -113 -20 -33 -48 -46 -263 -128 -169 -64 -237 -148 -225 -277 6 -74 43 -139 105 -186 63 -48 136 -66 246 -61 104 5 159 25 219 81 29 27 48 37 80 39 l42 3 0 75 0 75 -95 0 -95 0 -3 -27 c-7 -60 -78 -98 -182 -98 -100 0 -159 51 -146 125 11 55 33 68 278 156 101 35 179 97 209 164 26 57 25 156 -2 212 -27 57 -98 117 -166 143 -70 26 -182 33 -253 17z"/>
 <path d="M8833 5930 c-93 -19 -165 -77 -205 -165 -22 -48 -23 -62 -26 -327 l-3 -277 -62 -3 -62 -3 0 -75 0 -75 150 0 150 0 5 325 c5 305 6 327 26 360 11 19 36 45 55 58 30 21 43 23 114 20 55 -3 99 -12 140 -29 l60 -24 3 -277 2 -277 -57 -3 -58 -3 0 -75 0 -75 150 0 150 0 3 372 2 372 48 3 47 3 0 80 0 80 -135 0 -135 0 -3 -37 -3 -38 -52 30 c-29 16 -71 36 -93 44 -54 19 -159 27 -211 16z"/>
 <path d="M9930 5924 c-122 -53 -144 -141 -134 -531 l7 -252 -74 -3 -74 -3 0 -65 0 -65 73 -3 72 -3 0 -109 0 -109 76 -36 c42 -19 80 -32 85 -29 5 3 9 68 9 144 l0 139 108 3 107 3 0 65 0 65 -107 3 -108 3 0 288 c0 179 4 300 11 319 17 50 100 67 182 38 20 -8 39 -11 41 -7 17 26 42 112 35 116 -68 42 -241 59 -309 29z"/>
 <path d="M7924 5907 c-3 -8 -4 -45 -2 -83 l3 -69 63 -3 62 -3 0 -524 0 -524 -62 -3 -63 -3 0 -75 0 -75 150 0 150 0 3 602 2 602 63 3 62 3 0 80 0 80 -213 3 c-172 2 -213 0 -218 -11z"/>
 <path d="M10364 5907 c-3 -8 -4 -45 -2 -83 l3 -69 63 -3 62 -3 0 -294 0 -294 -62 -3 -63 -3 0 -75 0 -75 150 0 150 0 3 372 2 372 68 3 67 3 0 80 0 80 -218 3 c-177 2 -218 0 -223 -11z"/>
 <path d="M12024 5907 c-3 -8 -4 -45 -2 -83 l3 -69 63 -3 62 -3 0 -294 0 -294 -62 -3 -63 -3 0 -75 0 -75 145 0 145 0 3 48 3 48 39 -31 c21 -17 65 -43 97 -58 51 -24 70 -27 158 -27 89 0 105 3 151 27 70 37 120 98 144 176 18 57 20 93 20 313 l0 248 63 3 62 3 0 80 0 80 -215 0 -215 0 0 -80 0 -80 63 -3 62 -3 0 -209 c0 -115 -5 -232 -11 -260 -30 -139 -175 -180 -338 -95 l-71 37 0 264 0 263 63 3 62 3 0 80 0 80 -213 3 c-172 2 -213 0 -218 -11z"/>
 <path d="M10499 4761 c-33 -32 -39 -45 -39 -80 0 -89 103 -148 178 -102 72 46 80 134 16 190 -52 46 -104 44 -155 -8z"/>
 <path d="M3059 3359 c-5 -18 -7 -1220 -2 -1421 l6 -258 46 -26 c60 -35 354 -253 364 -270 4 -8 13 -14 19 -14 6 0 34 -21 62 -47 28 -27 94 -86 146 -133 178 -160 391 -385 565 -595 22 -27 55 -66 73 -86 17 -20 32 -41 32 -47 0 -6 6 -15 13 -19 7 -4 48 -54 91 -111 42 -56 81 -100 85 -97 5 2 -15 53 -44 112 -29 60 -70 144 -90 188 -21 44 -77 161 -125 260 -96 197 -234 482 -256 530 -7 17 -53 113 -102 215 -111 229 -198 412 -222 465 -11 22 -59 123 -108 225 -146 302 -208 431 -242 505 -18 39 -65 138 -105 220 -40 83 -93 193 -119 245 -25 53 -46 103 -46 111 0 14 -38 58 -41 48z"/>
 <path d="M2372 3198 c-7 -7 -12 -18 -12 -25 0 -7 -13 -39 -29 -70 -16 -32 -37 -76 -47 -98 -20 -48 -72 -159 -124 -270 -21 -44 -48 -102 -60 -130 -25 -56 -102 -218 -190 -400 -32 -66 -66 -138 -75 -160 -17 -37 -44 -95 -197 -415 -32 -69 -65 -138 -73 -155 -32 -71 -82 -178 -135 -290 -32 -66 -68 -142 -80 -170 -27 -62 -73 -158 -190 -398 -101 -207 -110 -264 -20 -125 68 107 268 374 309 413 17 17 31 35 31 42 0 16 379 393 395 393 8 0 18 6 22 13 12 19 119 107 130 107 6 0 17 7 24 16 25 30 192 137 287 184 l62 30 0 755 c0 414 -4 756 -8 759 -5 3 -14 0 -20 -6z"/>
 </g>
<g id="layer3" fill="#02559b" stroke="none">
 <path d="M2738 6374 c-6 -5 -126 -250 -153 -309 -14 -33 -111 -233 -252 -525 -50 -102 -105 -216 -123 -255 -37 -79 -141 -295 -270 -560 -48 -99 -102 -211 -120 -250 -35 -76 -131 -275 -272 -565 -49 -102 -102 -212 -118 -245 -60 -128 -157 -329 -255 -530 -56 -115 -117 -241 -135 -280 -37 -81 -137 -288 -287 -595 -57 -118 -117 -242 -133 -275 -15 -33 -69 -145 -119 -248 -51 -103 -89 -192 -86 -197 10 -16 717 -13 738 3 17 12 57 83 57 101 0 9 36 88 91 201 16 33 29 63 29 67 0 4 15 40 34 80 36 78 91 200 106 233 9 22 52 117 107 235 19 41 38 84 43 95 9 21 46 104 107 235 19 41 38 84 43 95 9 21 46 104 107 235 19 41 38 84 43 95 14 33 80 175 121 261 21 45 39 84 39 87 0 6 66 151 116 253 19 39 34 73 34 76 0 7 65 150 116 254 19 39 34 74 34 78 0 7 26 63 111 242 22 45 39 85 39 89 0 10 37 89 137 293 66 134 77 151 87 135 17 -25 167 -334 221 -458 13 -29 54 -116 148 -315 24 -52 52 -113 62 -135 9 -22 36 -80 60 -130 104 -219 125 -263 145 -310 12 -27 41 -90 65 -140 95 -199 124 -262 145 -310 12 -27 41 -90 65 -140 55 -115 116 -246 145 -310 12 -27 39 -86 60 -130 35 -74 93 -199 125 -270 8 -16 38 -82 68 -145 59 -124 123 -263 137 -295 8 -17 72 -154 131 -282 11 -23 25 -45 32 -50 15 -11 737 -11 737 0 0 4 -51 112 -113 240 -63 127 -136 277 -162 332 -26 55 -114 235 -195 400 -170 344 -408 832 -450 920 -16 33 -110 224 -208 425 -214 435 -408 831 -468 955 -23 50 -124 254 -222 455 -284 577 -453 923 -467 955 -60 133 -65 142 -77 129z"/>
 <path d="M12021 4154 c-78 -21 -147 -61 -210 -124 -98 -97 -141 -207 -141 -360 1 -142 34 -238 116 -329 153 -170 399 -217 603 -115 83 42 171 130 209 211 25 54 27 67 27 193 l0 135 -371 3 -372 2 10 40 c15 58 67 112 139 145 116 52 277 34 375 -41 l46 -35 58 63 59 63 -42 37 c-57 51 -141 94 -218 113 -80 18 -217 18 -288 -1z m393 -601 c-21 -115 -99 -182 -225 -191 -154 -11 -278 69 -302 196 l-6 32 270 0 270 0 -7 -37z"/>
 <path d="M13265 4157 c-58 -19 -95 -40 -153 -86 l-51 -41 -3 63 -3 62 -105 0 -105 0 0 -670 0 -670 105 0 105 0 3 259 2 259 59 -57 c68 -64 129 -94 211 -103 75 -7 189 18 260 59 109 62 203 184 229 299 16 69 13 228 -5 290 -40 135 -135 249 -259 310 -60 29 -79 34 -159 36 -56 2 -106 -2 -131 -10z m187 -204 c57 -26 115 -83 141 -142 30 -65 30 -207 0 -272 -28 -63 -85 -123 -141 -150 -55 -27 -154 -31 -216 -10 -48 17 -121 82 -146 132 -44 84 -46 216 -7 311 29 68 92 121 177 149 40 13 142 3 192 -18z"/>
 <path d="M6203 4143 c-4 -10 -118 -295 -254 -633 -136 -338 -245 -618 -243 -622 9 -14 230 -10 241 5 5 6 92 212 192 457 101 245 186 448 189 452 4 4 93 -201 197 -455 l190 -462 114 -3 c63 -1 118 1 123 6 5 5 -102 284 -244 638 l-253 629 -123 3 c-110 2 -123 1 -129 -15z"/>
 <path d="M7105 4148 c-3 -7 -4 -224 -3 -483 l3 -470 105 0 105 0 0 480 0 480 -103 3 c-76 2 -104 -1 -107 -10z"/>
 <path d="M7963 4148 c-4 -7 -121 -293 -259 -636 -165 -409 -247 -625 -240 -628 7 -3 63 -3 125 -2 l113 3 192 466 191 466 192 -466 192 -466 123 0 c77 0 122 4 121 10 -4 21 -496 1241 -506 1253 -13 17 -232 17 -244 0z"/>
 <path d="M8855 4148 c-3 -7 -4 -224 -3 -483 l3 -470 105 0 105 0 0 480 0 480 -103 3 c-76 2 -104 -1 -107 -10z"/>
 <path d="M10155 4148 c-110 -302 -434 -1252 -430 -1258 4 -6 55 -10 115 -10 94 0 111 2 118 18 5 9 76 209 158 444 82 234 151 424 154 422 2 -3 65 -201 140 -442 l136 -437 99 0 100 0 136 437 c74 241 137 440 140 442 2 2 71 -188 153 -422 82 -235 153 -435 158 -444 7 -16 24 -18 119 -18 79 0 111 4 114 13 3 6 -94 293 -214 637 l-218 625 -106 3 c-93 2 -107 1 -115 -15 -6 -10 -65 -198 -132 -418 -67 -220 -126 -406 -130 -414 -5 -10 -11 -4 -18 20 -6 19 -64 205 -128 414 -64 209 -120 388 -125 398 -8 14 -25 17 -115 17 -75 0 -106 -4 -109 -12z"/>
 <path d="M2395 3971 c-3 -5 -8 -525 -12 -1155 -5 -926 -4 -1148 7 -1160 11 -14 56 -16 340 -16 250 0 330 3 337 13 11 15 11 2297 0 2315 -10 15 -662 18 -672 3z"/>
 <path d="M7165 3036 c-82 -36 -112 -130 -64 -198 75 -105 239 -55 241 73 1 89 -100 160 -177 125z"/>
 <path d="M8910 3032 c-47 -23 -80 -75 -80 -125 0 -33 7 -46 44 -83 38 -39 48 -44 89 -44 51 0 96 30 123 83 30 58 -3 139 -70 171 -43 20 -63 20 -106 -2z"/>
 <path d="M2643 1396 c-71 -17 -182 -86 -234 -144 -77 -85 -138 -244 -139 -356 0 -120 61 -264 157 -366 72 -77 138 -114 241 -135 100 -21 180 -3 308 69 45 25 108 99 157 186 93 165 70 437 -48 570 -18 19 -37 45 -44 58 -6 12 -18 22 -25 22 -7 0 -20 8 -30 18 -24 28 -113 69 -174 81 -66 14 -102 13 -169 -3z"/>
 </g>

</svg>