<!DOCTYPE svg PUBLIC "-//W3C//DTD SVG 20010904//EN" "http://www.w3.org/TR/2001/REC-SVG-20010904/DTD/svg10.dtd">
<svg version="1.0" xmlns="http://www.w3.org/2000/svg" width="367px" height="494px" viewBox="0 0 3670 4940" preserveAspectRatio="xMidYMid meet">
<g id="layer1" fill="#ffffff" stroke="none">
 <path d="M1612 4870 c-271 -34 -530 -133 -768 -291 -128 -86 -347 -297 -443 -427 -167 -228 -281 -509 -322 -793 -20 -140 -15 -404 10 -552 57 -332 182 -592 420 -875 45 -53 86 -68 108 -39 17 20 203 419 203 433 0 7 -20 44 -44 81 -144 224 -210 442 -210 698 0 267 68 489 220 717 328 493 981 690 1532 462 413 -171 695 -527 772 -972 53 -306 -5 -597 -174 -869 -36 -59 -56 -102 -56 -122 0 -27 172 -393 202 -428 19 -23 53 -14 89 25 142 151 285 388 358 595 130 369 135 778 15 1147 -198 605 -728 1073 -1349 1191 -116 23 -446 33 -563 19z m529 -78 c216 -40 465 -143 654 -270 416 -281 688 -735 745 -1247 41 -370 -59 -768 -276 -1103 -49 -75 -153 -212 -161 -212 -1 0 -44 81 -93 180 l-91 181 57 92 c134 216 194 429 194 687 0 361 -125 678 -368 932 -177 185 -395 312 -644 374 -142 35 -388 44 -539 20 -491 -81 -900 -431 -1053 -900 -47 -142 -60 -237 -60 -421 0 -284 58 -487 205 -721 l39 -61 -85 -179 c-47 -99 -88 -179 -92 -179 -12 0 -102 115 -170 217 -176 266 -273 592 -274 918 -1 230 37 433 121 642 89 222 209 400 394 583 269 268 618 437 998 485 112 14 377 4 499 -18z"/>
 <path d="M1797 4282 c-9 -10 -320 -648 -691 -1418 -370 -769 -719 -1493 -775 -1608 -55 -115 -101 -219 -101 -231 0 -43 10 -45 290 -45 242 0 268 2 283 18 8 9 87 177 175 372 89 195 253 558 366 805 l206 450 0 -227 0 -228 -44 -97 c-24 -54 -119 -258 -211 -453 -92 -195 -259 -548 -370 -785 -111 -236 -225 -476 -254 -532 -54 -108 -60 -133 -37 -153 36 -29 58 -8 161 146 220 332 433 552 693 718 l72 46 249 0 249 0 78 -56 c291 -207 557 -474 819 -822 82 -108 109 -128 141 -102 7 7 14 20 14 30 0 10 -43 107 -96 216 -149 308 -863 1801 -895 1871 -29 62 -29 63 -29 267 0 157 -3 206 -13 215 -9 7 -97 12 -255 13 l-241 3 121 268 c66 147 124 267 127 267 3 0 224 -469 491 -1042 267 -574 501 -1074 520 -1113 l35 -70 269 -3 c284 -2 296 -1 296 43 0 13 -260 556 -579 1207 -318 650 -669 1370 -780 1598 -111 228 -206 422 -210 430 -12 23 -54 24 -74 2z m140 -275 c56 -117 386 -792 734 -1502 347 -710 648 -1326 669 -1370 l37 -80 -232 0 -231 0 -79 170 c-154 333 -927 1991 -957 2053 -35 71 -44 80 -64 61 -11 -12 -924 -2010 -1019 -2231 l-29 -68 -233 0 c-128 0 -233 3 -233 6 0 3 157 331 348 727 191 397 535 1110 763 1584 227 475 416 863 419 862 3 0 51 -95 107 -212z m93 -1572 c0 -205 0 -206 29 -268 49 -108 799 -1674 846 -1767 25 -49 45 -92 45 -96 0 -3 -21 20 -47 53 -221 275 -480 524 -743 712 -83 59 -112 71 -125 51 -4 -6 -86 -10 -215 -10 -175 0 -209 2 -214 15 -10 26 -39 17 -132 -41 -197 -124 -406 -315 -564 -514 -45 -58 -84 -107 -86 -109 -2 -2 43 95 100 215 357 755 529 1121 602 1281 l84 181 0 251 0 251 210 0 210 0 0 -205z"/>
 <path d="M1730 967 c-91 -26 -177 -104 -223 -204 -19 -41 -22 -65 -22 -168 0 -112 2 -123 28 -173 38 -72 95 -132 159 -168 49 -27 61 -29 153 -29 93 0 104 2 155 31 65 37 142 127 165 193 36 103 28 246 -17 335 -32 63 -113 141 -171 166 -63 27 -164 35 -227 17z m183 -63 c63 -21 130 -84 164 -152 25 -50 28 -68 28 -152 0 -82 -4 -103 -27 -152 -51 -110 -146 -171 -265 -170 -184 2 -319 205 -269 402 47 184 205 280 369 224z"/>
 </g>
<g id="layer2" fill="#f37d2f" stroke="none">
 <path d="M1642 4830 c-386 -49 -729 -217 -1008 -495 -196 -194 -314 -367 -404 -593 -84 -209 -122 -412 -121 -642 1 -414 152 -809 433 -1128 16 -18 33 -32 39 -30 6 2 50 88 100 192 l89 189 -39 61 c-90 143 -157 307 -188 463 -24 121 -24 394 0 515 110 549 527 953 1076 1044 151 24 397 15 539 -20 597 -150 992 -661 992 -1286 0 -258 -60 -471 -194 -687 l-56 -92 92 -190 c51 -104 98 -190 105 -190 16 -1 117 124 185 229 338 519 378 1126 112 1680 -238 496 -716 862 -1253 962 -122 22 -387 32 -499 18z"/>
 <path d="M2035 1767 c1 -661 0 -646 28 -656 30 -12 161 -106 276 -199 183 -149 384 -356 565 -582 104 -130 113 -121 35 40 -161 332 -854 1781 -867 1813 -34 84 -37 50 -37 -416z"/>
 <path d="M1570 2101 c0 -9 -110 -246 -553 -1186 -129 -275 -238 -511 -241 -525 -6 -24 -6 -24 18 5 14 17 65 82 113 145 104 136 275 310 393 402 96 74 219 154 268 175 l32 13 0 490 c0 429 -2 490 -15 490 -8 0 -15 -4 -15 -9z"/>
 </g>
<g id="layer3" fill="#00549b" stroke="none">
 <path d="M1766 4138 c-44 -93 -814 -1694 -1357 -2820 -71 -147 -129 -274 -129 -282 0 -14 29 -16 244 -16 183 0 246 3 254 13 5 6 26 50 46 97 21 47 254 561 519 1144 462 1017 482 1058 497 1035 14 -21 477 -1010 877 -1874 97 -209 180 -385 184 -390 8 -11 483 -14 495 -3 3 4 -267 566 -602 1250 -334 684 -686 1403 -781 1598 -95 195 -178 356 -183 358 -6 2 -34 -47 -64 -110z"/>
 <path d="M1596 2651 c-12 -19 -19 -1505 -7 -1533 l11 -28 219 0 c200 0 221 2 229 18 10 18 6 1527 -3 1543 -8 12 -442 12 -449 0z"/>
 <path d="M1721 920 c-101 -46 -168 -128 -197 -240 -29 -116 2 -232 86 -324 149 -161 391 -116 488 91 23 50 27 71 27 153 0 84 -3 102 -28 152 -35 71 -119 150 -183 172 -64 22 -139 20 -193 -4z"/>
 </g>

</svg>