<?xml version="1.0" encoding="UTF-8" ?>
<!DOCTYPE svg PUBLIC "-//W3C//DTD SVG 1.1//EN" "http://www.w3.org/Graphics/SVG/1.1/DTD/svg11.dtd">
<svg width="178pt" height="244pt" viewBox="0 0 178 244" version="1.1" xmlns="http://www.w3.org/2000/svg">
<path fill="#ffffff" d=" M 0.00 0.00 L 178.00 0.00 L 178.00 244.00 L 0.00 244.00 L 0.00 0.00 Z" />
<path fill="#f47d30" d=" M 150.49 4.74 C 135.95 34.51 121.84 64.49 107.44 94.33 C 104.81 100.27 101.62 105.95 99.24 111.99 C 99.27 93.21 99.23 74.44 99.26 55.66 C 119.68 42.50 136.43 24.40 150.49 4.74 Z" />
<path fill="#f47d30" d=" M 29.98 7.97 C 41.33 27.42 56.64 45.37 76.74 56.08 C 76.76 73.15 76.74 90.21 76.75 107.27 C 66.25 83.94 54.93 60.97 44.22 37.73 C 39.47 27.81 34.89 17.81 29.98 7.97 Z" />
<path fill="#00539b" d=" M 83.56 13.39 C 89.00 11.41 95.50 13.30 99.09 17.83 C 104.83 24.41 104.55 35.24 98.56 41.56 C 94.62 45.98 87.70 47.65 82.35 44.87 C 73.45 40.86 70.38 28.53 75.42 20.42 C 77.18 17.18 80.10 14.66 83.56 13.39 Z" />
<path fill="#00539b" d=" M 10.66 50.76 C 18.97 50.79 27.29 50.69 35.60 50.82 C 49.00 81.13 63.01 111.18 76.63 141.39 C 80.61 149.82 84.10 158.48 88.41 166.74 C 90.93 162.60 92.63 158.05 94.79 153.72 C 110.59 119.67 126.56 85.70 142.29 51.61 C 150.51 51.63 158.74 51.66 166.96 51.59 C 142.76 101.17 118.51 150.72 94.25 200.28 C 92.34 204.33 90.13 208.25 88.56 212.46 C 62.59 158.56 36.72 104.62 10.66 50.76 Z" />
<path fill="#00539b" d=" M 76.74 54.51 C 84.25 54.49 91.76 54.50 99.27 54.51 L 99.26 55.66 C 99.23 74.44 99.27 93.21 99.24 111.99 C 99.26 118.66 99.25 125.33 99.25 132.00 C 91.75 132.05 84.25 132.01 76.75 132.00 C 76.75 123.75 76.75 115.51 76.75 107.27 C 76.74 90.21 76.76 73.15 76.74 56.08 L 76.74 54.51 Z" />
<path fill="#f47d30" d=" M 11.10 117.08 C 14.92 109.11 20.27 101.99 26.10 95.38 C 29.15 102.22 32.40 108.97 35.80 115.63 C 27.82 126.75 22.78 140.19 23.01 153.98 C 22.49 172.37 30.30 190.76 43.92 203.12 C 53.51 212.21 65.98 218.15 79.06 220.02 C 97.27 222.90 116.63 217.59 130.78 205.75 C 143.18 195.61 151.68 180.77 153.92 164.89 C 156.53 148.88 152.91 131.80 143.57 118.48 C 142.91 117.33 141.67 115.90 142.45 114.52 C 145.60 108.19 148.82 101.89 151.74 95.45 C 163.63 108.62 172.15 125.08 174.46 142.79 C 178.12 167.15 170.48 192.79 154.31 211.33 C 142.22 225.49 125.38 235.45 107.23 239.48 C 91.03 242.79 73.79 241.87 58.34 235.78 C 33.20 226.51 13.21 204.79 5.79 179.07 C -0.22 158.71 1.73 136.13 11.10 117.08 Z" />
</svg>
