<!DOCTYPE svg PUBLIC "-//W3C//DTD SVG 20010904//EN" "http://www.w3.org/TR/2001/REC-SVG-20010904/DTD/svg10.dtd">
<svg version="1.0" xmlns="http://www.w3.org/2000/svg" width="1388px" height="741px" viewBox="0 0 13880 7410" preserveAspectRatio="xMidYMid meet">
<g id="layer1" fill="#fffefd" stroke="none">
 <path d="M2520 7295 c-8 -2 -58 -9 -110 -15 -107 -13 -220 -34 -296 -56 -28 -7 -59 -14 -70 -14 -10 0 -32 -7 -48 -15 -15 -8 -36 -15 -45 -15 -9 0 -29 -7 -45 -15 -15 -8 -35 -15 -43 -15 -8 0 -27 -6 -41 -14 -15 -8 -47 -22 -72 -31 -41 -16 -288 -136 -328 -160 -494 -293 -892 -750 -1110 -1275 -6 -14 -20 -47 -31 -74 -12 -27 -21 -56 -21 -65 0 -9 -4 -21 -9 -26 -6 -6 -15 -30 -21 -55 -24 -94 -45 -179 -71 -290 -12 -50 -24 -161 -39 -350 -19 -237 16 -586 84 -835 9 -33 21 -78 27 -100 6 -22 14 -44 20 -50 5 -5 9 -18 9 -28 0 -10 6 -33 14 -50 7 -18 21 -52 31 -77 19 -46 137 -288 158 -325 73 -124 219 -323 315 -432 74 -83 105 -93 141 -47 12 15 21 30 21 35 0 11 63 146 176 375 52 106 94 201 94 211 0 11 -13 38 -28 59 -36 50 -142 228 -164 277 -18 37 -34 74 -59 132 -21 51 -48 129 -49 142 0 6 -5 24 -12 40 -32 76 -67 296 -75 470 -7 173 27 437 73 566 8 20 14 46 14 56 0 10 7 32 15 47 8 16 15 37 15 46 0 9 4 19 9 22 5 3 12 18 16 33 6 27 92 208 118 248 196 315 386 510 659 678 90 56 250 137 270 137 7 0 22 6 33 13 11 7 54 23 95 36 41 12 84 26 95 31 27 10 148 36 261 55 193 32 509 15 714 -39 30 -8 75 -20 100 -26 25 -7 59 -18 77 -26 17 -8 36 -14 42 -14 6 0 19 -4 29 -9 9 -6 37 -19 62 -30 420 -184 756 -500 950 -891 69 -141 78 -160 86 -193 3 -15 10 -30 15 -33 5 -3 9 -14 9 -26 0 -11 6 -34 14 -51 32 -73 61 -219 82 -419 16 -147 16 -168 1 -315 -20 -193 -49 -340 -83 -420 -8 -17 -14 -40 -14 -51 0 -12 -4 -23 -9 -26 -5 -3 -12 -18 -15 -32 -9 -35 -93 -210 -125 -259 -14 -22 -33 -55 -43 -73 -10 -18 -32 -51 -48 -74 -51 -70 -46 -87 96 -377 69 -141 135 -276 147 -301 18 -37 27 -46 53 -48 28 -3 39 5 97 70 94 105 222 280 292 400 67 114 148 279 190 388 10 25 24 59 31 77 8 17 14 40 14 50 0 10 4 23 9 28 10 10 18 40 46 155 7 30 18 75 24 100 40 169 46 244 46 555 0 319 -5 370 -51 575 -37 162 -106 370 -171 510 -57 123 -72 153 -103 205 -16 28 -34 59 -39 70 -17 34 -163 240 -225 317 -93 115 -303 317 -433 415 -120 91 -210 153 -220 153 -3 0 -24 12 -47 28 -36 24 -264 139 -321 163 -11 4 -42 17 -69 28 -27 12 -54 21 -61 21 -7 0 -26 7 -41 15 -16 8 -36 15 -45 15 -9 0 -30 7 -45 15 -16 8 -37 15 -48 15 -10 0 -39 6 -65 14 -68 22 -135 35 -231 47 -47 6 -116 14 -155 19 -64 8 -459 12 -495 5z m515 -70 c152 -16 259 -35 370 -65 44 -12 89 -24 100 -27 11 -3 34 -11 52 -19 17 -8 38 -14 46 -14 9 0 28 -6 44 -14 42 -22 100 -46 110 -46 13 0 306 -150 324 -166 8 -8 18 -14 22 -14 9 0 130 -84 232 -161 240 -181 509 -488 652 -744 59 -107 173 -346 173 -364 0 -6 4 -19 9 -29 25 -44 90 -268 116 -392 38 -188 45 -269 45 -504 0 -235 -8 -330 -46 -516 -22 -109 -67 -271 -91 -327 -7 -17 -13 -38 -13 -46 0 -9 -4 -18 -9 -21 -5 -3 -12 -18 -16 -33 -5 -23 -140 -301 -178 -369 -58 -101 -288 -413 -321 -436 -7 -4 -34 41 -69 115 -33 67 -95 195 -140 285 -92 186 -92 160 -2 298 58 88 99 165 135 249 12 28 25 59 30 70 9 18 21 57 65 195 14 47 35 148 54 263 19 112 24 314 12 417 -7 52 -16 125 -20 161 -26 208 -127 495 -250 704 -104 178 -315 420 -476 547 -93 72 -223 157 -315 204 -87 45 -196 94 -209 94 -5 0 -22 7 -37 15 -16 8 -38 15 -49 15 -12 0 -25 4 -30 9 -6 5 -30 14 -55 19 -25 6 -65 16 -90 22 -25 6 -65 15 -90 21 -144 33 -526 35 -705 3 -323 -58 -608 -182 -865 -374 -109 -83 -308 -281 -388 -388 -34 -45 -62 -85 -62 -88 0 -3 -11 -20 -24 -37 -13 -18 -40 -63 -61 -102 -57 -105 -48 -86 -109 -227 -9 -20 -16 -42 -16 -50 0 -8 -4 -18 -9 -23 -6 -6 -14 -28 -20 -50 -5 -22 -19 -73 -31 -114 -45 -160 -60 -283 -60 -512 0 -172 4 -241 20 -335 11 -66 24 -130 29 -144 5 -14 19 -61 31 -105 12 -44 26 -84 31 -90 5 -5 9 -15 9 -22 0 -11 42 -109 88 -203 14 -28 85 -148 152 -255 13 -22 10 -31 -42 -137 -31 -62 -75 -153 -98 -203 -23 -49 -55 -116 -71 -148 -16 -31 -29 -63 -29 -71 0 -7 -6 -19 -14 -25 -10 -9 -24 1 -62 47 -91 104 -242 315 -297 412 -54 95 -133 262 -167 350 -11 30 -24 64 -29 75 -8 20 -30 92 -52 170 -23 83 -41 163 -55 245 -37 214 -46 406 -29 640 7 102 16 192 19 200 3 8 10 42 16 75 11 74 30 153 64 270 25 84 39 125 72 202 8 17 14 35 14 40 0 16 144 297 178 347 18 26 32 49 32 52 0 10 94 141 168 233 143 178 378 396 552 511 36 23 77 51 92 61 116 80 384 204 593 274 292 98 704 138 1050 100z"/>
 <path d="M2718 6419 c-10 -5 -38 -53 -64 -107 -57 -120 -154 -320 -249 -517 -40 -82 -93 -193 -118 -245 -42 -89 -84 -177 -274 -570 -42 -85 -94 -195 -118 -245 -24 -49 -77 -160 -118 -245 -96 -200 -201 -416 -267 -555 -29 -60 -85 -177 -125 -260 -92 -190 -197 -409 -265 -550 -50 -105 -117 -244 -275 -570 -40 -82 -99 -204 -130 -270 -72 -150 -198 -410 -281 -580 -63 -128 -76 -179 -52 -203 9 -9 111 -12 398 -12 333 0 389 2 408 16 12 8 22 19 22 24 0 8 25 64 91 208 16 34 29 64 29 67 0 3 14 36 31 73 65 137 92 198 105 227 13 31 55 125 106 235 16 36 36 79 43 95 7 17 28 62 45 100 77 167 92 202 105 230 16 36 65 145 107 235 17 36 36 79 44 95 33 75 76 168 118 257 25 53 46 99 46 102 0 3 20 47 44 98 70 150 106 228 106 233 0 2 20 46 44 97 72 152 106 228 106 233 0 3 18 42 39 88 62 131 111 237 111 242 0 4 46 106 90 200 15 33 40 87 55 120 15 33 37 81 49 106 l21 45 19 -40 c10 -23 27 -61 38 -86 12 -25 38 -81 58 -125 93 -199 109 -234 135 -290 15 -33 46 -100 70 -150 52 -109 103 -220 140 -300 30 -66 58 -127 130 -280 26 -55 60 -127 75 -160 42 -92 84 -181 133 -285 25 -52 57 -122 72 -155 29 -64 71 -155 140 -300 23 -49 53 -112 65 -140 12 -27 40 -86 60 -130 93 -199 109 -234 135 -290 15 -33 46 -100 70 -150 59 -123 98 -208 131 -285 16 -35 47 -100 69 -145 l40 -80 394 -3 c282 -1 398 1 407 9 26 22 14 68 -60 215 -78 157 -260 529 -391 799 -80 165 -220 451 -450 920 -73 149 -166 340 -207 425 -73 148 -208 425 -473 965 -67 138 -162 331 -210 430 -48 99 -147 302 -220 450 -253 514 -315 644 -315 657 0 34 -46 49 -82 27z m64 -149 c17 -36 90 -186 163 -335 250 -509 402 -820 495 -1010 97 -200 237 -486 463 -945 74 -151 172 -351 217 -445 81 -168 230 -471 460 -940 65 -132 152 -312 195 -400 69 -142 293 -602 300 -615 2 -3 -156 -5 -351 -5 l-354 0 -19 40 c-30 63 -121 258 -131 280 -11 25 -71 155 -122 265 -22 47 -53 112 -68 145 -48 104 -101 217 -140 300 -21 44 -48 103 -60 130 -29 64 -90 195 -145 310 -24 50 -53 113 -65 140 -21 48 -50 111 -145 310 -24 50 -53 113 -65 140 -12 28 -39 86 -60 130 -35 74 -80 170 -135 290 -13 28 -44 95 -70 150 -54 115 -89 191 -135 290 -18 39 -52 113 -77 165 -24 52 -60 129 -80 170 -70 151 -101 199 -119 187 -14 -8 -161 -311 -234 -482 -19 -43 -73 -163 -100 -220 -16 -33 -38 -82 -50 -110 -12 -27 -32 -72 -45 -100 -33 -71 -73 -161 -102 -225 -14 -30 -35 -77 -48 -105 -33 -73 -71 -157 -101 -222 -30 -68 -63 -140 -111 -243 -19 -41 -38 -84 -43 -95 -5 -11 -24 -54 -43 -95 -61 -131 -98 -214 -107 -235 -5 -11 -24 -54 -43 -95 -61 -131 -98 -214 -107 -235 -5 -11 -24 -54 -43 -95 -55 -118 -98 -213 -107 -235 -12 -26 -65 -144 -100 -220 -15 -33 -37 -82 -49 -110 -12 -27 -28 -63 -36 -80 -13 -28 -50 -110 -89 -197 -9 -20 -16 -41 -16 -47 0 -20 -42 -22 -387 -19 l-341 3 83 170 c46 94 113 233 150 310 37 77 100 208 140 290 122 251 220 455 270 560 26 55 87 181 135 280 103 212 195 403 258 535 24 52 77 163 117 245 110 227 217 448 270 560 26 55 80 168 120 250 121 248 220 454 270 560 49 103 143 298 270 560 40 83 94 195 120 250 26 55 61 130 79 166 17 36 33 61 35 55 2 -6 17 -40 33 -76z"/>
 <path d="M6006 6250 c-152 -19 -237 -51 -286 -106 -26 -30 -30 -42 -30 -92 0 -72 33 -144 95 -211 56 -59 110 -81 206 -81 79 0 95 12 86 67 l-6 36 212 -6 c234 -7 364 -24 479 -60 90 -29 211 -94 205 -110 -8 -25 -105 -88 -177 -116 -41 -16 -133 -40 -205 -55 -160 -31 -232 -54 -360 -115 -104 -49 -158 -96 -171 -147 -10 -37 2 -178 21 -249 54 -206 183 -328 442 -415 195 -65 455 -98 683 -85 181 9 252 27 308 78 20 18 22 30 22 106 0 69 -5 96 -24 137 -30 66 -67 92 -196 143 -58 23 -144 64 -191 91 -116 67 -159 65 -159 -7 0 -37 40 -88 105 -136 l40 -29 -80 7 c-234 20 -420 62 -551 125 -75 36 -144 94 -144 121 0 15 51 34 215 79 402 111 641 256 686 418 18 65 6 178 -27 248 -41 89 -150 192 -256 242 -90 44 -234 83 -393 107 -118 19 -451 28 -549 15z m502 -66 c157 -21 333 -67 422 -111 87 -42 184 -133 218 -203 27 -57 43 -140 35 -183 -11 -57 -51 -124 -100 -166 -104 -88 -331 -185 -612 -261 -155 -42 -185 -61 -189 -117 -3 -37 2 -47 38 -87 109 -118 393 -201 735 -213 139 -5 162 -4 173 10 19 22 12 29 -76 80 -72 42 -141 101 -131 112 3 2 36 -15 74 -38 39 -23 126 -64 195 -92 103 -42 129 -57 147 -85 30 -44 45 -100 41 -158 -3 -40 -7 -49 -34 -64 -57 -33 -159 -48 -338 -48 -298 0 -534 50 -741 158 -90 47 -154 111 -193 194 -62 129 -85 302 -46 355 46 63 266 154 469 193 152 29 255 65 325 111 66 45 125 112 116 134 -7 18 -77 70 -136 100 -68 34 -164 64 -270 82 -128 22 -658 26 -683 4 -27 -22 -20 -41 26 -61 36 -16 38 -19 16 -19 -56 -2 -126 28 -164 70 -42 47 -85 132 -85 170 0 129 345 189 768 133z"/>
 <path d="M9905 6163 c-38 -10 -73 -43 -95 -89 -19 -39 -22 -57 -18 -127 3 -45 9 -91 13 -101 5 -11 -54 35 -130 102 -162 142 -213 172 -298 172 -56 0 -62 -2 -98 -39 l-39 -39 0 -83 0 -83 -66 72 c-87 95 -133 122 -211 122 -54 0 -63 -3 -101 -35 -22 -20 -53 -60 -67 -89 l-26 -53 -62 65 c-69 73 -164 146 -215 168 -51 21 -160 18 -198 -5 -59 -36 -104 -111 -125 -211 l-11 -50 -29 21 c-17 12 -60 26 -99 32 -65 10 -71 13 -140 77 -96 91 -155 120 -244 120 -44 0 -81 -6 -104 -17 -57 -27 -120 -97 -155 -171 -31 -64 -32 -72 -32 -192 0 -125 0 -125 37 -196 78 -151 223 -296 372 -372 63 -31 82 -36 164 -40 102 -5 141 5 172 46 11 14 20 40 20 59 0 23 9 46 25 65 22 26 25 39 25 106 0 85 -18 172 -49 245 -22 52 -21 54 13 32 18 -12 27 -32 36 -83 20 -110 77 -268 150 -417 225 -461 538 -777 640 -647 20 25 22 35 18 137 -4 89 -11 128 -36 202 -71 210 -210 430 -426 676 -86 98 -86 98 -86 153 0 66 20 117 54 139 23 15 28 15 58 1 19 -9 75 -52 125 -96 77 -68 92 -87 103 -126 18 -63 89 -169 197 -295 138 -160 129 -153 236 -157 119 -4 160 14 165 71 2 26 -5 52 -24 88 -33 60 -168 206 -259 280 -48 39 -68 63 -77 91 -22 75 -9 67 194 -111 77 -67 159 -150 205 -208 95 -119 195 -227 247 -265 47 -34 111 -38 147 -9 19 15 24 30 27 84 2 37 1 78 -2 92 -4 14 -59 103 -122 197 -142 209 -194 318 -151 318 37 0 182 -105 273 -198 52 -53 204 -244 204 -258 0 -6 -21 -4 -123 12 -47 8 -67 -8 -67 -53 0 -83 127 -264 209 -296 21 -9 83 -19 138 -23 l99 -7 24 -41 c37 -65 117 -143 166 -162 55 -21 145 -15 174 11 38 34 21 87 -58 180 l-25 30 34 3 c42 4 59 18 59 47 0 26 -86 170 -153 256 l-49 62 -82 -7 -82 -7 -63 110 c-93 163 -141 298 -127 356 12 49 70 26 228 -92 63 -46 88 -71 88 -87 0 -63 121 -254 227 -358 92 -90 129 -108 219 -108 68 0 74 2 98 31 63 75 5 205 -175 394 -112 118 -130 151 -104 191 32 49 101 44 192 -15 85 -55 133 -100 133 -125 0 -31 54 -140 105 -211 57 -80 175 -190 256 -238 91 -53 154 -70 254 -65 77 3 86 5 114 32 25 24 31 38 31 70 0 30 5 45 19 53 57 36 51 207 -12 363 l-25 61 31 -24 c17 -13 48 -56 69 -97 86 -165 228 -327 305 -350 56 -17 129 -5 159 25 29 29 32 93 7 133 -17 26 -16 26 22 -6 141 -116 197 -160 250 -194 53 -35 65 -39 115 -36 53 3 55 4 78 46 17 31 25 65 29 121 l6 77 -60 70 c-138 161 -213 272 -213 316 0 18 1 18 39 -1 90 -46 206 -149 383 -338 215 -229 258 -279 258 -299 0 -27 39 -91 70 -118 27 -22 41 -26 99 -26 82 0 101 15 101 79 0 24 11 84 24 135 32 120 40 197 27 275 -15 91 -51 158 -134 247 -70 75 -70 76 -31 56 44 -23 198 -134 208 -151 9 -15 49 -14 64 1 7 7 12 40 12 77 l0 66 -74 68 c-113 102 -233 188 -316 227 -67 31 -84 35 -160 35 -70 0 -94 -5 -135 -25 -63 -30 -168 -133 -185 -183 -8 -20 -17 -37 -21 -37 -3 0 -42 33 -85 73 -165 151 -223 187 -301 187 -104 0 -147 -60 -141 -196 3 -73 8 -91 45 -165 l42 -84 -41 45 c-22 25 -85 102 -139 172 -117 150 -138 168 -192 168 -32 0 -46 -6 -73 -35 -29 -31 -42 -61 -70 -163 -3 -10 -15 -6 -46 12 -25 14 -69 27 -103 32 -57 6 -64 10 -134 76 -92 88 -153 118 -241 118 -41 0 -79 -7 -105 -19 -49 -22 -117 -95 -147 -155 l-21 -45 -82 77 c-116 109 -181 146 -267 150 -37 3 -79 1 -93 -2 -60 -15 -128 -105 -155 -204 l-11 -43 -77 72 c-99 92 -191 162 -257 195 -52 25 -140 38 -180 27z m150 -77 c74 -35 167 -107 286 -223 109 -106 129 -115 129 -53 0 80 56 201 109 237 87 58 194 13 358 -153 101 -102 114 -112 123 -94 5 10 10 25 10 32 0 31 60 136 98 170 102 92 209 71 353 -68 72 -71 78 -74 123 -74 57 0 101 -17 163 -65 25 -19 49 -32 53 -28 4 5 12 39 19 77 14 80 46 152 73 167 30 16 55 -6 168 -153 151 -195 364 -398 390 -372 5 5 -25 67 -67 139 -133 229 -159 307 -131 390 10 31 21 42 50 53 34 13 40 12 90 -10 56 -26 147 -99 280 -226 42 -41 81 -71 86 -68 5 3 12 26 15 51 12 88 75 169 167 217 36 19 60 23 125 23 72 -1 87 -4 151 -37 76 -39 192 -124 287 -210 48 -44 58 -58 55 -80 l-3 -27 -70 54 c-38 30 -103 72 -144 92 -65 33 -83 38 -144 38 -45 0 -72 -4 -74 -12 -2 -6 29 -36 69 -66 224 -166 286 -318 224 -551 -14 -54 -26 -119 -26 -146 0 -52 -8 -60 -62 -60 -39 0 -83 44 -99 101 -14 48 -10 44 -289 342 -275 295 -445 411 -497 341 -36 -48 6 -148 125 -292 34 -43 81 -99 103 -126 38 -47 40 -53 34 -95 -4 -25 -14 -63 -22 -84 -15 -36 -18 -38 -47 -33 -80 16 -301 196 -468 382 -64 71 -127 140 -142 153 -25 24 -26 24 -47 5 -40 -36 -5 -105 138 -274 77 -90 113 -139 113 -152 0 -20 -36 -38 -74 -38 -74 0 -140 58 -246 215 -54 81 -90 148 -90 169 0 19 -103 93 -142 101 -23 5 -35 2 -49 -12 -19 -19 -19 -20 15 -94 43 -93 66 -181 66 -252 0 -73 -6 -85 -47 -102 -35 -15 -35 -15 -19 -40 21 -32 20 -48 -3 -69 -55 -50 -207 -21 -334 64 -143 96 -284 281 -303 397 -5 35 -15 47 -80 97 -120 92 -205 128 -268 112 -14 -3 -41 -20 -61 -37 -32 -28 -35 -36 -35 -83 0 -63 6 -73 129 -201 132 -138 204 -267 174 -314 -6 -9 -27 -17 -51 -19 -82 -6 -183 69 -284 212 -61 87 -104 170 -113 220 -7 32 -20 47 -104 112 -167 129 -248 159 -298 112 -20 -18 -23 -31 -23 -89 0 -91 39 -198 134 -364 64 -111 78 -130 98 -129 13 1 52 3 88 5 l65 3 55 -77 c30 -42 68 -99 83 -127 l28 -50 -44 0 c-24 0 -52 -6 -62 -14 -18 -13 -16 -18 48 -101 37 -49 67 -94 67 -101 0 -23 -99 -18 -140 7 -40 25 -43 28 -110 125 l-49 72 -108 4 c-138 5 -175 23 -239 119 -43 66 -71 125 -62 135 3 2 29 0 58 -6 75 -14 145 -13 159 4 9 10 -6 38 -70 126 -169 233 -365 408 -486 435 -27 5 -37 2 -58 -19 -14 -14 -25 -36 -25 -50 0 -54 47 -146 157 -308 63 -93 121 -185 129 -204 17 -42 10 -120 -12 -128 -43 -17 -130 60 -286 252 -65 80 -143 161 -226 233 -228 200 -258 216 -291 158 -12 -22 -12 -35 -1 -88 12 -60 16 -64 84 -120 157 -128 311 -320 275 -342 -23 -14 -89 -21 -134 -14 -38 5 -53 15 -106 73 -139 151 -249 313 -249 367 0 21 -117 135 -213 208 -62 47 -119 51 -167 11 -52 -44 -64 -79 -64 -176 l1 -86 72 -79 c211 -227 395 -524 453 -731 24 -85 30 -223 12 -242 -23 -23 -103 26 -194 118 -204 207 -431 631 -491 917 -20 97 -32 114 -111 156 -45 23 -66 24 -89 3 -16 -15 -15 -19 17 -87 45 -95 78 -227 71 -286 -5 -44 -15 -58 -63 -87 -15 -10 -17 -14 -6 -25 6 -7 12 -26 12 -42 0 -23 -7 -31 -37 -44 -60 -24 -141 -12 -237 36 -152 75 -270 196 -345 351 -33 69 -36 82 -35 160 2 187 103 325 239 325 71 0 137 -36 223 -122 72 -72 74 -73 125 -73 56 0 106 -21 167 -71 19 -16 37 -25 41 -21 3 4 11 43 18 87 14 99 53 181 101 213 44 30 104 26 176 -9 48 -24 199 -163 262 -244 38 -47 46 -42 67 40 20 73 49 121 89 146 84 51 149 4 359 -259 123 -154 142 -145 67 33 -69 164 -66 264 8 285 51 14 98 -2 172 -56 66 -49 277 -236 297 -265 21 -28 92 -81 102 -75 5 3 -8 54 -29 114 -47 132 -55 185 -40 241 25 92 100 117 205 67z"/>
 <path d="M7590 5892 c-57 -28 -64 -55 -40 -162 22 -103 40 -137 102 -196 90 -85 283 -213 299 -197 6 6 -7 42 -36 99 -71 140 -92 252 -63 334 10 31 9 35 -18 57 -46 37 -144 83 -178 83 -17 0 -47 -8 -66 -18z m148 -72 l52 -30 0 -99 c0 -87 9 -142 35 -205 7 -16 6 -17 -13 -7 -42 23 -143 113 -166 149 -14 20 -32 73 -42 116 -16 76 -16 80 2 93 29 21 75 15 132 -17z"/>
 <path d="M11240 5892 c-58 -29 -61 -72 -19 -235 12 -46 107 -150 192 -210 100 -70 185 -119 195 -113 6 3 -11 48 -39 104 -63 124 -84 219 -69 304 14 73 9 80 -90 132 -76 40 -118 45 -170 18z m150 -73 l57 -30 -5 -69 c-5 -74 11 -177 34 -222 8 -16 11 -28 7 -28 -17 0 -153 114 -176 148 -22 31 -39 84 -61 185 -6 25 20 47 56 47 17 0 56 -14 88 -31z"/>
 <path d="M13066 5775 c-25 -38 -49 -61 -74 -72 -58 -24 -67 -30 -65 -37 5 -20 336 -347 343 -340 11 11 30 161 30 238 0 81 -17 129 -63 182 -35 40 -101 84 -125 84 -5 0 -26 -25 -46 -55z m119 -59 c53 -55 69 -112 59 -213 -3 -41 -10 -73 -13 -71 -4 2 -53 51 -109 109 l-101 106 27 20 c15 11 39 37 52 57 14 20 29 36 34 36 5 0 28 -20 51 -44z"/>
 <path d="M8436 5421 c-6 -10 31 -141 63 -221 67 -166 184 -352 253 -403 76 -57 78 46 4 200 -56 115 -173 294 -246 376 -51 57 -64 65 -74 48z m182 -293 c67 -111 130 -238 118 -238 -13 0 -176 293 -176 315 0 14 11 -1 58 -77z"/>
 <path d="M10890 5114 c-38 -35 -40 -39 -40 -96 0 -63 14 -99 62 -160 42 -53 87 -78 142 -78 92 0 136 44 136 136 0 64 -16 105 -68 164 -42 50 -84 70 -147 70 -38 0 -51 -6 -85 -36z m173 -54 c44 -38 81 -121 72 -161 -10 -43 -31 -59 -77 -59 -54 0 -98 34 -132 102 -31 63 -32 87 -5 122 30 39 96 37 142 -4z"/>
 <path d="M12053 4200 c-143 -20 -302 -138 -368 -274 -60 -123 -69 -305 -24 -452 45 -146 203 -287 360 -323 66 -15 227 -13 292 4 183 48 323 195 347 366 14 94 13 252 -2 267 -9 9 -105 12 -370 12 -260 0 -358 3 -358 11 0 7 19 31 43 54 109 108 299 111 419 6 20 -17 44 -31 55 -31 29 0 153 132 153 163 0 31 -78 105 -147 140 -103 53 -265 76 -400 57z m256 -65 c70 -17 157 -60 208 -103 l33 -27 -51 -52 -50 -52 -44 33 c-62 47 -131 68 -229 68 -106 1 -186 -32 -250 -103 -40 -45 -72 -121 -60 -141 3 -4 172 -8 376 -8 l370 0 -4 -127 c-3 -113 -6 -135 -30 -185 -113 -242 -453 -322 -693 -162 -94 62 -159 156 -184 265 -15 66 -13 207 4 274 41 158 159 277 316 319 71 19 208 19 288 1z"/>
 <path d="M11867 3603 c-10 -10 3 -72 24 -114 22 -45 79 -96 138 -123 62 -29 209 -30 261 -2 82 43 137 120 142 198 l3 43 -281 3 c-154 1 -283 -1 -287 -5z m498 -80 c-29 -69 -74 -104 -160 -123 -85 -19 -213 33 -255 103 -36 58 -40 57 205 57 l225 0 -15 -37z"/>
 <path d="M13282 4199 c-53 -9 -114 -35 -164 -71 l-28 -19 0 28 c0 16 -5 34 -12 41 -17 17 -239 17 -256 0 -17 -17 -17 -1369 0 -1386 17 -17 239 -17 256 0 9 9 12 74 12 230 l0 218 45 -35 c60 -45 130 -65 230 -65 147 0 255 43 354 140 117 115 144 195 139 413 -3 142 -5 156 -31 212 -59 125 -168 231 -280 273 -64 24 -192 34 -265 21z m272 -88 c119 -58 200 -157 240 -290 18 -62 21 -221 5 -290 -37 -162 -168 -289 -338 -327 -144 -32 -258 2 -354 106 -30 32 -58 56 -61 53 -3 -4 -6 -125 -6 -270 l0 -263 -90 0 -90 0 0 655 0 655 90 0 90 0 0 -63 c0 -35 3 -66 6 -70 3 -3 30 14 60 39 103 83 165 105 290 101 80 -2 99 -7 158 -36z"/>
 <path d="M13260 3991 c-162 -53 -251 -208 -220 -382 15 -84 37 -124 102 -185 63 -60 110 -78 198 -78 83 0 142 27 205 95 70 75 89 126 89 234 0 71 -4 100 -21 137 -27 60 -101 134 -160 160 -51 22 -153 32 -193 19z m178 -77 c166 -83 194 -320 52 -447 -79 -71 -168 -86 -257 -42 -190 95 -189 402 1 491 69 32 137 32 204 -2z"/>
 <path d="M6178 4173 c-22 -27 -508 -1244 -508 -1274 0 -45 14 -49 162 -49 132 0 138 1 151 23 8 12 88 203 178 424 90 222 167 403 170 403 3 0 81 -185 174 -410 93 -226 176 -417 185 -425 13 -12 46 -15 151 -15 138 0 159 5 159 40 0 25 -499 1262 -518 1283 -13 15 -34 17 -152 17 -118 0 -139 -2 -152 -17z m512 -653 l247 -615 -100 -3 c-55 -1 -104 1 -108 5 -4 4 -91 213 -194 463 -103 250 -189 459 -192 463 -3 4 -11 3 -18 -3 -7 -6 -97 -217 -201 -470 l-189 -460 -102 0 c-57 0 -103 4 -103 8 0 5 99 256 221 558 122 302 232 577 246 612 l25 63 111 -3 111 -3 246 -615z"/>
 <path d="M7082 4178 c-17 -17 -17 -999 0 -1016 8 -8 51 -12 128 -12 77 0 120 4 128 12 17 17 17 999 0 1016 -8 8 -51 12 -128 12 -77 0 -120 -4 -128 -12z m218 -503 l0 -465 -90 0 -90 0 0 465 0 465 90 0 90 0 0 -465z"/>
 <path d="M7932 4178 c-15 -19 -505 -1239 -510 -1271 -8 -52 7 -57 159 -57 133 0 139 1 153 23 8 12 90 204 182 427 91 223 167 406 168 407 1 1 78 -182 170 -407 93 -225 175 -419 183 -430 13 -18 25 -20 152 -20 152 0 167 5 159 57 -5 32 -495 1252 -510 1271 -8 8 -51 12 -153 12 -102 0 -145 -4 -153 -12z m505 -641 c133 -331 245 -610 248 -619 7 -16 -2 -18 -98 -18 l-104 0 -188 458 c-104 251 -193 463 -198 470 -8 11 -12 11 -22 0 -6 -7 -92 -209 -190 -448 -98 -239 -183 -445 -188 -457 -10 -22 -16 -23 -114 -23 -62 0 -103 4 -101 10 2 5 113 284 248 620 l245 610 110 0 110 0 242 -603z"/>
 <path d="M8832 4178 c-17 -17 -17 -999 0 -1016 8 -8 51 -12 128 -12 77 0 120 4 128 12 17 17 17 999 0 1016 -8 8 -51 12 -128 12 -77 0 -120 -4 -128 -12z m218 -503 l0 -465 -90 0 -90 0 0 465 0 465 90 0 90 0 0 -465z"/>
 <path d="M10126 4168 c-18 -28 -446 -1255 -446 -1278 0 -34 21 -40 154 -40 102 0 133 3 146 15 10 9 77 188 151 400 129 369 134 382 146 351 6 -19 60 -191 119 -382 59 -192 114 -357 122 -366 13 -15 33 -18 127 -18 94 0 114 3 127 18 8 9 68 190 134 401 l118 383 13 -38 c159 -458 258 -733 271 -746 13 -15 34 -18 147 -18 134 0 155 5 155 41 0 23 -428 1249 -446 1277 -14 21 -21 22 -143 22 -91 0 -131 -4 -138 -12 -6 -7 -61 -180 -124 -385 -62 -205 -114 -371 -115 -370 -1 1 -52 169 -114 372 -62 204 -117 376 -122 383 -8 8 -48 12 -139 12 -122 0 -129 -1 -143 -22z m369 -458 c114 -368 134 -425 150 -425 17 0 37 57 150 425 l130 425 97 3 96 3 20 -58 c35 -104 400 -1147 408 -1166 6 -16 -1 -18 -96 -15 l-103 3 -148 425 c-177 505 -166 478 -184 459 -8 -8 -57 -153 -110 -324 -53 -170 -114 -367 -136 -437 l-40 -128 -84 0 -83 0 -16 48 c-8 26 -70 223 -136 437 -66 215 -127 396 -135 404 -18 18 -6 48 -183 -459 l-149 -425 -103 -3 c-95 -3 -102 -1 -95 15 12 32 425 1216 425 1220 0 2 44 2 97 1 l98 -3 130 -425z"/>
 <path d="M2367 4002 c-15 -17 -17 -58 -17 -379 0 -389 3 -360 -57 -493 -38 -82 -76 -165 -121 -260 -21 -47 -50 -107 -62 -135 -12 -27 -43 -93 -68 -145 -103 -218 -132 -279 -165 -350 -36 -76 -114 -242 -192 -405 -24 -49 -61 -128 -83 -175 -97 -208 -117 -250 -152 -325 -21 -44 -52 -111 -70 -150 -30 -65 -64 -137 -175 -370 -24 -49 -62 -130 -85 -180 -23 -49 -66 -140 -96 -200 -30 -61 -54 -122 -54 -136 0 -58 54 -66 94 -15 14 19 26 38 26 41 0 22 234 355 355 505 171 213 444 477 635 614 91 65 174 120 200 132 8 4 22 13 31 21 14 11 86 14 399 13 l383 0 60 -41 c441 -302 877 -731 1275 -1258 57 -75 113 -146 124 -158 36 -38 88 -25 88 21 0 12 -16 55 -36 96 -20 41 -76 156 -124 255 -48 99 -111 230 -140 290 -29 61 -84 175 -122 255 -88 181 -176 366 -235 490 -47 98 -116 243 -220 460 -33 69 -77 161 -98 205 -35 75 -79 166 -238 495 -36 74 -79 167 -97 205 -18 39 -66 140 -107 225 -73 151 -83 174 -99 215 -4 11 -8 153 -8 316 -1 277 -2 298 -20 318 -19 21 -26 21 -366 21 -323 0 -348 -1 -363 -18z m689 -89 c4 -27 4 -163 0 -304 -6 -223 -4 -258 9 -269 8 -7 15 -20 15 -28 0 -9 20 -57 44 -107 65 -135 173 -360 216 -450 46 -97 149 -311 240 -500 37 -77 84 -176 105 -220 45 -97 133 -280 225 -470 37 -77 82 -171 100 -210 36 -78 145 -304 255 -530 40 -82 96 -199 125 -260 28 -60 65 -136 81 -169 17 -32 28 -60 27 -62 -2 -2 -28 29 -58 69 -62 83 -87 114 -265 321 -251 292 -624 642 -859 806 -11 8 -52 38 -91 65 -38 28 -88 62 -109 75 -36 21 -40 22 -51 7 -11 -15 -45 -17 -339 -17 -277 0 -326 2 -326 14 0 8 -5 18 -10 21 -9 6 -87 -28 -134 -58 -109 -69 -258 -174 -340 -241 -105 -84 -350 -324 -448 -436 -49 -57 -283 -365 -315 -416 -12 -18 -12 -18 -5 1 4 11 31 70 61 130 63 131 127 265 169 355 17 36 53 115 82 175 51 108 75 161 140 300 36 78 90 193 173 365 30 63 72 151 92 195 20 44 56 121 80 170 99 207 154 323 175 370 12 28 39 86 60 130 51 108 104 222 124 270 21 47 73 158 92 197 11 21 14 103 14 392 l0 366 319 0 320 0 7 -47z"/>
 <path d="M7120 3058 c-52 -36 -73 -71 -78 -131 -5 -69 17 -120 69 -154 77 -51 158 -41 225 28 38 39 39 42 39 109 0 76 -15 107 -75 148 -25 16 -47 22 -90 22 -43 0 -65 -6 -90 -22z m135 -42 c43 -18 67 -56 67 -105 -1 -68 -45 -111 -113 -111 -121 0 -157 167 -46 215 41 18 50 18 92 1z"/>
 <path d="M8868 3055 c-52 -35 -68 -71 -68 -149 0 -62 2 -69 36 -106 80 -89 226 -73 279 31 9 15 15 55 15 89 0 59 -2 63 -44 108 -43 45 -46 46 -112 50 -61 3 -73 0 -106 -23z m147 -41 c34 -16 65 -65 65 -104 0 -29 -26 -76 -52 -94 -12 -9 -42 -16 -66 -16 -37 0 -50 6 -78 34 -26 26 -34 42 -34 70 0 51 25 95 63 111 42 19 62 18 102 -1z"/>
 <path d="M2645 1444 c-108 -29 -222 -97 -280 -168 -45 -55 -82 -125 -106 -200 -28 -87 -27 -283 2 -368 43 -127 156 -262 257 -309 26 -12 56 -26 67 -32 11 -6 68 -13 127 -15 112 -4 165 6 253 52 51 26 141 116 186 186 62 97 74 147 74 305 0 155 -11 200 -72 306 -54 93 -204 219 -261 219 -10 0 -23 5 -29 11 -12 12 -183 22 -218 13z m167 -65 c29 -6 77 -22 107 -37 55 -27 151 -117 175 -164 8 -15 21 -40 29 -55 31 -58 47 -140 47 -234 -1 -147 -43 -250 -145 -354 -67 -69 -119 -97 -217 -120 -61 -14 -75 -14 -140 0 -40 8 -97 27 -126 42 -135 68 -252 274 -252 439 1 105 60 265 128 344 42 50 157 119 225 136 67 16 103 17 169 3z"/>
 </g>
<g id="layer2" fill="#02559b" stroke="none">
 <path d="M2738 6374 c-6 -5 -126 -250 -153 -309 -14 -33 -111 -233 -252 -525 -50 -102 -105 -216 -123 -255 -37 -79 -141 -295 -270 -560 -48 -99 -102 -211 -120 -250 -35 -76 -131 -275 -272 -565 -49 -102 -102 -212 -118 -245 -60 -128 -157 -329 -255 -530 -56 -115 -117 -241 -135 -280 -37 -81 -137 -288 -287 -595 -57 -118 -117 -242 -133 -275 -15 -33 -69 -145 -119 -248 -51 -103 -89 -192 -86 -197 10 -16 717 -13 738 3 17 12 57 83 57 101 0 9 36 88 91 201 16 33 29 63 29 67 0 4 15 40 34 80 36 78 91 200 106 233 9 22 52 117 107 235 19 41 38 84 43 95 9 21 46 104 107 235 19 41 38 84 43 95 9 21 46 104 107 235 19 41 38 84 43 95 14 33 80 175 121 261 21 45 39 84 39 87 0 6 66 151 116 253 19 39 34 73 34 76 0 7 65 150 116 254 19 39 34 74 34 78 0 7 26 63 111 242 22 45 39 85 39 89 0 10 37 89 137 293 66 134 77 151 87 135 17 -25 167 -334 221 -458 13 -29 54 -116 148 -315 24 -52 52 -113 62 -135 9 -22 36 -80 60 -130 104 -219 125 -263 145 -310 12 -27 41 -90 65 -140 95 -199 124 -262 145 -310 12 -27 41 -90 65 -140 55 -115 116 -246 145 -310 12 -27 39 -86 60 -130 35 -74 93 -199 125 -270 8 -16 38 -82 68 -145 59 -124 123 -263 137 -295 8 -17 72 -154 131 -282 11 -23 25 -45 32 -50 15 -11 737 -11 737 0 0 4 -51 112 -113 240 -63 127 -136 277 -162 332 -26 55 -114 235 -195 400 -170 344 -408 832 -450 920 -16 33 -110 224 -208 425 -214 435 -408 831 -468 955 -23 50 -124 254 -222 455 -284 577 -453 923 -467 955 -60 133 -65 142 -77 129z"/>
 <path d="M12021 4154 c-78 -21 -147 -61 -210 -124 -98 -97 -141 -207 -141 -360 1 -142 34 -238 116 -329 153 -170 399 -217 603 -115 83 42 171 130 209 211 25 54 27 67 27 193 l0 135 -371 3 -372 2 10 40 c15 58 67 112 139 145 116 52 277 34 375 -41 l46 -35 58 63 59 63 -42 37 c-57 51 -141 94 -218 113 -80 18 -217 18 -288 -1z m393 -601 c-21 -115 -99 -182 -225 -191 -154 -11 -278 69 -302 196 l-6 32 270 0 270 0 -7 -37z"/>
 <path d="M13265 4157 c-58 -19 -95 -40 -153 -86 l-51 -41 -3 63 -3 62 -105 0 -105 0 0 -670 0 -670 105 0 105 0 3 259 2 259 59 -57 c68 -64 129 -94 211 -103 75 -7 189 18 260 59 109 62 203 184 229 299 16 69 13 228 -5 290 -40 135 -135 249 -259 310 -60 29 -79 34 -159 36 -56 2 -106 -2 -131 -10z m187 -204 c57 -26 115 -83 141 -142 30 -65 30 -207 0 -272 -28 -63 -85 -123 -141 -150 -55 -27 -154 -31 -216 -10 -48 17 -121 82 -146 132 -44 84 -46 216 -7 311 29 68 92 121 177 149 40 13 142 3 192 -18z"/>
 <path d="M6203 4143 c-4 -10 -118 -295 -254 -633 -136 -338 -245 -618 -243 -622 9 -14 230 -10 241 5 5 6 92 212 192 457 101 245 186 448 189 452 4 4 93 -201 197 -455 l190 -462 114 -3 c63 -1 118 1 123 6 5 5 -102 284 -244 638 l-253 629 -123 3 c-110 2 -123 1 -129 -15z"/>
 <path d="M7105 4148 c-3 -7 -4 -224 -3 -483 l3 -470 105 0 105 0 0 480 0 480 -103 3 c-76 2 -104 -1 -107 -10z"/>
 <path d="M7963 4148 c-4 -7 -121 -293 -259 -636 -165 -409 -247 -625 -240 -628 7 -3 63 -3 125 -2 l113 3 192 466 191 466 192 -466 192 -466 123 0 c77 0 122 4 121 10 -4 21 -496 1241 -506 1253 -13 17 -232 17 -244 0z"/>
 <path d="M8855 4148 c-3 -7 -4 -224 -3 -483 l3 -470 105 0 105 0 0 480 0 480 -103 3 c-76 2 -104 -1 -107 -10z"/>
 <path d="M10155 4148 c-110 -302 -434 -1252 -430 -1258 4 -6 55 -10 115 -10 94 0 111 2 118 18 5 9 76 209 158 444 82 234 151 424 154 422 2 -3 65 -201 140 -442 l136 -437 99 0 100 0 136 437 c74 241 137 440 140 442 2 2 71 -188 153 -422 82 -235 153 -435 158 -444 7 -16 24 -18 119 -18 79 0 111 4 114 13 3 6 -94 293 -214 637 l-218 625 -106 3 c-93 2 -107 1 -115 -15 -6 -10 -65 -198 -132 -418 -67 -220 -126 -406 -130 -414 -5 -10 -11 -4 -18 20 -6 19 -64 205 -128 414 -64 209 -120 388 -125 398 -8 14 -25 17 -115 17 -75 0 -106 -4 -109 -12z"/>
 <path d="M2395 3971 c-3 -5 -8 -525 -12 -1155 -5 -926 -4 -1148 7 -1160 11 -14 56 -16 340 -16 250 0 330 3 337 13 11 15 11 2297 0 2315 -10 15 -662 18 -672 3z"/>
 <path d="M7165 3036 c-82 -36 -112 -130 -64 -198 75 -105 239 -55 241 73 1 89 -100 160 -177 125z"/>
 <path d="M8910 3032 c-47 -23 -80 -75 -80 -125 0 -33 7 -46 44 -83 38 -39 48 -44 89 -44 51 0 96 30 123 83 30 58 -3 139 -70 171 -43 20 -63 20 -106 -2z"/>
 <path d="M2643 1396 c-71 -17 -182 -86 -234 -144 -77 -85 -138 -244 -139 -356 0 -120 61 -264 157 -366 72 -77 138 -114 241 -135 100 -21 180 -3 308 69 45 25 108 99 157 186 93 165 70 437 -48 570 -18 19 -37 45 -44 58 -6 12 -18 22 -25 22 -7 0 -20 8 -30 18 -24 28 -113 69 -174 81 -66 14 -102 13 -169 -3z"/>
 </g>
<g id="layer3" fill="#f27d2d" stroke="none">
 <path d="M2455 7244 c-172 -20 -341 -56 -470 -99 -276 -92 -537 -224 -732 -367 -35 -27 -66 -48 -69 -48 -3 0 -18 -11 -32 -24 -25 -22 -57 -51 -199 -176 -48 -43 -218 -236 -274 -310 -49 -66 -119 -169 -119 -175 0 -4 -12 -22 -26 -41 -27 -35 -184 -340 -184 -357 0 -5 -6 -23 -14 -40 -33 -77 -47 -118 -72 -202 -34 -117 -53 -196 -64 -270 -6 -33 -13 -67 -16 -75 -3 -8 -12 -98 -19 -200 -17 -234 -8 -426 29 -640 14 -82 32 -162 55 -245 22 -78 44 -150 52 -170 5 -11 18 -45 29 -75 26 -66 59 -140 110 -240 55 -109 69 -133 151 -253 41 -59 79 -116 84 -126 6 -10 17 -24 25 -33 8 -8 40 -46 70 -83 95 -118 100 -121 124 -75 14 27 90 187 123 260 12 25 49 102 83 173 56 111 62 130 51 150 -14 27 -26 46 -72 117 -42 64 -169 321 -169 342 0 8 -4 18 -9 23 -5 6 -19 46 -31 90 -12 44 -26 91 -31 105 -5 14 -18 78 -29 144 -16 94 -20 163 -20 335 0 229 15 352 60 512 12 41 26 92 31 114 6 22 14 44 20 50 5 5 9 15 9 23 0 29 127 290 177 366 18 26 33 50 33 53 0 8 64 88 77 96 7 4 13 14 13 22 0 17 288 305 306 305 7 0 17 6 21 13 9 14 89 77 98 77 4 0 21 11 38 24 28 21 89 56 192 110 148 77 357 145 550 180 179 32 561 30 705 -3 25 -6 65 -15 90 -21 25 -6 65 -16 90 -22 25 -5 49 -14 55 -19 5 -5 18 -9 30 -9 11 0 33 -7 49 -15 15 -8 33 -15 38 -15 23 0 238 -105 300 -147 28 -18 52 -33 55 -33 3 0 22 -13 43 -30 21 -16 41 -30 45 -30 4 0 31 -20 59 -44 28 -24 67 -56 86 -72 171 -141 341 -362 454 -589 96 -193 166 -412 187 -584 4 -36 13 -109 20 -161 12 -103 7 -305 -12 -417 -19 -115 -40 -216 -54 -263 -44 -138 -56 -177 -65 -195 -5 -11 -18 -42 -30 -70 -36 -84 -73 -155 -87 -166 -7 -7 -13 -16 -13 -21 0 -5 -20 -40 -45 -78 -78 -119 -78 -99 8 -272 41 -84 107 -219 146 -300 39 -82 73 -148 75 -148 2 0 29 30 61 68 31 37 67 78 78 92 12 14 27 33 32 42 6 9 46 70 90 134 44 65 85 127 92 138 38 68 173 346 178 369 4 15 11 30 16 33 5 3 9 12 9 21 0 8 6 29 13 46 24 56 69 218 91 327 38 186 46 281 46 516 0 235 -7 316 -45 504 -26 124 -91 348 -116 392 -5 10 -9 23 -9 29 0 18 -114 258 -173 364 -46 83 -163 254 -198 290 -16 17 -29 35 -29 39 0 21 -393 416 -415 416 -9 0 -88 63 -98 78 -4 6 -13 12 -19 12 -5 0 -27 13 -47 28 -20 16 -43 32 -51 36 -24 11 -57 31 -72 43 -17 15 -310 163 -321 163 -10 0 -68 24 -110 46 -16 8 -35 14 -44 14 -8 0 -29 6 -46 14 -18 8 -41 16 -52 19 -11 3 -56 15 -100 27 -263 72 -657 99 -950 64z"/>
 <path d="M6067 6220 c-169 -15 -265 -47 -317 -106 -37 -42 -38 -72 -5 -141 37 -82 107 -150 171 -169 103 -30 165 -1 80 37 -25 11 -46 24 -46 29 0 16 135 23 364 17 354 -9 510 -44 664 -149 23 -16 42 -35 42 -42 0 -20 -72 -90 -122 -120 -65 -38 -146 -64 -288 -92 -151 -30 -273 -70 -377 -123 -135 -68 -160 -109 -143 -235 21 -154 79 -278 166 -355 86 -76 281 -159 455 -195 150 -30 250 -38 437 -33 205 5 267 17 323 64 31 26 31 29 27 92 -5 71 -31 132 -70 168 -12 12 -74 42 -137 67 -62 25 -148 66 -190 91 -43 25 -83 45 -89 45 -51 0 35 -98 137 -155 39 -22 71 -44 71 -49 0 -15 -317 1 -440 23 -293 51 -480 149 -480 251 0 50 10 56 189 105 383 105 618 230 685 364 31 62 37 101 26 163 -16 82 -48 137 -124 214 -51 50 -93 81 -146 108 -186 91 -589 150 -863 126z"/>
 <path d="M9875 6097 c-40 -40 -59 -104 -50 -165 4 -25 22 -88 40 -141 18 -53 32 -97 30 -100 -2 -2 -26 19 -52 46 -78 80 -255 237 -322 286 -35 26 -79 51 -100 57 -54 14 -107 -3 -131 -43 -37 -60 -22 -151 52 -316 16 -35 27 -65 26 -67 -2 -1 -38 42 -81 96 -160 202 -257 290 -317 290 -61 0 -139 -85 -162 -175 -7 -27 -13 -51 -14 -53 -1 -2 -58 52 -126 120 -124 124 -180 163 -252 175 -49 8 -80 -2 -121 -39 -49 -42 -74 -96 -94 -196 l-17 -84 -29 24 c-55 46 -107 68 -162 68 -50 0 -54 2 -103 54 -66 70 -142 122 -201 137 -127 34 -262 -87 -300 -269 -17 -85 -6 -154 40 -247 76 -152 205 -280 360 -358 76 -38 92 -42 157 -42 58 0 78 4 101 21 29 22 42 69 24 87 -7 7 0 20 25 41 29 25 37 40 41 77 7 59 -26 190 -71 286 -19 39 -32 74 -28 77 11 11 43 6 80 -14 67 -35 72 -44 92 -137 61 -292 286 -709 500 -925 64 -65 112 -104 144 -119 l48 -21 22 21 c18 18 21 33 20 99 -1 182 -110 420 -315 692 -48 63 -120 150 -160 193 l-72 79 -1 86 c-1 129 35 182 120 182 33 0 53 -8 91 -37 93 -71 193 -168 193 -188 0 -30 52 -127 105 -195 67 -87 183 -221 211 -242 46 -37 182 -32 214 7 9 11 6 25 -17 67 -31 58 -195 234 -277 297 -49 38 -54 47 -66 100 -21 101 7 128 79 74 133 -100 313 -268 401 -378 114 -140 223 -249 264 -265 43 -16 72 7 80 64 9 61 -2 85 -137 284 -144 212 -182 306 -141 347 65 64 318 -135 513 -405 l83 -115 -38 -3 c-22 -2 -72 1 -111 8 -40 6 -77 9 -82 6 -33 -21 89 -215 164 -261 44 -27 57 -30 155 -33 105 -4 107 -5 123 -32 41 -69 109 -147 145 -168 64 -36 162 -28 162 14 0 6 -29 49 -64 95 -36 46 -62 87 -60 91 3 4 25 8 48 8 66 0 71 16 30 86 -70 115 -147 214 -163 210 -9 -3 -47 -6 -85 -8 l-69 -3 -69 120 c-89 157 -128 264 -128 354 0 76 9 91 57 91 46 0 113 -36 226 -120 82 -62 96 -77 102 -108 15 -80 122 -249 220 -347 96 -95 207 -133 255 -85 55 55 -7 176 -181 356 -54 56 -101 113 -104 126 -4 14 -5 44 -3 68 3 38 8 48 38 68 66 44 168 14 296 -88 50 -40 63 -56 69 -87 22 -119 173 -314 322 -413 128 -85 265 -112 338 -64 29 19 43 60 26 77 -16 16 -14 37 3 37 8 0 24 12 35 26 41 53 22 197 -45 343 -18 40 -31 78 -28 83 16 25 164 -47 164 -80 0 -58 189 -320 269 -372 66 -44 144 -40 171 10 14 27 3 46 -83 145 -137 158 -196 260 -167 288 12 13 34 -9 215 -207 149 -165 370 -336 437 -339 30 -2 35 2 55 43 12 25 25 65 28 91 6 42 4 48 -34 95 -22 27 -69 83 -103 126 -119 144 -166 253 -124 284 56 41 224 -83 466 -343 269 -289 265 -284 279 -333 18 -62 77 -120 123 -120 55 0 78 23 78 80 0 26 12 92 26 146 35 130 31 230 -11 318 -33 69 -149 196 -232 253 l-56 38 44 3 c82 6 187 -41 316 -142 39 -30 73 -52 77 -49 3 4 6 23 6 44 0 33 -7 43 -77 107 -110 98 -204 167 -287 210 -64 33 -79 36 -151 37 -95 0 -143 -20 -218 -93 -56 -54 -84 -102 -93 -161 l-7 -41 -76 72 c-132 127 -223 200 -279 226 -49 22 -56 23 -89 11 -58 -22 -78 -59 -77 -137 1 -45 8 -83 23 -115 19 -43 107 -202 164 -296 l20 -33 -22 12 c-58 30 -191 164 -289 288 -112 143 -192 232 -209 232 -21 0 -61 -41 -81 -83 -11 -24 -26 -71 -32 -105 -7 -34 -15 -62 -17 -62 -3 0 -22 14 -43 30 -52 41 -101 60 -156 60 -45 0 -51 3 -123 74 -150 145 -253 161 -364 58 -48 -46 -107 -146 -107 -184 0 -10 -1 -18 -3 -18 -2 0 -53 49 -113 108 -186 185 -300 218 -395 115 -47 -50 -89 -157 -89 -227 0 -28 -6 -23 -107 76 -180 174 -294 248 -386 248 -42 0 -54 -5 -82 -33z m-2129 -237 c93 -47 98 -53 85 -91 -28 -81 -6 -194 63 -331 24 -49 39 -85 33 -81 -69 40 -212 140 -249 172 -65 58 -85 95 -108 198 -23 104 -18 130 24 149 48 21 88 17 152 -16z m3652 1 c97 -50 95 -48 83 -118 -16 -83 5 -181 63 -295 24 -49 40 -88 37 -88 -4 0 -52 30 -106 66 -105 69 -183 138 -215 189 -23 38 -55 193 -47 227 14 53 100 62 185 19z m1761 -71 c22 -11 53 -36 69 -56 44 -54 56 -108 49 -227 -12 -188 5 -188 -177 -3 l-158 160 35 12 c42 15 66 36 105 92 16 23 31 42 34 42 3 0 22 -9 43 -20z m-4544 -585 c94 -140 166 -290 173 -355 5 -57 -3 -62 -47 -24 -80 67 -219 333 -271 519 l-19 70 45 -50 c25 -27 79 -99 119 -160z"/>
 <path d="M10917 5086 c-14 -13 -29 -36 -33 -51 -10 -40 23 -113 77 -167 43 -43 53 -48 91 -48 55 0 84 20 99 69 10 32 8 44 -11 89 -12 29 -41 69 -66 92 -37 34 -50 40 -87 40 -33 0 -51 -6 -70 -24z"/>
 <path d="M3059 3359 c-5 -18 -7 -1220 -2 -1421 l6 -258 46 -26 c60 -35 354 -253 364 -270 4 -8 13 -14 19 -14 6 0 34 -21 62 -47 28 -27 94 -86 146 -133 178 -160 391 -385 565 -595 22 -27 55 -66 73 -86 17 -20 32 -41 32 -47 0 -6 6 -15 13 -19 7 -4 48 -54 91 -111 42 -56 81 -100 85 -97 5 2 -15 53 -44 112 -29 60 -70 144 -90 188 -21 44 -77 161 -125 260 -96 197 -234 482 -256 530 -7 17 -53 113 -102 215 -111 229 -198 412 -222 465 -11 22 -59 123 -108 225 -146 302 -208 431 -242 505 -18 39 -65 138 -105 220 -40 83 -93 193 -119 245 -25 53 -46 103 -46 111 0 14 -38 58 -41 48z"/>
 <path d="M2372 3198 c-7 -7 -12 -18 -12 -25 0 -7 -13 -39 -29 -70 -16 -32 -37 -76 -47 -98 -20 -48 -72 -159 -124 -270 -21 -44 -48 -102 -60 -130 -25 -56 -102 -218 -190 -400 -32 -66 -66 -138 -75 -160 -17 -37 -44 -95 -197 -415 -32 -69 -65 -138 -73 -155 -32 -71 -82 -178 -135 -290 -32 -66 -68 -142 -80 -170 -27 -62 -73 -158 -190 -398 -101 -207 -110 -264 -20 -125 68 107 268 374 309 413 17 17 31 35 31 42 0 16 379 393 395 393 8 0 18 6 22 13 12 19 119 107 130 107 6 0 17 7 24 16 25 30 192 137 287 184 l62 30 0 755 c0 414 -4 756 -8 759 -5 3 -14 0 -20 -6z"/>
 </g>

</svg>