<!DOCTYPE svg PUBLIC "-//W3C//DTD SVG 20010904//EN" "http://www.w3.org/TR/2001/REC-SVG-20010904/DTD/svg10.dtd">
<svg version="1.0" xmlns="http://www.w3.org/2000/svg" width="367px" height="494px" viewBox="0 0 3670 4940" preserveAspectRatio="xMidYMid meet">
<g id="layer1" fill="#00549b" stroke="none">
 <path d="M1812 4243 c-6 -10 -332 -686 -725 -1503 -393 -817 -738 -1533 -767 -1592 -29 -59 -50 -114 -47 -123 6 -13 40 -15 250 -15 184 0 247 3 255 13 5 6 57 118 115 247 58 129 257 568 442 975 186 407 346 760 357 785 43 101 132 280 139 280 6 0 523 -1102 962 -2050 l104 -225 248 -3 c137 -1 252 1 257 6 4 4 -269 575 -608 1268 -339 692 -692 1414 -785 1604 -92 190 -173 346 -178 348 -5 2 -14 -5 -19 -15z"/>
 <path d="M1585 2648 c-3 -7 -4 -359 -3 -783 l3 -770 235 0 234 0 1 780 0 780 -233 3 c-181 2 -234 0 -237 -10z"/>
 <path d="M1755 936 c-67 -21 -98 -42 -148 -95 -72 -77 -91 -127 -91 -241 -1 -82 3 -102 25 -151 35 -73 85 -128 151 -165 46 -25 63 -29 128 -29 128 1 223 65 284 195 78 167 4 386 -157 464 -65 31 -139 40 -192 22z"/>
 </g>
<g id="layer2" fill="#f37d2f" stroke="none">
 <path d="M1608 4835 c-526 -72 -990 -381 -1273 -850 -326 -539 -314 -1274 28 -1797 69 -106 207 -280 220 -275 9 3 197 393 197 410 0 6 -17 37 -39 71 -88 140 -153 299 -187 456 -27 128 -25 390 4 527 43 199 118 364 239 524 183 243 455 415 768 485 113 25 363 30 486 9 331 -55 627 -232 825 -493 86 -114 187 -318 218 -443 93 -366 45 -723 -134 -1015 -83 -134 -86 -99 26 -325 54 -109 104 -199 111 -199 17 0 110 113 185 225 443 659 384 1517 -145 2116 -288 325 -686 531 -1119 578 -126 14 -288 12 -410 -4z"/>
 <path d="M2036 1782 c0 -257 1 -512 2 -568 l2 -100 87 -60 c273 -185 566 -471 816 -796 134 -175 141 -161 33 64 -344 717 -786 1642 -847 1770 -41 87 -78 158 -84 158 -7 0 -10 -162 -9 -468z"/>
 <path d="M1536 2053 c-36 -81 -312 -669 -687 -1462 -82 -173 -146 -318 -143 -323 11 -17 22 -6 63 57 208 321 481 594 754 753 l77 45 0 508 c0 403 -3 509 -13 509 -7 0 -30 -39 -51 -87z"/>
 </g>
<g id="layer3" fill="#ffffff" stroke="none">
 <path d="M1510 4925 c-240 -28 -501 -133 -733 -295 -121 -85 -372 -336 -457 -458 -184 -263 -278 -505 -305 -787 -19 -190 -19 -349 0 -545 32 -344 156 -625 410 -928 l86 -102 -176 -363 c-161 -335 -175 -368 -175 -418 0 -49 4 -59 33 -87 l33 -32 300 0 300 0 31 33 c21 21 72 122 150 297 349 779 468 1032 471 1003 3 -34 -50 -154 -380 -853 -119 -250 -266 -563 -328 -695 -62 -132 -139 -293 -171 -357 -50 -99 -59 -126 -59 -171 0 -47 4 -57 33 -85 28 -27 40 -32 83 -32 45 0 54 4 86 38 21 20 67 84 103 141 186 294 392 518 615 670 120 82 122 82 53 9 -72 -79 -98 -139 -108 -254 -9 -101 7 -210 41 -277 37 -71 139 -171 209 -203 53 -24 64 -26 183 -22 151 4 165 10 268 110 51 49 80 88 100 131 28 59 29 69 29 202 0 149 -8 187 -51 251 -14 20 -24 38 -22 39 9 9 212 -167 339 -294 142 -143 251 -270 379 -441 108 -145 114 -150 184 -150 51 0 64 4 88 27 24 23 28 34 28 84 0 53 -11 79 -161 390 -89 184 -179 372 -201 419 l-39 85 38 -38 39 -37 295 0 295 0 32 33 c28 29 32 40 32 88 0 52 -12 81 -173 410 l-174 354 60 65 c183 199 350 510 405 755 55 242 58 680 5 925 -33 158 -125 378 -220 527 -70 111 -161 219 -299 353 -158 153 -256 227 -407 306 -215 112 -358 158 -557 179 -160 18 -490 18 -640 0z m508 -106 c139 -15 231 -35 363 -79 835 -277 1324 -1136 1138 -1999 -40 -185 -131 -401 -237 -566 -53 -83 -170 -235 -180 -235 -5 0 -50 85 -101 189 -106 215 -104 181 -21 315 179 292 227 649 134 1015 -31 125 -132 329 -218 442 -208 275 -510 458 -845 514 -123 21 -373 16 -486 -9 -317 -71 -596 -249 -788 -505 -121 -160 -196 -326 -239 -524 -29 -137 -31 -399 -4 -527 35 -160 113 -347 199 -475 l34 -49 -80 -166 c-43 -91 -85 -180 -93 -199 l-14 -34 -61 74 c-239 292 -373 624 -398 991 -74 1064 838 1943 1897 1827z m-356 -617 c-519 -1083 -828 -1722 -834 -1722 -11 0 -91 163 -122 248 -67 186 -83 398 -46 582 93 458 380 787 808 930 70 23 194 54 234 59 4 1 -14 -43 -40 -97z m380 83 c231 -48 450 -158 610 -305 246 -225 414 -654 379 -964 -13 -118 -41 -230 -82 -334 -40 -101 -99 -206 -110 -195 -8 8 -787 1594 -855 1741 -18 39 -29 72 -24 72 5 0 42 -7 82 -15z m145 -778 c194 -397 544 -1112 777 -1589 l424 -868 -239 0 -240 0 -23 53 c-32 71 -824 1772 -945 2026 -53 113 -101 206 -108 208 -14 5 -71 -105 -167 -319 -35 -79 -236 -523 -448 -988 -211 -465 -399 -880 -418 -923 l-34 -77 -238 0 c-223 0 -239 1 -234 18 3 9 126 267 274 572 147 305 490 1017 762 1583 272 565 497 1027 500 1027 3 -1 164 -326 357 -723z m-292 -594 c32 -71 60 -131 62 -135 2 -5 -54 -8 -125 -8 l-130 0 61 135 c33 74 63 135 67 135 3 0 33 -57 65 -127z m145 -474 l0 -201 76 -162 c42 -88 234 -489 427 -891 475 -992 480 -1001 469 -990 -5 6 -39 49 -76 97 -223 290 -544 602 -793 772 l-71 48 -232 -1 c-164 -2 -236 1 -246 10 -11 9 -28 3 -83 -29 -226 -135 -463 -357 -648 -607 -41 -55 -83 -111 -94 -125 l-19 -25 14 30 c7 17 84 179 169 360 85 182 249 530 365 775 115 245 231 491 256 548 l46 102 0 245 0 245 220 0 220 0 0 -201z m390 -674 c143 -307 259 -560 257 -562 -2 -1 -53 102 -114 230 -61 127 -179 374 -262 548 -83 174 -151 324 -151 334 0 10 2 16 5 14 2 -3 121 -256 265 -564z m319 -690 c0 -5 -6 1 -14 15 -8 14 -14 30 -14 35 0 6 6 -1 14 -15 8 -14 14 -29 14 -35z m-802 -181 c105 -51 166 -159 166 -299 1 -102 -33 -183 -103 -249 -117 -110 -309 -94 -407 32 -54 70 -76 144 -70 237 5 94 29 155 83 215 88 97 212 121 331 64z"/>
 </g>

</svg>