<!DOCTYPE svg PUBLIC "-//W3C//DTD SVG 20010904//EN" "http://www.w3.org/TR/2001/REC-SVG-20010904/DTD/svg10.dtd">
<svg version="1.0" xmlns="http://www.w3.org/2000/svg" width="1500px" height="741px" viewBox="0 0 15000 7410" preserveAspectRatio="xMidYMid meet">
<g id="layer1" fill="#fefdfd" stroke="none">
 <path d="M2520 7295 c-8 -2 -58 -9 -110 -15 -107 -13 -220 -34 -296 -56 -28 -7 -59 -14 -70 -14 -10 0 -32 -7 -48 -15 -15 -8 -36 -15 -45 -15 -9 0 -29 -7 -45 -15 -15 -8 -35 -15 -43 -15 -8 0 -27 -6 -41 -14 -15 -8 -47 -22 -72 -31 -41 -16 -288 -136 -328 -160 -494 -293 -892 -750 -1110 -1275 -6 -14 -20 -47 -31 -74 -12 -27 -21 -56 -21 -65 0 -9 -4 -21 -9 -26 -6 -6 -15 -30 -21 -55 -24 -94 -45 -179 -71 -290 -12 -50 -24 -161 -39 -350 -19 -237 16 -586 84 -835 9 -33 21 -78 27 -100 6 -22 14 -44 20 -50 5 -5 9 -18 9 -28 0 -10 6 -33 14 -50 7 -18 21 -52 31 -77 19 -46 137 -288 158 -325 73 -124 219 -323 315 -432 74 -83 105 -93 141 -47 12 15 21 30 21 35 0 11 63 146 176 375 52 106 94 201 94 211 0 11 -13 38 -28 59 -36 50 -142 228 -164 277 -18 37 -34 74 -59 132 -21 51 -48 129 -49 142 0 6 -5 24 -12 40 -32 76 -67 296 -75 470 -7 173 27 437 73 566 8 20 14 46 14 56 0 10 7 32 15 47 8 16 15 37 15 46 0 9 4 19 9 22 5 3 12 18 16 33 6 27 92 208 118 248 196 315 386 510 659 678 90 56 250 137 270 137 7 0 22 6 33 13 11 7 54 23 95 36 41 12 84 26 95 31 27 10 148 36 261 55 193 32 509 15 714 -39 30 -8 75 -20 100 -26 25 -7 59 -18 77 -26 17 -8 36 -14 42 -14 6 0 19 -4 29 -9 9 -6 37 -19 62 -30 420 -184 756 -500 950 -891 69 -141 78 -160 86 -193 3 -15 10 -30 15 -33 5 -3 9 -14 9 -26 0 -11 6 -34 14 -51 32 -73 61 -219 82 -419 16 -147 16 -168 1 -315 -20 -193 -49 -340 -83 -420 -8 -17 -14 -40 -14 -51 0 -12 -4 -23 -9 -26 -5 -3 -12 -18 -15 -32 -9 -35 -93 -210 -125 -259 -14 -22 -33 -55 -43 -73 -10 -18 -32 -51 -48 -74 -51 -70 -46 -87 96 -377 69 -141 135 -276 147 -301 18 -37 27 -46 53 -48 28 -3 39 5 97 70 94 105 222 280 292 400 67 114 148 279 190 388 10 25 24 59 31 77 8 17 14 40 14 50 0 10 4 23 9 28 10 10 18 40 46 155 7 30 18 75 24 100 40 169 46 244 46 555 0 319 -5 370 -51 575 -37 162 -106 370 -171 510 -57 123 -72 153 -103 205 -16 28 -34 59 -39 70 -17 34 -163 240 -225 317 -93 115 -303 317 -433 415 -120 91 -210 153 -220 153 -3 0 -24 12 -47 28 -36 24 -264 139 -321 163 -11 4 -42 17 -69 28 -27 12 -54 21 -61 21 -7 0 -26 7 -41 15 -16 8 -36 15 -45 15 -9 0 -30 7 -45 15 -16 8 -37 15 -48 15 -10 0 -39 6 -65 14 -68 22 -135 35 -231 47 -47 6 -116 14 -155 19 -64 8 -459 12 -495 5z m455 -75 c39 -5 108 -13 155 -19 96 -12 163 -25 231 -47 26 -8 55 -14 65 -14 11 0 32 -7 48 -15 15 -8 36 -15 45 -15 9 0 29 -7 45 -15 15 -8 34 -15 41 -15 7 0 34 -9 61 -21 27 -11 58 -24 69 -28 57 -24 285 -139 321 -163 23 -16 45 -28 49 -28 4 0 24 -13 45 -30 21 -16 41 -30 45 -30 3 0 52 -35 108 -77 118 -90 379 -346 457 -448 29 -38 56 -72 60 -75 6 -5 112 -163 137 -205 38 -65 175 -351 197 -410 70 -193 106 -328 143 -530 14 -80 18 -154 18 -370 0 -269 -7 -351 -46 -515 -6 -25 -17 -70 -24 -100 -28 -115 -36 -145 -46 -155 -5 -5 -9 -18 -9 -28 0 -10 -6 -33 -14 -50 -7 -18 -21 -52 -31 -77 -16 -41 -166 -348 -190 -388 -5 -9 -40 -62 -76 -117 -62 -94 -88 -128 -159 -215 -16 -19 -37 -46 -48 -59 l-19 -24 -136 274 -136 274 43 65 c87 130 148 242 187 345 13 33 27 64 31 70 4 5 8 18 8 28 0 10 6 33 14 50 48 113 95 413 95 612 1 197 -48 517 -95 622 -8 17 -14 40 -14 51 0 12 -4 23 -9 26 -5 3 -12 18 -15 33 -23 97 -210 428 -305 538 -113 131 -415 405 -446 405 -4 0 -22 12 -40 26 -45 34 -157 94 -275 145 -25 11 -53 24 -62 30 -10 5 -23 9 -29 9 -6 0 -25 6 -42 14 -18 8 -52 19 -77 26 -25 6 -70 18 -100 26 -30 8 -107 23 -170 34 -149 25 -485 28 -624 5 -113 -19 -234 -45 -261 -55 -11 -5 -54 -19 -95 -31 -41 -13 -84 -29 -95 -36 -11 -7 -26 -13 -33 -13 -18 0 -199 -91 -249 -124 -21 -14 -41 -26 -46 -26 -9 0 -141 -99 -221 -164 -85 -71 -191 -178 -260 -264 -57 -71 -90 -119 -183 -267 -25 -39 -112 -221 -118 -248 -4 -15 -11 -30 -16 -33 -5 -3 -9 -13 -9 -22 0 -9 -7 -30 -15 -46 -8 -15 -15 -37 -15 -47 0 -10 -6 -36 -14 -56 -20 -58 -44 -175 -62 -310 -31 -235 3 -660 64 -806 7 -16 12 -34 12 -40 1 -13 28 -91 49 -142 7 -16 19 -43 26 -60 27 -64 52 -113 93 -182 23 -39 42 -75 42 -78 0 -4 13 -24 28 -44 47 -60 47 -66 -6 -175 -63 -131 -120 -250 -168 -354 l-38 -84 -31 34 c-29 33 -62 73 -126 153 -28 36 -147 210 -176 260 -21 36 -139 279 -158 325 -10 25 -24 59 -31 77 -8 17 -14 40 -14 50 0 10 -4 23 -9 28 -6 6 -14 28 -20 50 -6 22 -18 67 -27 100 -73 269 -108 673 -75 875 6 36 11 82 11 104 0 42 15 116 65 316 31 127 37 145 46 155 5 5 9 17 9 26 0 9 9 38 21 65 11 27 25 60 31 74 23 57 38 89 73 160 39 81 46 93 88 158 15 24 27 45 27 48 0 11 94 149 107 157 7 4 13 13 13 19 0 6 20 34 44 62 24 28 56 67 72 86 38 45 269 276 314 314 88 72 249 186 342 241 40 24 287 144 328 160 25 9 57 23 72 31 14 8 33 14 41 14 8 0 28 7 43 15 16 8 36 15 45 15 9 0 30 7 45 15 16 8 38 15 48 15 11 0 42 7 70 14 76 22 189 43 296 56 52 6 102 13 110 15 35 7 351 3 415 -5z"/>
 <path d="M2718 6419 c-10 -5 -38 -53 -64 -107 -57 -120 -154 -320 -249 -517 -40 -82 -93 -193 -118 -245 -42 -89 -84 -177 -274 -570 -42 -85 -94 -195 -118 -245 -24 -49 -77 -160 -118 -245 -96 -200 -201 -416 -267 -555 -29 -60 -85 -177 -125 -260 -92 -190 -197 -409 -265 -550 -50 -105 -117 -244 -275 -570 -40 -82 -99 -204 -130 -270 -72 -150 -198 -410 -281 -580 -63 -128 -76 -179 -52 -203 9 -9 111 -12 398 -12 333 0 389 2 408 16 12 8 22 19 22 24 0 8 25 64 91 208 16 34 29 64 29 67 0 3 14 36 31 73 65 137 92 198 105 227 13 31 55 125 106 235 16 36 36 79 43 95 7 17 28 62 45 100 77 167 92 202 105 230 16 36 65 145 107 235 17 36 36 79 44 95 33 75 76 168 118 257 25 53 46 99 46 102 0 3 20 47 44 98 70 150 106 228 106 233 0 2 20 46 44 97 72 152 106 228 106 233 0 3 18 42 39 88 62 131 111 237 111 242 0 4 46 106 90 200 15 33 40 87 55 120 15 33 37 81 49 106 l21 45 19 -40 c10 -23 27 -61 38 -86 12 -25 38 -81 58 -125 93 -199 109 -234 135 -290 15 -33 46 -100 70 -150 52 -109 103 -220 140 -300 30 -66 58 -127 130 -280 26 -55 60 -127 75 -160 42 -92 84 -181 133 -285 25 -52 57 -122 72 -155 29 -64 71 -155 140 -300 23 -49 53 -112 65 -140 12 -27 40 -86 60 -130 93 -199 109 -234 135 -290 15 -33 46 -100 70 -150 59 -123 98 -208 131 -285 16 -35 47 -100 69 -145 l40 -80 394 -3 c282 -1 398 1 407 9 26 22 14 68 -60 215 -78 157 -260 529 -391 799 -80 165 -220 451 -450 920 -73 149 -166 340 -207 425 -73 148 -208 425 -473 965 -67 138 -162 331 -210 430 -48 99 -147 302 -220 450 -253 514 -315 644 -315 657 0 34 -46 49 -82 27z m268 -604 c106 -214 233 -475 284 -580 106 -218 201 -412 433 -885 90 -184 199 -407 242 -495 93 -193 199 -409 418 -855 91 -184 200 -407 242 -495 149 -307 258 -531 342 -700 47 -93 89 -180 94 -192 l9 -23 -335 0 -334 0 -39 83 c-22 45 -50 105 -62 132 -40 88 -81 178 -125 270 -24 50 -55 117 -70 150 -45 99 -61 135 -118 255 -30 63 -65 138 -77 165 -12 28 -35 77 -50 110 -78 164 -139 295 -160 340 -43 94 -82 180 -127 275 -25 52 -58 122 -73 155 -15 33 -42 92 -60 130 -18 39 -52 111 -75 160 -24 50 -55 117 -70 150 -36 80 -88 190 -140 300 -24 50 -55 117 -70 150 -45 99 -61 135 -118 255 -30 63 -64 136 -76 163 -76 171 -94 197 -137 197 -22 0 -47 -43 -129 -225 -15 -33 -40 -87 -55 -120 -47 -101 -90 -196 -90 -201 0 -3 -20 -47 -44 -97 -58 -122 -106 -227 -106 -233 0 -3 -21 -49 -46 -102 -94 -199 -104 -222 -104 -227 0 -4 -21 -50 -46 -103 -94 -199 -104 -222 -104 -227 0 -4 -21 -50 -46 -103 -42 -89 -85 -182 -118 -257 -8 -16 -27 -59 -44 -95 -42 -90 -91 -199 -107 -235 -13 -28 -28 -63 -105 -230 -17 -38 -38 -83 -45 -100 -7 -16 -27 -59 -43 -95 -51 -110 -93 -204 -106 -235 -13 -29 -40 -90 -105 -227 -17 -37 -31 -70 -31 -73 0 -3 -13 -33 -29 -67 -16 -35 -45 -98 -64 -141 l-36 -77 -340 0 -340 0 90 183 c98 198 144 293 239 492 34 72 109 227 167 345 118 243 168 347 243 505 29 61 97 202 152 315 128 264 174 360 238 495 29 61 97 202 152 315 119 247 171 354 231 480 24 52 85 178 134 280 109 223 199 412 260 540 25 52 85 176 133 275 90 186 177 366 225 469 l28 59 25 -54 c14 -30 112 -229 218 -444z"/>
 <path d="M6346 6250 c-152 -19 -237 -51 -286 -106 -26 -30 -30 -42 -30 -92 0 -72 33 -144 95 -211 56 -59 110 -81 206 -81 79 0 95 12 86 67 l-6 36 212 -6 c234 -7 364 -24 479 -60 90 -29 211 -94 205 -110 -8 -25 -105 -88 -177 -116 -41 -16 -133 -40 -205 -55 -160 -31 -232 -54 -360 -115 -104 -49 -158 -96 -171 -147 -10 -37 2 -178 21 -249 54 -206 183 -328 442 -415 195 -65 455 -98 683 -85 181 9 252 27 308 78 20 18 22 30 22 106 0 69 -5 96 -24 137 -30 66 -67 92 -196 143 -58 23 -144 64 -191 91 -116 67 -159 65 -159 -7 0 -37 40 -88 105 -136 l40 -29 -80 7 c-234 20 -420 62 -551 125 -75 36 -144 94 -144 121 0 15 51 34 215 79 402 111 641 256 686 418 18 65 6 178 -27 248 -41 89 -150 192 -256 242 -90 44 -234 83 -393 107 -118 19 -451 28 -549 15z m509 -85 c343 -52 542 -153 617 -315 49 -104 46 -168 -10 -253 -68 -102 -307 -221 -613 -306 -234 -64 -249 -74 -249 -153 0 -44 4 -53 47 -99 113 -121 392 -201 748 -215 167 -7 205 0 205 39 0 13 -5 28 -12 35 -17 17 -7 15 49 -9 109 -46 115 -51 139 -103 14 -31 24 -70 24 -98 0 -45 -2 -49 -37 -67 -153 -77 -575 -58 -866 39 -123 42 -239 104 -292 157 -72 72 -125 202 -140 341 -9 87 11 112 138 172 130 62 201 85 362 117 209 41 315 89 395 181 69 77 55 106 -91 186 -152 83 -321 110 -699 111 -297 0 -320 -3 -320 -50 0 -33 -12 -31 -54 6 -35 30 -96 138 -96 168 0 60 105 108 286 131 93 12 346 4 469 -15z"/>
 <path d="M10245 6163 c-38 -10 -73 -43 -95 -89 -19 -39 -22 -57 -18 -127 3 -45 9 -91 13 -101 5 -11 -54 35 -130 102 -162 142 -213 172 -298 172 -56 0 -62 -2 -98 -39 l-39 -39 0 -83 0 -83 -66 72 c-87 95 -133 122 -211 122 -54 0 -63 -3 -101 -35 -22 -20 -53 -60 -67 -89 l-26 -53 -62 65 c-69 73 -164 146 -215 168 -51 21 -160 18 -198 -5 -59 -36 -104 -111 -125 -211 l-11 -50 -29 21 c-17 12 -60 26 -99 32 -65 10 -71 13 -140 77 -96 91 -155 120 -244 120 -44 0 -81 -6 -104 -17 -57 -27 -120 -97 -155 -171 -31 -64 -32 -72 -32 -192 0 -125 0 -125 37 -196 78 -151 223 -296 372 -372 63 -31 82 -36 164 -40 102 -5 141 5 172 46 11 14 20 40 20 59 0 23 9 46 25 65 22 26 25 39 25 106 0 85 -18 172 -49 245 -22 52 -21 54 13 32 18 -12 27 -32 36 -83 20 -110 77 -268 150 -417 225 -461 538 -777 640 -647 20 25 22 35 18 137 -4 89 -11 128 -36 202 -71 210 -210 430 -426 676 -86 98 -86 98 -86 153 0 66 20 117 54 139 23 15 28 15 58 1 19 -9 75 -52 125 -96 77 -68 92 -87 103 -126 18 -63 89 -169 197 -295 138 -160 129 -153 236 -157 119 -4 160 14 165 71 2 26 -5 52 -24 88 -33 60 -168 206 -259 280 -48 39 -68 63 -77 91 -22 75 -9 67 194 -111 77 -67 159 -150 205 -208 95 -119 195 -227 247 -265 47 -34 111 -38 147 -9 19 15 24 30 27 84 2 37 1 78 -2 92 -4 14 -59 103 -122 197 -142 209 -194 318 -151 318 37 0 182 -105 273 -198 52 -53 204 -244 204 -258 0 -6 -21 -4 -123 12 -47 8 -67 -8 -67 -53 0 -83 127 -264 209 -296 21 -9 83 -19 138 -23 l99 -7 24 -41 c37 -65 117 -143 166 -162 55 -21 145 -15 174 11 38 34 21 87 -58 180 l-25 30 34 3 c42 4 59 18 59 47 0 26 -86 170 -153 256 l-49 62 -82 -7 -82 -7 -63 110 c-93 163 -141 298 -127 356 12 49 70 26 228 -92 63 -46 88 -71 88 -87 0 -63 121 -254 227 -358 92 -90 129 -108 219 -108 68 0 74 2 98 31 63 75 5 205 -175 394 -112 118 -130 151 -104 191 32 49 101 44 192 -15 85 -55 133 -100 133 -125 0 -31 54 -140 105 -211 57 -80 175 -190 256 -238 91 -53 154 -70 254 -65 77 3 86 5 114 32 25 24 31 38 31 70 0 30 5 45 19 53 57 36 51 207 -12 363 l-25 61 31 -24 c17 -13 48 -56 69 -97 86 -165 228 -327 305 -350 56 -17 129 -5 159 25 18 18 24 35 24 69 0 40 -6 51 -52 103 -47 51 -43 49 38 -25 101 -92 228 -191 291 -229 33 -19 53 -23 95 -21 51 3 54 5 76 46 17 31 25 65 29 121 l6 77 -60 70 c-138 161 -213 272 -213 316 0 18 1 18 39 -1 90 -46 206 -149 383 -338 215 -229 258 -279 258 -299 0 -27 39 -91 70 -118 27 -22 41 -26 99 -26 82 0 101 15 101 79 0 24 11 84 24 135 32 120 40 197 27 275 -15 91 -51 158 -134 247 -70 75 -70 76 -31 56 44 -23 198 -134 208 -151 9 -15 49 -14 64 1 7 7 12 40 12 77 l0 66 -74 68 c-113 102 -233 188 -316 227 -67 31 -84 35 -160 35 -70 0 -94 -5 -135 -25 -63 -30 -168 -133 -185 -183 -8 -20 -17 -37 -21 -37 -3 0 -42 33 -85 73 -165 151 -223 187 -301 187 -104 0 -147 -60 -141 -196 3 -73 8 -91 45 -165 l42 -84 -41 45 c-22 25 -85 102 -139 172 -117 150 -138 168 -192 168 -32 0 -46 -6 -73 -35 -29 -31 -42 -61 -70 -163 -3 -10 -15 -6 -46 12 -25 14 -69 27 -103 32 -57 6 -64 10 -134 76 -92 88 -153 118 -241 118 -41 0 -79 -7 -105 -19 -49 -22 -117 -95 -147 -155 l-21 -45 -82 77 c-116 109 -181 146 -267 150 -37 3 -79 1 -93 -2 -60 -15 -128 -105 -155 -204 l-11 -43 -77 72 c-99 92 -191 162 -257 195 -52 25 -140 38 -180 27z m149 -103 c77 -40 161 -106 277 -217 89 -86 128 -109 143 -85 3 5 12 40 20 79 19 91 58 168 99 194 75 47 178 -2 334 -159 123 -124 135 -127 167 -36 25 69 55 120 88 151 28 26 89 53 120 53 44 0 127 -49 199 -118 71 -67 76 -70 136 -77 49 -5 77 -16 123 -46 33 -21 60 -41 60 -44 0 -3 -10 1 -22 9 -39 25 -95 30 -123 12 -32 -21 -32 -44 4 -114 63 -125 93 -279 61 -317 -8 -9 -24 -21 -37 -26 -26 -10 -32 -56 -11 -77 19 -19 -13 -43 -65 -49 -193 -22 -499 255 -551 499 -4 18 -31 45 -89 89 -106 80 -156 102 -232 103 -104 1 -155 -45 -155 -138 0 -69 12 -90 123 -205 126 -132 201 -251 184 -295 -9 -23 -64 -21 -112 5 -86 45 -211 195 -275 331 -17 35 -30 72 -30 84 0 25 -29 52 -140 134 -156 115 -235 137 -292 80 -30 -31 -30 -32 -26 -118 6 -109 39 -198 139 -370 l71 -124 89 3 88 3 34 -44 c44 -57 110 -161 105 -165 -1 -2 -23 -7 -48 -12 -68 -13 -66 -37 10 -135 71 -91 70 -112 -3 -84 -51 19 -85 52 -141 138 l-41 63 -95 7 c-121 10 -162 21 -205 60 -29 25 -105 136 -105 153 0 2 46 6 103 7 l102 3 3 28 c4 30 -37 93 -151 233 -106 132 -99 121 -74 120 34 -1 33 33 -6 147 -57 168 -59 209 -11 267 34 40 82 40 158 0z m-1590 -10 c65 -31 152 -105 234 -200 57 -67 78 -85 99 -85 24 0 28 5 42 65 25 101 77 170 129 170 52 0 132 -76 294 -280 94 -118 122 -145 144 -136 24 9 14 58 -42 190 -32 74 -49 130 -52 168 -4 51 -2 59 23 83 31 32 63 30 130 -10 38 -22 295 -241 295 -251 0 -2 -21 11 -47 30 -74 52 -108 66 -159 66 -67 0 -84 -18 -84 -91 0 -80 28 -138 153 -322 142 -208 152 -230 127 -278 -11 -19 -12 -19 -41 -2 -39 23 -134 123 -231 244 -85 106 -135 155 -295 292 -150 129 -183 145 -231 111 -19 -13 -22 -24 -22 -80 0 -92 16 -120 108 -198 131 -108 269 -272 248 -293 -11 -11 -101 -15 -128 -4 -32 12 -193 197 -258 297 -26 39 -53 93 -60 119 -11 40 -27 59 -118 140 -57 52 -119 101 -137 109 -42 20 -107 20 -145 1 -60 -31 -95 -134 -83 -247 6 -58 9 -63 91 -157 214 -244 354 -467 423 -672 32 -96 48 -215 32 -243 -8 -14 -14 -13 -56 14 -71 45 -130 103 -206 204 -193 254 -358 595 -401 829 -10 53 -18 72 -41 91 l-29 25 28 3 c25 3 27 7 34 66 8 77 23 124 54 179 42 73 99 90 178 53z m3984 -14 c53 -28 106 -71 245 -199 80 -74 101 -88 124 -85 25 3 29 8 35 51 17 123 147 239 268 239 67 0 172 -50 290 -138 108 -81 183 -154 94 -90 -81 57 -159 88 -234 94 -84 6 -114 -8 -108 -48 4 -25 2 -27 -13 -19 -37 20 -57 10 -99 -50 -32 -46 -52 -63 -91 -79 -78 -33 -73 -43 115 -235 145 -150 167 -168 192 -165 28 3 29 5 41 88 27 198 14 284 -56 363 l-46 52 45 -34 c213 -161 268 -303 205 -526 -13 -49 -25 -111 -25 -137 0 -45 -2 -48 -26 -48 -14 0 -34 5 -45 10 -20 11 -59 79 -59 104 0 20 -44 71 -266 308 -196 208 -275 280 -380 343 -103 62 -184 44 -184 -41 0 -76 47 -157 190 -329 90 -107 91 -109 84 -149 -7 -45 -30 -96 -42 -96 -13 0 -102 59 -172 113 -121 94 -190 160 -307 294 -115 131 -137 148 -184 141 -21 -3 -24 -9 -27 -55 -2 -33 3 -63 12 -82 18 -35 110 -151 189 -240 45 -50 55 -67 46 -77 -15 -18 -63 -18 -98 1 -60 31 -203 220 -255 337 -14 31 -37 63 -53 73 l-28 19 29 6 c28 5 30 9 42 77 15 90 49 163 74 163 13 0 55 -47 122 -132 178 -230 349 -393 405 -386 49 5 41 37 -48 191 -124 213 -144 271 -118 344 9 27 37 50 62 52 4 1 29 -10 55 -23z m-4719 -23 c29 -15 84 -57 121 -94 63 -63 70 -67 126 -74 66 -8 104 -23 149 -59 l30 -25 -40 14 c-55 19 -79 18 -100 -5 -22 -25 -17 -53 28 -155 39 -87 64 -204 54 -248 -5 -16 -20 -33 -38 -43 -30 -15 -31 -18 -25 -64 6 -46 5 -48 -24 -60 -140 -58 -425 137 -548 374 -34 66 -37 77 -37 156 0 74 4 93 31 150 34 72 74 118 126 143 47 24 85 21 147 -10z m5456 -297 c53 -55 69 -112 59 -213 -3 -41 -10 -73 -13 -71 -4 2 -53 51 -109 109 l-101 106 27 20 c15 11 39 37 52 57 14 20 29 36 34 36 5 0 28 -20 51 -44z m-970 -196 c10 -11 16 -20 13 -20 -3 0 -13 9 -23 20 -10 11 -16 20 -13 20 3 0 13 -9 23 -20z"/>
 <path d="M11590 5920 c-47 -11 -80 -52 -80 -97 0 -19 9 -76 21 -124 25 -109 61 -159 176 -246 166 -125 252 -161 261 -110 2 10 -19 64 -46 120 -60 121 -80 206 -63 271 19 78 16 91 -36 124 -105 67 -154 80 -233 62z m140 -101 l57 -30 -5 -69 c-5 -74 11 -177 34 -222 8 -16 11 -28 7 -28 -17 0 -153 114 -176 148 -22 31 -39 84 -61 185 -6 25 20 47 56 47 17 0 56 -14 88 -31z"/>
 <path d="M8767 5443 c-38 -37 73 -336 194 -529 49 -77 130 -154 162 -154 39 0 50 23 44 91 -10 113 -172 400 -302 536 -56 58 -82 73 -98 56z m191 -315 c67 -111 130 -238 118 -238 -13 0 -176 293 -176 315 0 14 11 -1 58 -77z"/>
 <path d="M7936 5920 c-52 -16 -76 -48 -76 -102 0 -66 28 -185 52 -225 31 -52 143 -148 254 -219 153 -98 190 -79 115 58 -69 126 -84 187 -76 300 l7 97 -63 41 c-88 57 -145 70 -213 50z m142 -100 l52 -30 0 -99 c0 -87 9 -142 35 -205 7 -16 6 -17 -13 -7 -42 23 -143 113 -166 149 -14 20 -32 73 -42 116 -16 76 -16 80 2 93 29 21 75 15 132 -17z"/>
 <path d="M11230 5114 c-38 -35 -40 -39 -40 -96 0 -63 14 -99 62 -160 42 -53 87 -78 142 -78 92 0 136 44 136 136 0 64 -16 105 -68 164 -42 50 -84 70 -147 70 -38 0 -51 -6 -85 -36z m163 -72 c36 -34 67 -93 67 -127 0 -32 -33 -65 -64 -65 -48 0 -136 104 -136 162 0 68 75 85 133 30z"/>
 <path d="M12893 4200 c-143 -20 -302 -138 -368 -274 -60 -123 -69 -305 -24 -452 45 -146 203 -287 360 -323 66 -15 227 -13 292 4 183 48 323 195 347 366 14 94 13 252 -2 267 -9 9 -105 12 -370 12 -260 0 -358 3 -358 11 0 7 19 31 43 54 109 108 299 111 419 6 20 -17 44 -31 55 -31 29 0 153 132 153 163 0 31 -78 105 -147 140 -103 53 -265 76 -400 57z m257 -87 c64 -17 161 -67 186 -94 17 -19 16 -21 -15 -53 l-33 -34 -41 29 c-57 41 -126 59 -228 59 -116 0 -184 -25 -256 -93 -57 -53 -77 -98 -71 -157 l3 -35 373 -3 372 -2 0 -53 c-1 -244 -111 -396 -327 -452 -140 -37 -291 -2 -412 95 -199 160 -207 514 -15 689 125 114 291 152 464 104z"/>
 <path d="M12697 3623 c-4 -3 -7 -27 -7 -52 1 -205 309 -327 498 -197 66 46 104 120 100 195 l-3 56 -291 3 c-160 1 -293 -1 -297 -5z m508 -100 c-29 -69 -74 -104 -160 -123 -85 -19 -213 33 -255 103 -36 58 -40 57 205 57 l225 0 -15 -37z"/>
 <path d="M14122 4199 c-53 -9 -114 -35 -164 -71 l-28 -19 0 28 c0 16 -5 34 -12 41 -17 17 -239 17 -256 0 -17 -17 -17 -1369 0 -1386 17 -17 239 -17 256 0 9 9 12 74 12 230 l0 218 45 -35 c60 -45 130 -65 230 -65 94 0 178 20 249 58 67 37 165 136 199 203 70 140 75 368 11 509 -54 118 -166 227 -277 268 -64 24 -192 34 -265 21z m263 -108 c84 -42 156 -115 200 -204 115 -234 30 -518 -187 -626 -166 -83 -325 -60 -437 65 -37 43 -54 55 -72 52 l-24 -3 -3 -262 -2 -263 -70 0 -70 0 0 635 0 635 70 0 69 0 3 -62 c3 -57 5 -63 25 -66 15 -2 43 12 80 41 76 59 130 85 195 95 75 11 151 -2 223 -37z"/>
 <path d="M14103 4010 c-65 -14 -116 -45 -167 -100 -57 -65 -76 -124 -76 -241 0 -117 24 -182 93 -253 71 -71 119 -89 234 -84 106 4 145 21 214 91 66 67 92 136 93 247 1 109 -21 173 -80 239 -76 85 -199 125 -311 101z m175 -96 c166 -83 194 -320 52 -447 -79 -71 -168 -86 -257 -42 -190 95 -189 402 1 491 69 32 137 32 204 -2z"/>
 <path d="M9245 4188 c-3 -7 -4 -312 -3 -678 l3 -665 245 1 c283 1 371 13 487 70 134 65 245 202 300 369 37 116 44 313 14 437 -27 116 -78 213 -151 292 -119 126 -204 162 -430 176 -217 14 -460 13 -465 -2z m638 -92 c163 -45 291 -192 338 -386 20 -80 17 -289 -4 -369 -40 -147 -130 -278 -235 -342 -99 -59 -170 -72 -439 -77 l-233 -4 0 602 0 603 258 -6 c193 -4 272 -9 315 -21z"/>
 <path d="M9494 3990 c-54 -22 -54 -21 -54 -472 l0 -417 24 -28 c24 -28 26 -28 133 -27 174 2 274 36 370 127 90 85 133 199 133 357 0 166 -41 272 -142 365 -68 63 -117 82 -253 95 -111 12 -183 11 -211 0z m288 -84 c81 -18 138 -54 177 -113 52 -78 66 -135 65 -263 0 -131 -20 -201 -76 -275 -67 -88 -155 -124 -320 -132 l-108 -6 0 402 0 401 98 0 c53 0 127 -7 164 -14z"/>
 <path d="M6178 4173 c-22 -27 -508 -1244 -508 -1274 0 -45 14 -49 162 -49 132 0 138 1 151 23 8 12 88 203 178 424 90 222 167 403 170 403 3 0 81 -185 174 -410 93 -226 176 -417 185 -425 13 -12 46 -15 151 -15 138 0 159 5 159 40 0 25 -499 1262 -518 1283 -13 15 -34 17 -152 17 -118 0 -139 -2 -152 -17z m489 -653 l242 -600 -83 0 -82 0 -191 463 c-175 425 -192 462 -215 465 -13 2 -30 -3 -35 -10 -6 -7 -95 -215 -196 -463 l-186 -450 -81 -3 c-66 -2 -81 0 -78 11 2 8 109 278 238 601 l235 586 95 0 96 0 241 -600z"/>
 <path d="M7082 4178 c-17 -17 -17 -999 0 -1016 8 -8 51 -12 128 -12 77 0 120 4 128 12 17 17 17 999 0 1016 -8 8 -51 12 -128 12 -77 0 -120 -4 -128 -12z m198 -508 l0 -450 -70 0 -70 0 0 450 0 450 70 0 70 0 0 -450z"/>
 <path d="M7932 4178 c-15 -19 -505 -1239 -510 -1271 -8 -52 7 -57 159 -57 133 0 139 1 153 23 8 12 90 204 182 427 91 223 167 406 168 407 1 1 78 -182 170 -407 93 -225 175 -419 183 -430 13 -18 25 -20 152 -20 152 0 167 5 159 57 -5 32 -495 1252 -510 1271 -8 8 -51 12 -153 12 -102 0 -145 -4 -153 -12z m489 -658 c131 -327 239 -596 239 -597 0 -2 -37 -3 -82 -1 l-83 3 -177 430 c-217 528 -201 495 -233 495 -32 0 -16 33 -233 -495 l-177 -430 -84 -3 c-65 -2 -82 0 -78 10 2 7 106 265 230 573 124 308 230 573 236 588 l11 28 96 -3 95 -3 240 -595z"/>
 <path d="M8832 4178 c-17 -17 -17 -999 0 -1016 8 -8 51 -12 128 -12 77 0 120 4 128 12 17 17 17 999 0 1016 -8 8 -51 12 -128 12 -77 0 -120 -4 -128 -12z m198 -508 l0 -450 -70 0 -70 0 0 450 0 450 70 0 70 0 0 -450z"/>
 <path d="M10966 4168 c-18 -28 -446 -1255 -446 -1278 0 -34 21 -40 154 -40 102 0 133 3 146 15 10 9 77 188 151 400 129 369 134 382 146 351 6 -19 60 -191 119 -382 59 -192 114 -357 122 -366 13 -15 33 -18 127 -18 94 0 114 3 127 18 8 9 68 190 134 401 l118 383 13 -38 c159 -458 258 -733 271 -746 13 -15 34 -18 147 -18 134 0 155 5 155 41 0 23 -428 1249 -446 1277 -14 21 -21 22 -143 22 -91 0 -131 -4 -138 -12 -6 -7 -61 -180 -124 -385 -62 -205 -114 -371 -115 -370 -1 1 -52 169 -114 372 -62 204 -117 376 -122 383 -8 8 -48 12 -139 12 -122 0 -129 -1 -143 -22z m237 -96 c88 -293 242 -790 250 -799 5 -7 20 -13 32 -13 12 0 27 6 32 13 8 9 210 656 255 815 l9 33 82 -3 82 -3 202 -580 c112 -319 206 -588 209 -597 5 -16 -3 -18 -73 -18 l-79 0 -155 441 c-95 274 -160 446 -171 453 -13 8 -21 6 -35 -7 -12 -10 -67 -173 -153 -452 l-135 -435 -70 0 -70 0 -134 435 c-137 442 -153 481 -189 459 -10 -7 -77 -184 -171 -452 l-154 -442 -80 0 c-59 0 -78 3 -74 13 2 6 95 273 207 592 111 319 204 583 207 588 2 4 40 7 83 7 l79 0 14 -48z"/>
 <path d="M2367 4002 c-15 -17 -17 -58 -17 -379 0 -389 3 -360 -57 -493 -38 -82 -76 -165 -121 -260 -21 -47 -50 -107 -62 -135 -12 -27 -43 -93 -68 -145 -103 -218 -132 -279 -165 -350 -36 -76 -114 -242 -192 -405 -24 -49 -61 -128 -83 -175 -97 -208 -117 -250 -152 -325 -21 -44 -52 -111 -70 -150 -30 -65 -64 -137 -175 -370 -24 -49 -62 -130 -85 -180 -23 -49 -66 -140 -96 -200 -30 -61 -54 -122 -54 -136 0 -58 54 -66 94 -15 14 19 26 38 26 41 0 22 234 355 355 505 171 213 444 477 635 614 91 65 174 120 200 132 8 4 22 13 31 21 14 11 86 14 399 13 l383 0 60 -41 c441 -302 877 -731 1275 -1258 57 -75 113 -146 124 -158 36 -38 88 -25 88 21 0 12 -16 55 -36 96 -20 41 -76 156 -124 255 -48 99 -111 230 -140 290 -29 61 -84 175 -122 255 -88 181 -176 366 -235 490 -47 98 -116 243 -220 460 -33 69 -77 161 -98 205 -35 75 -79 166 -238 495 -36 74 -79 167 -97 205 -18 39 -66 140 -107 225 -73 151 -83 174 -99 215 -4 11 -8 153 -8 316 -1 277 -2 298 -20 318 -19 21 -26 21 -366 21 -323 0 -348 -1 -363 -18z m679 -99 c4 -26 4 -162 0 -301 -7 -248 -6 -255 15 -300 12 -26 54 -114 94 -197 40 -82 87 -181 105 -220 36 -79 93 -197 222 -465 50 -102 104 -214 120 -250 36 -77 89 -189 191 -400 41 -85 95 -198 120 -250 112 -237 145 -306 222 -465 45 -93 106 -219 135 -280 28 -60 72 -150 96 -199 25 -49 43 -90 41 -93 -2 -2 -17 13 -32 34 -16 21 -36 45 -44 54 -9 9 -41 47 -71 84 -85 105 -159 184 -365 390 -199 199 -256 252 -441 402 -134 109 -346 253 -373 253 -11 0 -23 -5 -26 -10 -4 -6 -123 -10 -325 -10 -273 0 -319 2 -324 15 -6 17 -71 21 -81 4 -4 -5 -17 -15 -28 -20 -12 -5 -35 -18 -52 -29 -16 -11 -37 -23 -45 -27 -36 -17 -243 -165 -282 -202 -9 -9 -47 -41 -84 -71 -140 -114 -361 -348 -499 -530 -84 -110 -92 -105 -31 16 42 84 77 159 141 299 15 33 54 116 87 185 33 69 68 143 78 165 42 92 106 227 160 340 32 66 75 156 95 200 98 208 121 259 177 375 82 173 112 237 138 295 12 28 47 102 77 165 54 115 60 128 106 230 60 134 57 104 57 496 l0 364 309 0 310 0 7 -47z m-1800 -3201 c-17 -16 -18 -16 -5 5 7 12 15 20 18 17 3 -2 -3 -12 -13 -22z"/>
 <path d="M7120 3058 c-52 -36 -73 -71 -78 -131 -5 -69 17 -120 69 -154 77 -51 158 -41 225 28 38 39 39 42 39 109 0 76 -15 107 -75 148 -25 16 -47 22 -90 22 -43 0 -65 -6 -90 -22z m131 -64 c38 -19 63 -73 50 -107 -13 -34 -58 -67 -91 -67 -32 0 -78 33 -90 66 -13 34 7 83 44 105 38 23 48 23 87 3z"/>
 <path d="M8868 3055 c-52 -35 -68 -71 -68 -149 0 -62 2 -69 36 -106 80 -89 226 -73 279 31 9 15 15 55 15 89 0 59 -2 63 -44 108 -43 45 -46 46 -112 50 -61 3 -73 0 -106 -23z m165 -85 c31 -34 34 -58 12 -100 -30 -59 -98 -68 -146 -21 -44 45 -36 109 19 144 36 23 80 14 115 -23z"/>
 <path d="M2645 1444 c-108 -29 -222 -97 -280 -168 -45 -55 -82 -125 -106 -200 -28 -87 -27 -283 2 -368 43 -127 156 -262 257 -309 26 -12 56 -26 67 -32 11 -6 68 -13 127 -15 112 -4 165 6 253 52 51 26 141 116 186 186 62 97 74 147 74 305 0 155 -11 200 -72 306 -54 93 -204 219 -261 219 -10 0 -23 5 -29 11 -12 12 -183 22 -218 13z m179 -84 c6 -6 18 -10 28 -10 30 0 97 -40 154 -92 30 -28 54 -54 54 -59 0 -4 13 -27 28 -51 48 -74 66 -142 66 -253 0 -115 -17 -178 -74 -265 -67 -106 -132 -156 -249 -195 -57 -19 -167 -18 -206 2 -11 6 -38 19 -59 29 -87 42 -156 115 -208 223 -39 79 -42 94 -46 183 -3 74 0 111 14 155 56 184 175 298 359 347 29 7 128 -3 139 -14z"/>
 </g>
<g id="layer2" fill="#f27d2d" stroke="none">
 <path d="M2560 7245 c-8 -2 -58 -9 -110 -15 -107 -13 -220 -34 -296 -56 -28 -7 -59 -14 -70 -14 -10 0 -32 -7 -48 -15 -15 -8 -36 -15 -45 -15 -9 0 -29 -7 -45 -15 -15 -8 -35 -15 -43 -15 -8 0 -27 -6 -41 -14 -15 -8 -47 -22 -72 -31 -41 -16 -288 -136 -328 -160 -491 -292 -882 -741 -1100 -1265 -6 -14 -20 -47 -31 -74 -12 -27 -21 -56 -21 -65 0 -9 -4 -21 -9 -26 -9 -10 -15 -28 -46 -155 -50 -200 -65 -274 -65 -316 0 -22 -5 -68 -11 -104 -33 -202 2 -606 75 -875 9 -33 21 -78 27 -100 6 -22 14 -44 20 -50 5 -5 9 -18 9 -28 0 -10 6 -33 14 -50 7 -18 21 -52 31 -77 19 -46 137 -288 158 -325 61 -103 218 -322 282 -394 73 -82 80 -86 94 -48 15 40 90 198 176 372 l84 169 -23 31 c-29 39 -136 219 -158 268 -18 37 -34 74 -59 132 -21 51 -48 129 -49 142 0 6 -5 24 -12 40 -61 146 -95 571 -64 806 18 135 42 252 62 310 8 20 14 46 14 56 0 10 7 32 15 47 8 16 15 37 15 46 0 9 4 19 9 22 5 3 12 18 16 33 6 27 92 208 118 248 163 261 312 430 517 584 127 96 381 241 422 241 7 0 22 6 33 13 11 7 54 23 95 36 41 12 84 26 95 31 27 10 148 36 261 55 139 23 475 20 624 -5 63 -11 140 -26 170 -34 30 -8 75 -20 100 -26 25 -7 59 -18 77 -26 17 -8 36 -14 42 -14 6 0 19 -4 29 -9 9 -6 37 -19 62 -30 421 -185 765 -508 960 -901 69 -141 78 -160 86 -193 3 -15 10 -30 15 -33 5 -3 9 -14 9 -26 0 -11 6 -34 14 -51 47 -105 96 -425 95 -622 0 -199 -47 -499 -95 -612 -8 -17 -14 -40 -14 -51 0 -12 -4 -23 -9 -26 -5 -3 -12 -18 -15 -32 -10 -38 -100 -223 -130 -267 -14 -21 -26 -40 -26 -43 0 -3 -20 -36 -45 -72 l-44 -67 124 -250 c69 -137 125 -254 125 -260 0 -5 9 -21 20 -35 l21 -25 40 45 c77 86 221 285 284 392 67 114 148 279 190 388 10 25 24 59 31 77 8 17 14 40 14 50 0 10 4 23 9 28 10 10 18 40 46 155 7 30 18 75 24 100 39 164 46 246 46 515 0 275 -6 337 -51 535 -37 162 -106 370 -171 510 -57 123 -72 153 -103 205 -16 28 -34 59 -39 70 -17 35 -164 241 -226 317 -94 116 -299 312 -424 407 -119 89 -208 151 -218 151 -3 0 -24 12 -47 28 -36 24 -264 139 -321 163 -11 4 -42 17 -69 28 -27 12 -54 21 -61 21 -7 0 -26 7 -41 15 -16 8 -36 15 -45 15 -9 0 -30 7 -45 15 -16 8 -37 15 -48 15 -10 0 -39 6 -65 14 -68 22 -135 35 -231 47 -47 6 -116 14 -155 19 -64 8 -380 12 -415 5z"/>
 <path d="M6386 6200 c-148 -19 -239 -52 -281 -102 -14 -16 -25 -37 -25 -47 0 -35 61 -140 106 -181 51 -47 76 -49 84 -5 5 29 8 30 70 38 94 12 519 0 630 -17 156 -24 256 -60 363 -130 56 -36 60 -62 21 -113 -61 -80 -184 -136 -389 -176 -160 -32 -232 -55 -360 -116 -102 -48 -149 -88 -161 -137 -3 -13 -1 -54 5 -91 44 -262 161 -386 450 -483 200 -67 471 -100 667 -81 127 12 169 23 215 54 30 20 34 29 37 70 4 59 -33 145 -74 174 -26 18 -174 83 -188 83 -12 0 -5 -28 9 -40 24 -20 18 -49 -12 -56 -38 -10 -292 3 -408 21 -227 35 -418 107 -488 185 -32 35 -37 47 -37 90 0 64 8 69 175 115 195 54 298 91 420 149 180 87 271 167 304 269 41 125 -87 318 -271 406 -90 43 -236 82 -393 106 -123 19 -376 27 -469 15z"/>
 <path d="M10232 6080 c-63 -63 -64 -118 -6 -284 18 -55 34 -108 34 -118 0 -35 -41 -10 -135 82 -202 196 -326 293 -393 306 -27 6 -37 1 -67 -29 -51 -51 -49 -99 11 -242 50 -120 70 -183 61 -192 -8 -8 -55 41 -128 133 -149 189 -250 284 -303 284 -52 0 -126 -95 -146 -188 -14 -62 -34 -68 -69 -21 -75 101 -226 234 -304 267 -108 46 -215 -67 -234 -249 -7 -72 -21 -76 -90 -23 -57 44 -73 50 -146 59 -52 7 -61 12 -126 74 -75 72 -158 121 -205 121 -73 0 -160 -75 -209 -178 -28 -59 -32 -78 -32 -152 0 -78 3 -90 37 -156 135 -261 452 -469 586 -384 31 19 33 23 27 60 -6 36 -4 43 29 74 29 27 36 40 36 72 0 61 -26 157 -66 243 -20 43 -34 89 -32 102 3 22 8 24 47 22 28 -1 61 -12 90 -30 45 -28 46 -30 64 -113 61 -289 275 -696 487 -924 56 -61 156 -136 181 -136 71 0 36 228 -67 432 -80 160 -202 333 -356 509 -82 94 -85 99 -91 157 -11 108 19 208 70 231 34 16 100 14 137 -4 18 -9 75 -54 128 -100 82 -73 97 -91 109 -132 7 -26 39 -86 70 -133 67 -99 224 -279 259 -298 33 -17 126 -10 147 11 14 14 14 19 -10 60 -34 58 -157 189 -246 261 -78 64 -91 89 -91 182 0 61 1 64 27 70 41 11 92 -22 253 -164 93 -81 174 -163 224 -227 44 -55 119 -140 167 -188 74 -75 92 -88 116 -85 21 2 29 10 36 35 5 17 7 43 3 58 -4 14 -59 103 -122 197 -143 210 -166 259 -162 342 l3 61 44 3 c62 5 80 -2 157 -53 36 -25 70 -45 74 -45 33 0 350 -396 350 -437 0 -22 -2 -23 -105 -23 -85 0 -105 -3 -105 -14 0 -25 66 -129 107 -168 53 -51 94 -66 211 -74 l102 -7 26 -45 c62 -105 161 -181 219 -166 14 3 25 13 25 21 0 8 -27 49 -60 91 -33 43 -60 85 -60 95 0 12 13 18 50 23 35 5 50 11 50 22 0 15 -88 151 -133 206 -23 28 -27 30 -112 30 l-88 1 -64 110 c-91 158 -125 250 -131 356 -4 78 -2 89 17 108 48 48 137 18 299 -102 77 -58 102 -83 102 -99 0 -63 120 -255 222 -355 99 -96 182 -128 221 -85 22 24 21 44 -4 95 -39 77 -81 131 -175 228 -51 52 -98 108 -104 123 -13 36 -13 109 1 140 24 52 144 67 229 29 71 -32 190 -124 196 -153 24 -108 90 -216 199 -325 134 -134 269 -204 373 -192 53 6 105 48 84 69 -21 21 -14 53 18 71 38 23 52 72 39 141 -13 71 -37 141 -70 208 -34 68 -36 94 -9 103 59 19 170 -45 195 -111 39 -102 211 -326 276 -360 52 -26 119 -12 119 26 0 11 -22 44 -50 75 -69 77 -168 202 -185 235 -8 16 -15 49 -15 75 0 43 1 45 29 45 36 0 43 -7 174 -155 58 -66 134 -145 169 -176 129 -113 276 -219 305 -219 17 0 49 65 57 116 7 40 6 42 -84 149 -141 169 -190 253 -190 325 0 51 8 60 59 60 95 0 220 -97 473 -367 215 -229 258 -279 258 -299 0 -26 39 -91 66 -113 30 -23 73 -28 92 -9 7 7 12 32 12 56 0 24 12 87 26 140 34 125 32 221 -9 303 -34 71 -126 172 -218 239 -92 69 -90 85 11 85 84 -1 153 -27 241 -90 27 -19 54 -35 59 -35 66 0 -174 202 -318 269 -123 56 -204 42 -311 -55 -53 -48 -101 -131 -101 -176 0 -50 -35 -35 -138 60 -139 128 -191 170 -246 199 -48 24 -51 24 -83 9 -38 -18 -63 -66 -63 -118 1 -48 35 -124 128 -284 45 -78 82 -149 82 -158 0 -31 -43 -16 -110 39 -83 66 -180 172 -302 329 -103 132 -119 147 -145 130 -28 -18 -63 -96 -76 -168 -14 -81 -20 -82 -110 -22 -53 36 -77 45 -129 51 -61 7 -66 10 -137 77 -74 70 -155 118 -201 118 -87 -1 -187 -103 -229 -232 -8 -23 -19 -38 -28 -38 -9 0 -51 38 -95 85 -125 133 -252 209 -322 191 -38 -9 -85 -54 -111 -106 -22 -43 -31 -72 -50 -162 -3 -17 -12 -28 -21 -28 -9 0 -60 42 -113 93 -234 225 -367 290 -439 217z m-2183 -180 c19 -5 59 -24 88 -42 l54 -33 -6 -95 c-8 -110 8 -172 76 -297 67 -123 51 -131 -85 -46 -106 68 -194 138 -232 188 -49 65 -84 276 -50 304 34 28 100 37 155 21z m3709 -25 c96 -48 98 -52 83 -129 -17 -86 -2 -159 60 -282 27 -54 49 -104 49 -111 0 -39 -124 25 -266 138 -82 65 -109 108 -134 209 -34 143 -25 184 40 200 65 15 97 10 168 -25z m1751 -65 c53 -26 107 -92 120 -145 14 -56 14 -135 0 -247 -10 -79 -14 -88 -32 -88 -25 0 -326 306 -327 332 0 11 16 24 44 36 31 14 55 36 82 76 43 61 56 65 113 36z m-4653 -434 c70 -74 164 -219 231 -353 45 -91 56 -125 61 -178 5 -65 5 -65 -22 -65 -35 0 -95 56 -145 134 -122 195 -240 516 -189 516 7 0 35 -24 64 -54z"/>
 <path d="M11272 5072 c-22 -20 -32 -39 -32 -59 0 -60 105 -183 156 -183 34 0 84 51 84 85 0 61 -87 169 -146 181 -24 5 -36 0 -62 -24z"/>
 <path d="M3070 2475 c0 -739 1 -786 18 -792 56 -20 367 -252 530 -396 166 -145 345 -321 460 -452 58 -66 110 -124 116 -130 7 -5 41 -46 77 -90 35 -44 74 -91 86 -105 11 -14 32 -38 46 -55 18 -21 29 -27 37 -19 7 7 -5 41 -44 120 -29 60 -77 159 -106 219 -29 61 -84 175 -122 255 -88 181 -176 366 -235 490 -47 98 -116 243 -220 460 -33 69 -77 161 -98 205 -35 75 -79 166 -238 495 -36 74 -79 167 -97 205 -98 213 -182 375 -196 375 -12 0 -14 -106 -14 -785z"/>
 <path d="M2341 3088 c-25 -57 -56 -124 -119 -258 -21 -47 -50 -107 -62 -135 -12 -27 -43 -93 -68 -145 -103 -218 -132 -279 -165 -350 -36 -76 -114 -242 -192 -405 -24 -49 -61 -128 -83 -175 -97 -208 -117 -250 -152 -325 -21 -44 -52 -111 -70 -150 -42 -91 -120 -256 -176 -370 -28 -56 -40 -93 -34 -99 12 -12 31 4 77 68 100 137 212 266 368 421 93 94 188 184 210 200 22 16 52 40 67 53 40 37 220 165 258 185 8 4 29 16 45 27 17 11 37 23 45 26 8 4 22 13 30 20 8 7 26 14 40 16 l25 3 3 723 c2 777 2 779 -47 670z"/>
 </g>
<g id="layer3" fill="#00559b" stroke="none">
 <path d="M2699 6263 c-32 -70 -118 -248 -244 -508 -40 -82 -93 -193 -118 -245 -42 -89 -84 -177 -274 -570 -42 -85 -94 -195 -118 -245 -24 -49 -77 -160 -118 -245 -96 -200 -201 -416 -267 -555 -29 -60 -85 -177 -125 -260 -92 -190 -197 -409 -265 -550 -50 -105 -117 -244 -275 -570 -40 -82 -99 -204 -130 -270 -94 -197 -213 -442 -276 -568 -33 -66 -57 -123 -53 -128 3 -5 152 -9 345 -9 325 0 379 4 379 30 0 8 24 64 91 208 16 34 29 64 29 67 0 3 14 36 31 73 65 137 92 198 105 227 13 31 55 125 106 235 16 36 36 79 43 95 7 17 28 62 45 100 77 167 92 202 105 230 16 36 65 145 107 235 17 36 36 79 44 95 33 75 76 168 118 257 25 53 46 99 46 102 0 3 20 47 44 98 70 150 106 228 106 233 0 2 20 46 44 97 72 152 106 228 106 233 0 3 18 42 39 88 62 131 111 237 111 242 0 4 46 106 90 200 15 33 40 87 55 120 66 146 99 205 116 205 24 0 47 -37 109 -175 13 -27 40 -86 60 -130 93 -199 109 -234 135 -290 15 -33 46 -100 70 -150 52 -109 103 -220 140 -300 30 -66 58 -127 130 -280 44 -94 65 -139 135 -290 16 -33 48 -103 73 -155 25 -52 57 -122 72 -155 29 -64 71 -155 140 -300 23 -49 53 -112 65 -140 12 -27 40 -86 60 -130 93 -199 109 -234 135 -290 15 -33 46 -100 70 -150 45 -94 88 -189 123 -265 11 -25 41 -89 66 -142 l47 -98 349 0 c273 0 350 3 350 13 0 6 -29 71 -64 142 -121 246 -303 620 -381 780 -80 165 -220 451 -450 920 -73 149 -166 340 -207 425 -73 148 -208 425 -473 965 -67 138 -162 331 -210 430 -48 99 -149 306 -225 460 -76 154 -175 358 -221 452 -46 95 -90 173 -96 173 -7 0 -27 -30 -44 -67z"/>
 <path d="M12933 4149 c-140 -17 -293 -129 -358 -263 -99 -204 -46 -448 127 -585 193 -154 440 -147 621 19 95 87 144 221 135 373 l-3 52 -372 3 -373 2 0 35 c0 81 64 156 166 195 51 19 74 21 164 18 106 -4 148 -16 223 -65 l27 -18 42 42 42 43 -28 29 c-36 37 -125 85 -196 104 -71 20 -139 25 -217 16z m337 -587 c0 -63 -38 -139 -85 -171 -77 -52 -192 -64 -296 -31 -112 34 -178 112 -179 208 l0 42 280 0 280 0 0 -48z"/>
 <path d="M14120 4141 c-46 -15 -94 -43 -152 -87 -77 -60 -86 -59 -90 19 l-3 62 -85 0 -85 0 0 -650 0 -650 85 0 85 0 3 263 c2 219 5 262 17 262 7 0 37 -25 66 -55 118 -125 272 -147 439 -64 75 38 166 128 203 200 15 31 35 91 44 134 43 214 -68 440 -265 537 -57 29 -78 33 -152 35 -47 1 -96 -1 -110 -6z m197 -177 c107 -51 158 -148 157 -294 -1 -106 -27 -179 -85 -237 -61 -62 -99 -77 -207 -81 -84 -4 -98 -2 -147 23 -103 50 -155 148 -155 293 0 110 19 175 66 230 85 99 244 127 371 66z"/>
 <path d="M6223 4128 c-16 -21 -483 -1193 -483 -1211 0 -16 10 -17 97 -15 l96 3 191 463 c161 393 193 462 209 460 14 -2 60 -104 204 -453 101 -247 189 -456 195 -462 12 -15 184 -18 192 -4 6 9 -468 1196 -486 1219 -7 8 -42 12 -108 12 -66 0 -101 -4 -107 -12z"/>
 <path d="M7125 4128 c-3 -7 -4 -218 -3 -468 l3 -455 85 0 85 0 0 465 0 465 -83 3 c-60 2 -84 -1 -87 -10z"/>
 <path d="M7970 4118 c-74 -170 -479 -1196 -475 -1205 3 -9 32 -13 95 -13 l90 0 16 33 c8 17 95 226 192 462 149 362 180 430 197 430 17 0 48 -68 197 -430 97 -236 184 -445 192 -462 l16 -33 90 0 c64 0 92 4 95 13 3 6 -104 284 -238 617 l-244 605 -106 3 c-103 3 -107 2 -117 -20z"/>
 <path d="M8875 4128 c-3 -7 -4 -218 -3 -468 l3 -455 85 0 85 0 0 465 0 465 -83 3 c-60 2 -84 -1 -87 -10z"/>
 <path d="M9295 4129 c-3 -8 -4 -286 -3 -619 l3 -605 190 -3 c290 -4 406 16 517 91 107 72 196 204 235 348 21 80 24 289 4 369 -48 198 -190 360 -358 406 -82 23 -580 34 -588 13z m524 -176 c105 -26 187 -105 232 -220 27 -73 38 -247 19 -332 -49 -225 -200 -332 -473 -335 -97 -1 -110 1 -123 18 -12 16 -14 91 -14 436 0 429 1 438 40 454 26 10 252 -5 319 -21z"/>
 <path d="M11012 4123 c-25 -46 -423 -1204 -417 -1213 3 -5 44 -10 90 -10 77 0 86 2 98 23 8 12 81 215 163 450 112 324 152 427 163 425 11 -2 57 -138 151 -438 74 -239 139 -441 143 -447 11 -18 153 -18 164 -1 4 7 69 209 143 448 95 305 140 436 151 438 11 2 51 -100 168 -435 84 -241 158 -444 163 -450 7 -9 39 -13 95 -13 58 0 85 4 88 13 5 11 -393 1165 -416 1209 -9 17 -20 18 -101 16 l-92 -3 -130 -427 c-116 -378 -133 -428 -151 -428 -18 0 -35 51 -151 428 l-130 427 -91 3 c-80 2 -93 0 -101 -15z"/>
 <path d="M2411 3957 c-12 -15 -16 -332 -19 -1522 -1 -418 2 -763 6 -767 5 -5 156 -7 338 -6 l329 3 0 1136 c0 948 -2 1139 -14 1152 -12 15 -47 17 -321 17 -243 0 -310 -3 -319 -13z"/>
 <path d="M7159 3007 c-19 -12 -42 -39 -52 -59 -17 -35 -17 -39 -2 -72 20 -41 70 -76 109 -76 40 0 109 68 109 108 0 38 -25 77 -66 102 -41 25 -57 25 -98 -3z"/>
 <path d="M8912 3009 c-37 -25 -62 -66 -62 -105 0 -41 68 -104 112 -104 40 0 81 28 103 70 23 44 18 67 -22 110 -47 50 -86 58 -131 29z"/>
 <path d="M2685 1394 c-103 -27 -194 -80 -261 -150 -118 -126 -167 -338 -113 -496 43 -126 149 -254 248 -299 25 -12 55 -26 66 -32 11 -5 49 -12 86 -15 147 -10 291 74 390 228 56 88 73 150 73 265 0 111 -16 170 -71 266 -52 91 -194 209 -251 209 -10 0 -22 4 -28 10 -11 11 -110 21 -139 14z"/>
 </g>

</svg>