<!DOCTYPE svg PUBLIC "-//W3C//DTD SVG 20010904//EN" "http://www.w3.org/TR/2001/REC-SVG-20010904/DTD/svg10.dtd">
<svg version="1.0" xmlns="http://www.w3.org/2000/svg" width="1399px" height="741px" viewBox="0 0 13990 7410" preserveAspectRatio="xMidYMid meet">
<g id="layer1" fill="#02559b" stroke="none">
 <path d="M2719 6363 c-6 -16 -34 -77 -64 -138 -29 -60 -94 -193 -143 -295 -50 -102 -116 -239 -147 -305 -31 -66 -78 -165 -105 -220 -83 -171 -230 -476 -378 -785 -33 -69 -101 -210 -152 -315 -131 -271 -170 -353 -240 -500 -34 -71 -103 -213 -152 -315 -87 -180 -111 -229 -236 -490 -33 -69 -101 -210 -152 -315 -50 -104 -117 -242 -147 -305 -118 -246 -156 -323 -273 -563 -71 -145 -120 -257 -118 -270 l3 -22 364 -3 c258 -1 368 1 377 9 8 6 22 30 33 53 29 62 81 177 95 211 21 48 42 94 90 197 25 54 46 100 46 102 0 5 33 80 92 206 16 36 36 79 43 95 7 17 28 62 45 100 77 167 92 202 105 230 14 31 55 121 107 235 16 36 38 83 48 105 33 74 68 149 114 247 25 54 46 100 46 103 0 3 13 33 29 68 64 137 100 215 126 272 47 104 53 118 99 217 25 54 46 100 46 103 0 3 14 36 31 73 111 237 123 262 163 355 8 17 29 64 46 102 18 39 40 88 50 110 25 54 108 225 123 253 12 21 16 17 61 -75 27 -54 54 -111 62 -128 7 -16 35 -77 63 -135 43 -93 64 -137 141 -305 10 -22 38 -83 63 -135 25 -52 59 -126 77 -165 18 -38 45 -97 60 -130 91 -193 121 -257 150 -320 18 -38 45 -97 60 -130 89 -188 121 -257 149 -317 17 -38 45 -98 62 -135 17 -38 51 -111 76 -163 24 -52 57 -122 73 -155 15 -33 38 -82 50 -110 13 -27 47 -102 77 -165 53 -112 86 -184 123 -265 10 -22 38 -83 63 -135 45 -96 83 -178 131 -282 14 -32 38 -83 52 -113 l25 -55 374 0 c242 0 376 4 380 10 4 6 -61 146 -143 313 -82 166 -189 383 -237 482 -106 220 -193 398 -410 840 -92 187 -205 419 -252 515 -207 424 -251 513 -406 830 -91 184 -211 430 -267 545 -56 116 -137 282 -180 370 -450 919 -433 884 -444 918 -8 26 -35 20 -47 -10z"/>
 <path d="M12080 4170 c-116 -18 -204 -65 -288 -154 -57 -60 -82 -106 -108 -191 -24 -83 -23 -239 4 -321 106 -336 550 -446 816 -203 97 88 141 217 134 390 l-3 74 -372 3 c-411 3 -388 -2 -359 65 18 43 60 84 121 116 45 23 61 26 155 26 117 0 166 -15 232 -73 l35 -32 64 67 63 66 -49 44 c-27 25 -70 55 -97 69 -92 47 -242 70 -348 54z m330 -609 c0 -69 -51 -139 -128 -174 -64 -29 -178 -30 -242 -1 -86 39 -149 116 -150 182 l0 22 260 0 260 0 0 -29z"/>
 <path d="M13308 4170 c-62 -11 -142 -49 -198 -93 l-45 -37 -5 58 -5 57 -105 0 -105 0 0 -670 0 -670 105 0 105 0 3 254 2 254 55 -52 c84 -79 128 -96 255 -95 124 0 187 20 278 89 272 204 248 659 -45 845 -80 51 -202 76 -295 60z m149 -226 c98 -47 157 -147 156 -269 0 -111 -41 -197 -118 -253 -54 -39 -96 -52 -170 -52 -156 0 -265 124 -265 304 0 91 21 153 70 209 84 95 206 118 327 61z"/>
 <path d="M6186 4108 c-98 -222 -486 -1212 -479 -1219 6 -6 63 -8 128 -7 l117 3 183 445 c101 245 187 451 192 458 5 8 73 -147 187 -425 98 -241 185 -448 193 -460 13 -22 20 -23 132 -23 65 0 120 3 123 6 6 6 -488 1241 -504 1262 -7 8 -46 12 -130 12 l-119 0 -23 -52z"/>
 <path d="M7105 4148 c-3 -7 -4 -227 -3 -488 l3 -475 105 0 105 0 0 485 0 485 -103 3 c-76 2 -104 -1 -107 -10z"/>
 <path d="M7950 4138 c-65 -148 -498 -1244 -494 -1250 3 -4 59 -8 125 -8 l120 0 27 63 c16 34 102 242 193 462 l164 401 186 -451 c102 -248 189 -457 193 -463 8 -14 242 -17 250 -4 3 5 -109 292 -248 638 l-253 629 -126 3 c-124 3 -127 2 -137 -20z"/>
 <path d="M8855 4148 c-3 -7 -4 -227 -3 -488 l3 -475 105 0 105 0 0 485 0 485 -103 3 c-76 2 -104 -1 -107 -10z"/>
 <path d="M10150 4138 c-27 -58 -437 -1244 -433 -1250 7 -14 229 -9 241 5 5 6 77 205 160 442 l150 429 45 -144 c25 -80 85 -271 132 -425 48 -154 91 -288 96 -297 8 -15 24 -18 103 -18 63 0 97 4 103 13 5 6 67 199 137 427 71 228 131 420 135 427 3 6 73 -182 156 -418 82 -236 154 -434 159 -439 12 -12 233 -14 239 -2 5 8 -428 1251 -441 1264 -5 5 -57 7 -117 6 l-108 -3 -131 -428 c-72 -235 -132 -424 -133 -420 -2 4 -61 197 -131 428 l-129 420 -112 3 c-107 3 -111 2 -121 -20z"/>
 <path d="M2391 3976 c-8 -10 -10 -324 -9 -1172 l3 -1159 345 0 344 0 2 1160 c2 794 -1 1164 -8 1172 -16 20 -661 19 -677 -1z"/>
 <path d="M7139 3027 c-76 -50 -88 -141 -28 -203 64 -66 134 -66 198 0 41 42 50 96 24 146 -24 46 -76 80 -123 80 -22 0 -51 -9 -71 -23z"/>
 <path d="M8903 3034 c-45 -23 -73 -71 -73 -127 0 -37 6 -53 31 -81 87 -100 239 -40 239 94 0 33 -7 48 -38 81 -31 34 -46 42 -82 45 -30 3 -56 -1 -77 -12z"/>
 <path d="M2675 1413 c-251 -59 -405 -258 -405 -525 0 -105 8 -137 63 -246 133 -265 459 -344 672 -163 53 45 111 117 134 166 55 118 54 116 55 240 0 98 -4 131 -21 181 -66 186 -181 295 -354 338 -64 16 -104 18 -144 9z"/>
 </g>
<g id="layer2" fill="#f17e2f" stroke="none">
 <path d="M2450 7254 c-209 -29 -383 -69 -522 -120 -35 -13 -57 -21 -163 -61 -36 -14 -282 -134 -323 -158 -52 -30 -208 -137 -277 -189 -100 -76 -362 -334 -447 -441 -58 -73 -128 -170 -153 -213 -5 -10 -20 -31 -32 -48 -12 -17 -27 -42 -33 -55 -6 -13 -19 -37 -30 -54 -26 -41 -88 -169 -135 -280 -16 -39 -68 -195 -88 -265 -70 -245 -101 -467 -99 -715 1 -194 22 -380 64 -555 6 -25 14 -61 18 -80 10 -46 35 -136 51 -180 31 -88 54 -146 61 -155 4 -5 8 -15 8 -23 0 -14 114 -248 145 -297 65 -103 136 -209 178 -264 84 -111 190 -232 201 -228 13 4 23 24 67 122 44 98 111 240 179 377 l59 117 -28 38 c-80 113 -211 352 -211 386 0 9 -4 18 -9 21 -8 5 -64 175 -91 274 -45 172 -62 491 -36 683 26 183 58 325 92 407 8 18 14 39 14 47 0 7 6 26 14 42 15 29 58 124 76 165 5 13 14 30 19 38 5 8 31 51 57 95 77 129 159 232 288 361 136 135 234 213 381 300 222 132 443 213 695 255 128 21 478 23 600 4 243 -39 499 -123 650 -215 8 -5 51 -30 95 -56 177 -104 372 -274 483 -419 25 -33 50 -64 57 -70 43 -38 255 -416 255 -457 0 -8 7 -23 15 -34 8 -10 15 -28 15 -39 0 -11 7 -33 15 -49 8 -15 15 -35 15 -44 0 -8 6 -38 14 -66 24 -82 44 -203 56 -321 33 -348 -28 -690 -179 -1015 -19 -40 -120 -213 -156 -266 -14 -21 -28 -48 -31 -60 -4 -15 35 -105 134 -305 77 -156 142 -292 145 -301 4 -10 11 -18 16 -18 11 0 119 122 181 205 43 57 64 88 157 230 40 62 177 335 208 415 9 25 23 60 31 78 8 18 14 39 14 47 0 8 6 29 14 47 25 58 65 227 93 388 14 85 18 160 17 390 0 293 -2 313 -50 540 -28 130 -106 384 -125 405 -5 5 -9 16 -9 24 0 16 -144 312 -171 351 -9 14 -49 75 -89 135 -40 61 -77 115 -84 120 -6 6 -37 43 -69 82 -85 107 -247 266 -372 366 -101 81 -249 187 -260 187 -3 0 -24 12 -48 27 -41 26 -238 126 -307 156 -103 45 -134 57 -146 57 -7 0 -28 6 -46 14 -35 15 -99 35 -188 59 -50 14 -125 27 -315 58 -115 18 -503 20 -625 3z"/>
 <path d="M6113 5935 c-118 -32 -204 -99 -253 -199 -26 -52 -35 -62 -63 -66 l-32 -5 -3 -68 c-2 -42 2 -74 9 -83 8 -10 38 -14 115 -14 116 0 124 5 124 75 0 108 82 172 235 182 119 8 197 -21 248 -89 31 -42 35 -133 8 -185 -35 -70 -92 -101 -296 -158 -166 -47 -242 -85 -301 -147 -71 -76 -88 -124 -89 -243 0 -89 3 -106 28 -156 51 -105 164 -187 296 -215 209 -44 404 23 498 171 23 37 33 45 63 47 l35 3 0 80 0 80 -113 3 c-123 3 -116 6 -127 -63 -9 -53 -74 -117 -138 -134 -72 -21 -192 -11 -252 19 -110 57 -129 211 -34 283 19 14 112 50 209 82 269 88 357 142 417 257 25 48 27 63 28 158 0 91 -3 111 -24 153 -54 110 -168 198 -296 232 -73 19 -222 19 -292 0z"/>
 <path d="M7171 5934 c-246 -66 -385 -321 -326 -599 32 -148 123 -267 252 -328 60 -28 81 -32 172 -35 127 -5 205 13 291 69 69 45 138 132 171 217 27 71 37 239 20 324 -28 132 -130 268 -241 320 -104 49 -233 61 -339 32z m208 -160 c67 -20 131 -78 162 -147 21 -45 24 -67 24 -172 0 -104 -3 -127 -23 -170 -47 -102 -129 -155 -242 -155 -151 0 -245 92 -269 264 -25 177 56 340 189 381 60 18 96 18 159 -1z"/>
 <path d="M9982 5939 c-76 -10 -128 -48 -160 -117 l-27 -57 -3 -307 -4 -307 -66 -3 -67 -3 0 -75 0 -75 72 -3 72 -3 3 -107 3 -107 78 -38 c43 -20 83 -35 88 -31 5 3 9 68 9 144 l0 139 103 3 102 3 0 75 0 75 -107 3 -108 3 1 277 c0 322 4 340 64 360 34 11 50 11 104 -2 36 -9 68 -13 72 -9 17 20 38 107 29 118 -26 32 -168 56 -258 44z"/>
 <path d="M11275 5936 c-211 -51 -345 -236 -345 -476 0 -144 42 -260 127 -351 94 -100 188 -139 340 -139 148 0 246 41 340 143 170 185 162 525 -18 705 -112 112 -283 157 -444 118z m203 -162 c110 -36 179 -139 189 -280 15 -211 -80 -350 -245 -362 -97 -6 -157 15 -215 77 -60 64 -82 130 -82 246 0 111 21 176 77 240 77 88 168 114 276 79z"/>
 <path d="M13460 5936 c-55 -14 -113 -48 -138 -81 -14 -18 -31 -25 -68 -27 l-49 -3 0 -85 0 -85 94 0 93 0 17 45 c21 59 80 91 168 91 106 1 168 -44 166 -118 -2 -62 -31 -82 -234 -157 -204 -77 -269 -143 -269 -275 1 -110 53 -191 156 -242 40 -19 68 -25 151 -27 133 -5 193 12 260 72 38 34 59 45 89 48 l39 3 0 80 0 80 -95 0 -94 0 -7 -33 c-9 -45 -32 -68 -87 -86 -79 -27 -164 -17 -209 26 -33 31 -32 100 1 131 13 12 79 42 147 66 156 55 215 84 257 124 126 120 98 321 -56 413 -84 51 -229 68 -332 40z"/>
 <path d="M8794 5922 c-94 -33 -138 -76 -177 -174 -19 -48 -21 -78 -25 -320 l-4 -267 -57 -3 -56 -3 0 -80 0 -80 150 0 150 0 5 325 c5 315 6 326 28 368 42 79 138 101 263 62 118 -36 109 -10 109 -320 l0 -269 -62 -3 -63 -3 -3 -71 c-2 -52 1 -74 11 -83 10 -8 59 -11 158 -9 l144 3 3 377 2 377 48 3 47 3 0 80 0 80 -140 0 -140 0 -3 -31 -3 -31 -52 28 c-108 58 -237 74 -333 41z"/>
 <path d="M7914 5907 c-3 -8 -4 -45 -2 -83 l3 -69 68 -3 67 -3 0 -519 0 -520 -59 0 c-75 0 -83 -9 -79 -97 l3 -68 155 0 155 0 3 602 2 602 68 3 67 3 0 80 0 80 -223 3 c-181 2 -223 0 -228 -11z"/>
 <path d="M10364 5907 c-3 -8 -4 -45 -2 -83 l3 -69 63 -3 62 -3 0 -294 0 -294 -62 -3 -63 -3 0 -80 0 -80 150 0 150 0 3 377 2 377 68 3 67 3 0 80 0 80 -218 3 c-177 2 -218 0 -223 -11z"/>
 <path d="M12024 5907 c-3 -8 -4 -45 -2 -83 l3 -69 58 -3 57 -3 0 -294 0 -294 -57 -3 -58 -3 0 -80 0 -80 139 -3 c154 -3 166 1 166 54 0 19 2 34 4 34 2 0 27 -15 55 -34 79 -54 138 -69 245 -64 80 3 99 8 146 34 30 17 70 50 87 73 57 73 63 115 63 402 l0 258 63 3 62 3 0 80 0 80 -220 0 -220 0 0 -80 0 -80 63 -3 62 -3 0 -236 c0 -220 -1 -240 -21 -280 -28 -58 -82 -87 -164 -87 -65 -1 -103 12 -177 57 l-48 29 0 258 0 259 63 3 62 3 0 80 0 80 -213 3 c-172 2 -213 0 -218 -11z"/>
 <path d="M10534 4796 c-49 -22 -74 -61 -74 -117 0 -42 5 -53 35 -84 29 -28 43 -35 76 -35 78 0 129 47 129 121 0 50 -30 96 -76 115 -41 17 -50 17 -90 0z"/>
 <path d="M3059 3378 c-5 -12 -7 -1228 -2 -1439 l6 -267 96 -63 c53 -35 101 -69 106 -75 6 -7 29 -23 52 -38 23 -14 50 -34 60 -44 10 -10 47 -40 83 -67 36 -27 67 -52 70 -56 3 -3 43 -39 90 -78 111 -95 322 -302 423 -416 227 -256 228 -257 391 -470 63 -82 125 -163 139 -179 47 -57 36 -7 -27 120 -35 71 -92 187 -126 259 -71 149 -146 304 -253 525 -41 85 -96 200 -122 255 -48 102 -78 165 -208 435 -41 85 -96 200 -122 255 -51 109 -87 183 -225 470 -129 268 -153 318 -200 420 -23 50 -68 144 -100 210 -32 66 -70 145 -84 177 -21 47 -43 78 -47 66z"/>
 <path d="M2372 3218 c-7 -7 -12 -16 -12 -20 0 -4 -14 -38 -31 -75 -17 -38 -37 -81 -44 -98 -13 -28 -66 -142 -136 -292 -50 -109 -86 -184 -149 -318 -34 -71 -74 -157 -90 -190 -49 -104 -120 -255 -182 -385 -33 -69 -73 -153 -89 -188 -16 -34 -42 -90 -58 -125 -17 -34 -54 -114 -84 -177 -30 -63 -64 -137 -77 -165 -23 -52 -70 -150 -172 -365 -33 -69 -75 -156 -93 -195 -18 -38 -61 -127 -95 -197 -61 -125 -72 -180 -24 -122 13 16 23 33 24 37 1 27 229 352 374 532 107 134 385 411 521 519 99 79 277 202 315 219 8 4 29 16 45 27 30 20 43 26 70 35 13 4 15 99 15 774 0 423 -4 772 -8 775 -5 3 -14 0 -20 -6z"/>
 </g>
<g id="layer3" fill="#fdfdfc" stroke="none">
 <path d="M2385 7404 c-144 -13 -251 -27 -260 -34 -5 -5 -32 -11 -60 -15 -27 -4 -54 -11 -60 -15 -5 -4 -29 -11 -53 -15 -24 -4 -56 -13 -70 -21 -15 -8 -34 -14 -43 -14 -15 0 -59 -18 -101 -41 -10 -5 -23 -9 -28 -9 -27 0 -404 -187 -420 -208 -7 -9 -40 -30 -67 -42 -13 -5 -23 -14 -23 -20 0 -5 -5 -10 -11 -10 -10 0 -45 -26 -101 -75 -10 -8 -21 -15 -25 -15 -16 0 -433 -399 -433 -415 0 -4 -17 -27 -37 -50 -50 -55 -76 -87 -88 -106 -5 -9 -45 -69 -89 -133 -75 -111 -105 -163 -156 -266 -54 -109 -80 -168 -80 -181 0 -8 -6 -24 -14 -35 -8 -11 -17 -37 -21 -57 -4 -21 -11 -39 -15 -42 -5 -3 -11 -23 -15 -45 -4 -22 -10 -42 -15 -45 -5 -3 -11 -24 -15 -48 -4 -23 -11 -46 -15 -52 -5 -5 -11 -37 -15 -70 -4 -33 -11 -64 -15 -70 -46 -59 -46 -1121 0 -1180 4 -5 11 -37 15 -70 4 -33 10 -64 15 -70 4 -5 11 -28 15 -50 4 -22 10 -44 15 -50 4 -5 10 -28 14 -50 6 -35 18 -67 47 -127 5 -10 9 -23 9 -29 0 -13 15 -46 90 -199 57 -117 65 -131 97 -177 13 -17 28 -42 33 -55 17 -37 34 -63 52 -81 9 -9 31 -39 49 -67 18 -27 36 -50 41 -50 4 0 8 -5 8 -11 0 -11 38 -57 120 -147 17 -18 30 -36 30 -40 0 -4 18 -25 39 -46 l39 -38 -38 -76 c-20 -43 -85 -174 -143 -293 -59 -118 -107 -220 -107 -226 0 -8 -145 -307 -226 -466 -9 -18 -14 -59 -14 -115 l0 -85 45 -44 45 -43 459 0 458 0 46 49 c25 27 54 66 63 87 11 26 18 33 21 23 2 -9 -16 -56 -40 -105 -128 -259 -177 -362 -177 -371 0 -6 -24 -59 -54 -119 -29 -60 -108 -220 -175 -355 l-121 -246 0 -83 0 -83 45 -44 45 -43 83 0 83 0 56 58 c54 54 91 106 104 144 4 10 10 18 15 18 5 0 14 11 19 25 13 33 115 188 135 205 8 7 15 19 15 26 0 8 5 14 10 14 6 0 14 8 17 18 4 9 17 31 30 47 14 17 34 43 46 58 106 136 164 202 288 326 127 126 142 140 320 283 25 20 52 37 77 48 12 5 22 14 22 19 0 5 8 12 18 15 24 9 63 32 71 43 3 4 17 14 31 22 14 8 -13 -26 -60 -75 -49 -52 -95 -110 -108 -139 -13 -27 -28 -58 -33 -69 -6 -10 -13 -52 -16 -93 -3 -40 -10 -76 -14 -79 -12 -7 -12 -201 0 -208 4 -3 11 -36 14 -73 7 -70 48 -167 98 -233 39 -51 135 -150 146 -150 5 0 17 -8 27 -18 9 -11 42 -32 74 -48 l57 -29 210 0 c226 0 211 -3 321 59 12 6 63 53 114 104 99 99 154 188 166 269 3 24 10 46 15 49 12 7 12 351 0 358 -4 3 -11 28 -15 55 -7 52 -44 131 -79 168 -11 13 -18 26 -14 29 3 3 14 -4 24 -15 9 -12 22 -21 28 -21 6 0 24 -13 40 -30 16 -16 34 -30 39 -30 6 -1 22 -14 36 -30 13 -17 28 -30 33 -30 5 0 38 -26 73 -57 87 -80 414 -403 414 -410 0 -4 27 -36 60 -72 33 -36 74 -81 90 -99 17 -18 30 -36 30 -40 0 -5 14 -21 30 -37 17 -16 30 -34 30 -40 0 -6 13 -22 30 -35 16 -14 29 -29 30 -34 0 -8 15 -28 81 -106 11 -14 35 -46 52 -73 17 -26 34 -47 39 -47 4 0 8 -6 8 -13 0 -7 22 -34 48 -60 l48 -47 91 0 91 0 41 38 41 38 0 90 0 89 -75 148 c-41 82 -75 154 -75 160 0 6 -48 108 -107 226 -239 485 -273 554 -273 565 0 6 -16 43 -36 81 l-35 70 53 -53 54 -52 450 0 450 0 42 43 42 43 0 94 0 95 -150 299 c-83 165 -150 304 -150 310 0 6 -49 107 -108 225 l-107 215 60 63 c94 99 145 159 145 171 0 7 4 12 8 12 5 0 26 27 48 60 21 33 42 60 47 60 4 0 12 10 17 23 12 27 33 60 42 67 21 16 238 452 238 478 0 8 21 58 40 93 4 9 11 37 15 63 4 25 11 48 15 51 5 3 11 24 15 48 4 23 11 47 15 52 4 6 11 40 15 77 3 37 10 70 15 73 4 3 11 54 15 115 4 61 11 113 16 116 12 7 12 631 0 638 -5 3 -12 55 -16 116 -4 61 -11 112 -15 115 -4 3 -11 32 -15 65 -4 33 -11 62 -15 65 -5 3 -12 30 -15 60 -4 31 -11 57 -15 60 -5 3 -11 23 -15 45 -4 22 -10 42 -15 45 -5 3 -11 23 -15 45 -4 22 -11 42 -16 46 -5 3 -9 12 -9 20 0 30 -174 387 -216 441 -13 17 -29 42 -34 55 -16 35 -37 70 -47 77 -14 11 -73 89 -73 98 0 5 -13 20 -30 33 -16 14 -29 30 -30 35 0 12 -399 408 -448 445 -18 14 -48 37 -66 53 -19 15 -39 27 -45 27 -6 0 -11 4 -11 8 0 10 -154 112 -169 112 -6 0 -11 4 -11 9 0 9 -320 171 -339 171 -7 0 -25 6 -39 13 -15 8 -42 21 -60 30 -19 9 -41 17 -50 17 -9 0 -29 6 -43 14 -14 7 -47 16 -72 20 -26 4 -49 11 -52 15 -2 5 -28 11 -57 15 -28 4 -57 10 -62 14 -32 21 -222 33 -581 36 -214 2 -408 2 -430 0z m690 -173 c190 -31 265 -44 315 -58 89 -24 153 -44 188 -59 18 -8 39 -14 46 -14 12 0 43 -12 146 -57 69 -30 266 -130 307 -156 24 -15 45 -27 49 -27 3 0 23 -13 44 -30 21 -16 41 -30 45 -30 23 0 234 -179 365 -310 148 -148 269 -295 365 -446 51 -80 205 -384 205 -406 0 -8 4 -18 9 -24 19 -20 97 -274 125 -404 48 -227 50 -247 50 -540 1 -230 -3 -305 -17 -390 -28 -161 -68 -330 -93 -388 -8 -18 -14 -39 -14 -47 0 -8 -6 -29 -14 -47 -8 -18 -22 -53 -31 -78 -31 -80 -168 -353 -208 -415 -95 -144 -113 -170 -124 -178 -7 -4 -13 -13 -13 -18 0 -10 -48 -75 -80 -108 -8 -9 -33 -38 -54 -64 l-39 -48 -144 292 c-102 206 -143 298 -139 313 3 12 17 39 31 60 36 53 137 226 156 266 121 259 188 551 189 825 0 153 -29 380 -66 511 -8 28 -14 58 -14 66 0 9 -7 29 -15 44 -8 16 -15 38 -15 49 0 11 -7 29 -15 39 -8 11 -15 26 -15 34 0 47 -207 410 -287 502 -17 19 -61 70 -98 113 -37 43 -106 110 -153 149 -48 40 -90 76 -93 81 -4 5 -16 14 -27 20 -11 7 -53 35 -94 62 -234 160 -495 260 -808 310 -122 19 -472 17 -600 -4 -242 -40 -517 -140 -698 -255 -23 -14 -44 -26 -47 -26 -18 0 -257 -193 -341 -276 -93 -91 -251 -290 -299 -374 -10 -19 -29 -53 -42 -75 -12 -22 -27 -50 -33 -63 -22 -50 -62 -138 -76 -165 -8 -16 -14 -35 -14 -42 0 -8 -6 -29 -14 -47 -34 -82 -66 -224 -92 -407 -26 -192 -9 -511 36 -683 27 -99 83 -269 91 -274 5 -3 9 -12 9 -21 0 -17 84 -188 123 -250 15 -24 27 -46 28 -50 0 -5 20 -35 43 -68 l42 -60 -57 -115 c-101 -205 -202 -421 -213 -457 -4 -13 -10 -23 -14 -23 -4 0 -29 28 -57 62 -27 34 -57 69 -65 78 -35 38 -80 100 -80 109 0 5 -6 14 -13 18 -13 9 -106 146 -152 228 -47 81 -135 263 -135 277 0 8 -4 18 -8 23 -7 9 -30 67 -61 155 -16 44 -41 134 -51 180 -4 19 -12 55 -18 80 -76 318 -85 680 -26 1010 23 131 54 249 107 405 31 95 40 116 81 207 14 31 31 67 36 80 5 13 26 50 45 83 19 33 39 69 45 80 6 11 19 34 30 50 11 17 23 37 27 45 12 25 150 210 205 274 60 70 231 242 299 301 91 80 260 201 361 260 41 24 287 144 323 158 106 40 128 48 163 61 139 51 313 91 522 120 122 17 510 15 625 -3z m-524 -803 c-5 -13 -30 -63 -55 -113 -25 -49 -46 -95 -46 -101 0 -6 -44 -101 -98 -210 -253 -511 -292 -591 -292 -601 0 -5 -44 -100 -98 -209 -253 -511 -292 -591 -292 -601 0 -6 -38 -86 -84 -179 -237 -480 -296 -602 -296 -612 0 -6 -11 -32 -24 -57 l-23 -46 -83 168 c-45 92 -86 175 -90 184 -5 9 -12 33 -15 53 -4 20 -11 39 -16 42 -5 2 -11 27 -15 55 -4 27 -10 52 -15 54 -4 3 -11 31 -15 63 -3 31 -12 63 -18 71 -16 20 -15 499 1 532 6 13 15 50 18 81 4 32 11 60 16 63 5 4 9 18 9 33 0 15 7 40 15 56 8 15 15 36 15 45 0 9 7 29 15 45 8 15 15 35 15 43 0 8 6 27 14 41 7 15 37 74 65 132 29 58 57 114 64 125 44 73 99 154 112 165 8 7 15 18 15 24 1 6 14 22 30 36 17 13 30 29 30 34 0 14 142 156 155 156 6 0 22 13 35 30 14 16 30 29 36 30 6 0 17 7 24 15 11 13 86 64 165 112 11 7 81 42 155 79 74 36 142 69 151 74 9 5 33 12 53 15 20 4 39 11 41 16 3 4 27 11 53 15 26 3 52 10 57 14 6 5 33 11 60 15 28 4 55 11 60 16 6 4 28 9 50 12 22 2 43 4 47 5 4 1 4 -8 -1 -20z m504 2 c6 -4 36 -11 67 -14 32 -4 60 -12 63 -17 4 -5 16 -9 28 -9 12 0 35 -7 51 -15 15 -8 36 -15 45 -15 9 0 29 -7 45 -15 15 -8 35 -15 43 -15 8 0 27 -6 41 -14 15 -8 61 -31 102 -51 79 -37 91 -44 154 -84 42 -28 73 -46 95 -57 8 -4 22 -15 32 -23 10 -9 41 -34 69 -56 60 -47 220 -202 220 -214 0 -4 14 -20 30 -36 17 -16 30 -35 30 -42 0 -8 7 -16 15 -19 8 -4 15 -12 15 -19 0 -6 9 -20 21 -31 23 -21 24 -21 123 -221 38 -76 75 -150 82 -165 8 -14 14 -33 14 -41 0 -8 7 -28 15 -43 8 -16 15 -39 15 -51 0 -12 4 -24 9 -27 5 -4 12 -30 16 -59 4 -28 11 -57 16 -62 4 -6 11 -42 15 -80 4 -39 12 -76 18 -84 14 -18 14 -384 -1 -403 -6 -7 -13 -42 -17 -77 -3 -35 -10 -69 -15 -75 -5 -6 -12 -33 -16 -61 -4 -27 -10 -54 -15 -60 -4 -5 -11 -26 -15 -45 -4 -19 -11 -41 -16 -50 -16 -28 -49 -109 -49 -118 0 -15 -62 -135 -87 -168 -13 -17 -23 -36 -23 -41 0 -6 -6 -16 -14 -22 -12 -10 -41 42 -166 296 -84 169 -227 456 -316 637 -90 181 -164 333 -164 339 0 9 -96 205 -512 1041 -81 164 -148 307 -148 317 0 10 -4 20 -9 23 -5 3 -14 20 -20 37 l-10 30 57 -7 c31 -3 62 -10 67 -14z m-110 -475 c276 -564 319 -651 425 -870 56 -115 176 -361 267 -545 155 -317 199 -406 406 -830 47 -96 160 -328 252 -515 212 -432 301 -615 410 -840 49 -99 154 -313 234 -475 80 -162 148 -298 149 -302 2 -5 -160 -8 -360 -8 l-364 0 -21 43 c-12 23 -33 69 -48 102 -44 98 -84 184 -132 285 -25 52 -53 113 -63 135 -37 81 -70 153 -123 265 -30 63 -64 138 -77 165 -12 28 -35 77 -50 110 -124 263 -132 279 -212 455 -27 58 -59 126 -148 315 -15 33 -42 92 -60 130 -29 63 -59 127 -150 320 -15 33 -42 92 -60 130 -18 39 -52 113 -77 165 -25 52 -53 113 -63 135 -77 168 -98 212 -141 305 -28 58 -56 119 -63 135 -60 134 -121 245 -135 245 -8 0 -97 -174 -151 -295 -10 -22 -32 -71 -50 -110 -17 -38 -38 -85 -46 -102 -40 -93 -52 -118 -163 -355 -17 -37 -31 -70 -31 -73 0 -3 -21 -49 -46 -103 -46 -99 -52 -113 -99 -217 -26 -57 -62 -135 -126 -272 -16 -35 -29 -65 -29 -68 0 -3 -21 -49 -46 -103 -46 -98 -81 -173 -114 -247 -10 -22 -32 -69 -48 -105 -52 -114 -93 -204 -107 -235 -13 -28 -28 -63 -105 -230 -17 -38 -38 -83 -45 -100 -7 -16 -27 -59 -43 -95 -59 -126 -92 -201 -92 -206 0 -2 -21 -48 -46 -102 -43 -93 -56 -121 -88 -194 -19 -43 -73 -162 -98 -216 l-19 -42 -360 0 c-321 0 -359 2 -359 16 0 9 54 127 121 262 116 239 154 317 272 562 30 63 97 201 147 305 51 105 119 246 152 315 125 261 149 310 236 490 49 102 118 244 152 315 70 147 109 229 240 500 51 105 119 246 152 315 148 309 295 614 378 785 27 55 74 154 105 220 31 66 96 201 144 300 49 99 117 239 152 312 l63 131 17 -36 c10 -21 92 -190 184 -377z m-125 -1539 c0 -6 24 -59 54 -118 84 -166 100 -148 -128 -148 -108 0 -196 2 -196 5 0 3 13 31 29 62 46 91 101 211 101 220 0 4 14 38 32 75 l32 67 38 -76 c21 -41 38 -80 38 -87z m240 -746 l0 -299 26 -58 c14 -32 52 -112 84 -178 32 -66 77 -160 100 -210 47 -102 71 -152 200 -420 138 -287 174 -361 225 -470 26 -55 81 -170 122 -255 130 -270 160 -333 208 -435 26 -55 81 -170 122 -255 118 -244 186 -385 253 -525 34 -72 82 -170 106 -218 24 -49 44 -90 44 -93 0 -10 -39 36 -70 82 -18 27 -38 54 -44 59 -7 6 -34 39 -60 75 -27 36 -54 70 -60 75 -6 6 -37 42 -69 82 -31 40 -69 85 -83 100 -14 15 -84 91 -155 169 -112 121 -184 191 -414 399 -22 20 -67 57 -100 83 -33 25 -64 51 -70 58 -16 17 -161 123 -258 188 -66 44 -91 56 -100 47 -8 -8 -107 -11 -338 -11 -281 0 -328 2 -333 15 -6 17 -42 20 -51 4 -4 -5 -17 -14 -28 -20 -24 -10 -27 -12 -132 -79 -239 -152 -518 -400 -711 -630 -43 -52 -86 -102 -94 -110 -17 -18 -54 -70 -152 -209 -37 -53 -73 -103 -80 -111 -7 -8 -21 -30 -31 -50 -38 -71 -46 -63 -11 10 20 41 51 107 69 145 18 39 60 126 93 195 102 215 149 313 172 365 13 28 47 102 77 165 30 63 67 143 84 177 16 35 42 91 58 125 16 35 56 119 89 188 62 130 133 281 182 385 16 33 56 119 90 190 81 171 117 247 150 320 16 33 49 105 75 160 25 55 52 114 60 130 7 17 25 57 40 90 15 33 33 73 41 89 11 23 14 102 14 398 l0 368 330 0 330 0 0 -300z m231 -267 c23 -49 66 -137 96 -197 29 -60 53 -113 53 -119 0 -10 28 -69 157 -331 29 -60 53 -113 53 -119 0 -10 42 -99 147 -311 24 -49 42 -96 41 -105 -2 -9 -23 25 -47 74 -24 50 -84 170 -133 269 -48 98 -88 183 -88 189 0 10 -71 157 -226 471 -41 81 -74 155 -74 165 0 9 -7 25 -15 35 -14 18 -21 66 -10 66 2 0 23 -39 46 -87z m-1084 -118 c-64 -130 -107 -224 -107 -233 0 -6 -20 -50 -44 -99 -104 -212 -146 -300 -146 -310 0 -6 -24 -59 -54 -119 -147 -299 -216 -443 -216 -451 0 -6 -31 -73 -68 -149 -38 -76 -95 -193 -127 -259 -32 -66 -61 -113 -63 -106 -3 8 9 43 26 78 17 35 45 91 62 126 16 34 30 68 30 74 0 7 13 39 29 70 64 131 101 210 101 220 0 6 17 46 38 89 88 179 112 231 112 241 0 6 17 46 38 89 88 179 112 231 112 241 0 6 17 46 38 89 88 179 112 231 112 241 0 6 18 46 39 89 22 44 52 106 68 139 l28 60 3 -45 c2 -26 -3 -58 -11 -75z m1663 -1129 c0 -6 -7 -2 -15 8 -8 11 -15 25 -15 30 0 6 7 2 15 -8 8 -11 15 -25 15 -30z m30 -60 c0 -6 -7 -2 -15 8 -8 11 -15 25 -15 30 0 6 7 2 15 -8 8 -11 15 -25 15 -30z m36 -73 c14 -32 43 -94 64 -138 40 -83 52 -115 45 -115 -6 0 -132 260 -140 288 -12 42 5 22 31 -35z m134 -293 c6 -11 8 -20 6 -20 -3 0 -10 9 -16 20 -6 11 -8 20 -6 20 3 0 10 -9 16 -20z m40 -84 c0 -6 -7 -2 -15 8 -8 11 -15 25 -15 30 0 6 7 2 15 -8 8 -11 15 -25 15 -30z m23 -48 c6 -22 5 -22 -8 -4 -17 22 -20 40 -6 32 5 -3 11 -16 14 -28z m27 -58 c6 -11 8 -20 6 -20 -3 0 -10 9 -16 20 -6 11 -8 20 -6 20 3 0 10 -9 16 -20z m-1298 -168 c105 -35 203 -120 256 -222 43 -81 56 -145 56 -265 -1 -122 -1 -125 -52 -235 -18 -37 -76 -116 -102 -138 -252 -216 -593 -108 -710 226 -48 136 -14 352 75 467 79 103 156 153 290 189 34 9 127 -2 187 -22z"/>
 <path d="M6131 6000 c-144 -22 -266 -108 -323 -225 -16 -33 -28 -45 -43 -45 -44 0 -55 -28 -55 -142 0 -141 -4 -138 177 -138 162 0 167 2 176 87 9 78 30 111 90 139 93 43 226 27 280 -34 27 -29 33 -92 13 -130 -23 -45 -83 -75 -241 -122 -77 -23 -169 -53 -204 -67 -77 -32 -166 -111 -204 -181 -58 -106 -58 -308 0 -414 15 -27 53 -73 84 -103 104 -95 193 -125 380 -125 99 0 141 4 192 20 79 25 168 88 222 158 25 34 46 52 61 52 43 0 54 28 54 142 0 141 4 138 -172 138 -155 0 -159 -2 -178 -85 -13 -58 -30 -79 -85 -108 -108 -56 -285 8 -285 103 0 37 29 79 68 99 20 10 109 42 196 70 88 28 188 65 223 83 78 38 183 145 206 209 l15 44 1 -45 c2 -116 54 -232 146 -326 102 -104 207 -144 378 -144 161 0 268 41 367 141 104 105 150 228 150 404 0 179 -47 302 -156 411 -113 113 -264 158 -452 135 -132 -17 -205 -54 -300 -155 -46 -49 -69 -87 -120 -206 l-11 -25 0 27 c-2 54 -41 135 -96 195 -105 117 -209 161 -388 168 -62 2 -136 0 -166 -5z m274 -85 c127 -34 224 -108 277 -213 20 -40 23 -62 23 -152 -1 -94 -3 -110 -27 -155 -55 -107 -132 -153 -402 -241 -197 -65 -253 -99 -276 -170 -29 -88 15 -187 105 -233 60 -31 180 -41 253 -20 67 19 149 99 158 157 l7 42 98 0 99 0 0 -65 0 -65 -30 0 c-25 0 -36 -9 -71 -61 -94 -138 -278 -198 -480 -155 -130 28 -228 97 -276 194 -25 51 -28 68 -28 157 0 80 5 109 22 146 51 112 128 161 361 228 152 44 201 64 251 107 62 52 88 147 60 221 -14 38 -65 90 -114 116 -34 19 -56 22 -145 22 -89 -1 -112 -4 -152 -24 -86 -42 -121 -95 -130 -196 l-3 -30 -102 -3 -103 -3 0 66 0 65 30 0 c27 0 33 6 58 63 50 109 121 168 243 201 72 20 220 20 294 1z m1058 -13 c115 -41 199 -127 249 -251 19 -48 22 -75 23 -191 0 -156 -12 -203 -78 -301 -79 -120 -206 -174 -388 -167 -91 3 -112 7 -171 35 -124 58 -202 162 -233 308 -58 274 68 513 306 580 74 20 215 14 292 -13z"/>
 <path d="M7219 5794 c-62 -19 -141 -91 -173 -157 -69 -142 -46 -339 52 -441 140 -147 376 -101 464 89 20 43 23 66 23 170 0 146 -18 197 -100 274 -79 74 -166 96 -266 65z m135 -76 c57 -17 119 -82 142 -149 54 -160 -13 -334 -143 -372 -48 -14 -58 -14 -105 0 -92 27 -147 106 -164 235 -10 73 26 179 79 232 60 60 117 76 191 54z"/>
 <path d="M11288 6000 c-195 -23 -376 -205 -408 -410 -23 -146 -5 -304 46 -409 61 -124 205 -237 333 -261 126 -23 302 -6 391 40 63 32 163 133 200 201 48 91 60 147 60 295 0 197 -39 302 -156 414 -120 116 -257 154 -466 130z m227 -85 c201 -53 325 -228 325 -460 0 -219 -107 -383 -288 -444 -77 -26 -223 -29 -303 -5 -186 54 -299 226 -299 454 0 195 86 353 229 422 98 47 229 60 336 33z"/>
 <path d="M11330 5801 c-146 -45 -241 -201 -227 -376 8 -101 38 -173 98 -233 65 -65 124 -86 220 -80 111 8 184 63 238 178 23 49 26 67 26 165 0 105 -2 114 -33 177 -20 41 -50 82 -77 106 -67 59 -170 85 -245 63z m147 -95 c174 -81 178 -414 7 -496 -63 -31 -118 -30 -180 4 -122 67 -160 243 -84 392 31 59 42 72 89 96 65 34 101 35 168 4z"/>
 <path d="M13473 6000 c-72 -10 -111 -28 -175 -81 -34 -29 -56 -39 -81 -39 -57 0 -67 -21 -67 -142 0 -139 -2 -138 157 -138 133 0 144 5 158 68 8 39 51 65 110 66 81 1 134 -53 85 -87 -12 -8 -85 -39 -163 -68 -155 -58 -216 -95 -264 -158 -43 -55 -56 -109 -51 -206 6 -98 26 -141 99 -211 81 -76 125 -89 294 -89 158 0 198 11 272 79 32 28 49 36 80 36 21 0 44 5 51 12 17 17 17 239 0 256 -8 8 -52 12 -133 12 -134 0 -139 -2 -164 -66 -29 -75 -201 -86 -201 -14 0 20 36 37 200 95 133 47 152 57 207 108 73 67 83 96 83 240 0 122 0 124 -31 171 -39 58 -104 109 -172 134 -62 23 -206 34 -294 22z m249 -90 c64 -19 130 -71 157 -124 34 -65 35 -171 4 -231 -40 -75 -85 -103 -292 -176 -154 -54 -191 -84 -191 -151 0 -99 126 -155 253 -112 50 17 107 72 107 104 0 18 7 20 80 20 l80 0 0 -65 0 -65 -31 0 c-23 0 -45 -12 -81 -45 -68 -61 -128 -78 -261 -73 -81 2 -111 8 -149 26 -94 47 -137 116 -138 221 0 132 48 181 259 260 156 59 178 71 212 108 32 34 41 67 28 102 -25 66 -90 103 -180 102 -95 0 -168 -41 -189 -107 l-12 -34 -79 0 -79 0 0 70 0 70 45 0 c36 0 47 5 61 25 21 32 76 66 134 82 51 15 204 11 262 -7z"/>
 <path d="M9909 5986 c-80 -28 -140 -95 -158 -176 -6 -25 -11 -171 -11 -327 l0 -283 -58 0 c-84 0 -92 -12 -92 -132 0 -116 8 -128 93 -128 l57 0 0 -93 c0 -112 4 -117 124 -171 148 -68 166 -54 166 132 l0 132 88 0 c118 0 122 5 122 132 0 123 -5 128 -123 128 l-87 0 0 243 c0 133 3 252 6 264 8 29 45 36 96 18 56 -19 102 -19 119 1 8 9 22 37 31 63 l16 46 1 -51 c1 -65 20 -84 84 -84 l47 0 0 -240 0 -240 -48 0 c-74 0 -82 -14 -82 -142 0 -144 -10 -138 217 -138 162 0 182 2 196 18 15 17 17 58 17 380 l0 362 48 0 c74 0 82 14 82 142 0 89 -3 107 -18 121 -16 15 -50 17 -265 17 l-246 0 -19 -25 c-17 -21 -21 -23 -32 -10 -7 8 -42 24 -77 35 -76 23 -236 27 -294 6z m269 -83 c28 -9 52 -17 52 -18 0 -1 -7 -23 -16 -49 -13 -36 -20 -46 -33 -41 -87 34 -167 23 -205 -28 -20 -27 -21 -39 -21 -330 l0 -302 108 -3 107 -3 0 -59 0 -59 -102 -3 -103 -3 -3 -142 -3 -141 -69 31 -69 32 -3 110 -3 110 -72 3 -73 3 0 59 0 59 68 3 67 3 5 315 c5 303 6 317 29 367 28 63 69 92 144 102 66 9 128 4 195 -16z m612 -68 l0 -64 -67 -3 -68 -3 -3 -377 -2 -378 -135 0 -135 0 0 65 0 65 54 0 c33 0 58 5 65 14 8 9 11 100 9 312 l-3 299 -62 3 -63 3 0 64 0 65 205 0 205 0 0 -65z"/>
 <path d="M8743 5974 c-63 -23 -128 -86 -165 -162 l-33 -66 -3 -263 -3 -263 -43 0 c-67 0 -76 -17 -76 -142 0 -144 -9 -138 212 -138 155 0 177 2 191 18 14 15 16 61 19 342 3 284 5 329 20 356 32 59 113 69 211 26 l47 -21 0 -220 0 -221 -43 0 c-68 0 -77 -16 -77 -142 0 -144 -9 -138 212 -138 157 0 177 2 191 18 15 17 17 58 17 380 l0 362 33 0 c57 0 67 21 67 142 0 143 7 138 -197 138 -125 0 -163 -3 -172 -14 -10 -12 -21 -11 -72 5 -77 24 -272 25 -336 3z m272 -69 c33 -9 84 -29 114 -45 29 -16 58 -27 62 -24 5 3 9 18 9 35 l0 29 125 0 125 0 0 -64 0 -65 -47 -3 -48 -3 -3 -377 -2 -378 -140 0 -140 0 0 65 0 65 53 0 c29 0 58 5 65 12 9 9 12 86 12 285 l0 272 -42 25 c-92 53 -206 70 -275 41 -48 -20 -70 -41 -97 -90 -20 -38 -21 -55 -24 -357 l-3 -318 -135 0 -134 0 0 65 0 64 58 3 57 3 6 275 c6 295 11 321 64 402 55 84 201 119 340 83z"/>
 <path d="M7877 5962 c-14 -15 -17 -40 -17 -124 0 -124 8 -138 83 -138 l47 0 0 -470 0 -470 -48 0 c-74 0 -82 -14 -82 -142 0 -144 -9 -138 212 -138 157 0 177 2 191 18 15 17 17 74 17 610 l0 592 53 0 c79 0 87 12 87 142 0 89 -3 107 -18 121 -16 15 -50 17 -264 17 -225 0 -246 -2 -261 -18z m473 -127 l0 -64 -67 -3 -68 -3 -3 -602 -2 -603 -140 0 -140 0 0 65 0 64 68 3 67 3 0 535 0 535 -67 3 -68 3 0 64 0 65 210 0 210 0 0 -65z"/>
 <path d="M11977 5962 c-14 -15 -17 -40 -17 -124 0 -124 8 -138 83 -138 l47 0 0 -240 0 -240 -48 0 c-74 0 -82 -14 -82 -142 0 -144 -9 -138 210 -138 146 0 176 3 191 16 17 16 22 15 71 -7 47 -21 67 -24 183 -24 152 0 194 14 269 88 93 93 106 151 106 457 l0 230 43 0 c68 0 77 16 77 142 0 89 -3 107 -18 121 -16 15 -49 17 -259 17 -292 0 -273 10 -273 -142 0 -125 8 -138 84 -138 l48 0 -4 -197 c-4 -235 -11 -261 -83 -289 -53 -20 -90 -14 -160 24 l-50 27 -3 218 -2 217 48 0 c74 0 82 14 82 142 0 89 -3 107 -18 121 -16 15 -50 17 -264 17 -225 0 -246 -2 -261 -18z m463 -127 l0 -64 -62 -3 -63 -3 -3 -267 -2 -267 32 -25 c18 -13 58 -37 88 -52 111 -56 239 -31 297 58 l28 41 0 256 0 256 -62 3 -63 3 0 64 0 65 205 0 205 0 0 -65 0 -64 -62 -3 -63 -3 -5 -285 -5 -285 -29 -58 c-47 -96 -127 -137 -268 -137 -90 0 -159 22 -233 75 -27 19 -52 32 -57 29 -4 -3 -8 -25 -8 -50 l0 -44 -135 0 -135 0 0 65 0 64 58 3 57 3 0 310 0 310 -57 3 -58 3 0 64 0 65 200 0 200 0 0 -65z"/>
 <path d="M10479 4837 c-58 -39 -79 -81 -79 -157 0 -58 4 -72 29 -107 41 -56 88 -76 168 -71 61 4 66 6 111 51 l47 47 0 78 c0 71 -3 82 -28 115 -39 51 -74 67 -150 67 -50 0 -71 -5 -98 -23z m139 -58 c41 -14 62 -49 62 -101 -1 -66 -36 -98 -108 -98 -57 0 -92 37 -92 97 0 56 13 81 53 98 39 17 46 18 85 4z"/>
 <path d="M11993 4215 c-134 -36 -268 -146 -328 -269 -43 -87 -55 -149 -55 -280 0 -180 33 -270 138 -379 111 -114 204 -159 354 -172 243 -22 452 83 545 273 l38 76 4 164 c4 204 5 202 -111 202 l-80 0 66 72 c86 94 87 115 13 186 -65 61 -157 109 -246 128 -84 18 -270 17 -338 -1z m329 -81 c72 -17 141 -52 193 -97 l39 -34 -53 -56 -54 -57 -35 32 c-66 58 -115 73 -232 73 -96 0 -110 -3 -158 -28 -67 -35 -129 -99 -143 -147 -22 -74 -42 -70 371 -70 l370 0 0 -72 c0 -227 -70 -358 -234 -438 -79 -39 -161 -53 -261 -47 -200 12 -360 131 -417 311 -27 82 -28 238 -4 321 24 81 50 129 97 180 123 134 312 181 521 129z m-41 -230 c25 -8 61 -28 80 -44 l34 -29 -207 -1 c-229 0 -240 4 -149 54 86 47 142 51 242 20z"/>
 <path d="M11877 3603 c-27 -26 13 -123 73 -177 64 -58 121 -80 210 -80 63 -1 84 4 132 27 85 42 143 126 136 198 l-3 34 -271 3 c-149 1 -273 -1 -277 -5z m463 -68 c0 -4 -7 -19 -15 -34 -17 -33 -86 -70 -144 -78 -68 -9 -182 44 -211 97 -10 20 -6 20 180 20 104 0 190 -2 190 -5z"/>
 <path d="M13235 4217 c-22 -8 -59 -24 -82 -36 -32 -16 -43 -18 -43 -8 0 8 -8 21 -18 30 -15 14 -42 17 -149 17 -113 0 -132 -2 -146 -18 -16 -17 -17 -81 -17 -719 0 -665 1 -701 18 -716 15 -14 42 -17 149 -17 113 0 132 2 146 18 15 16 17 46 17 215 0 108 2 197 4 197 2 0 23 -11 48 -25 104 -58 305 -56 435 5 74 34 190 140 231 209 44 75 62 162 62 296 0 137 -15 209 -61 296 -44 82 -160 191 -245 231 -64 30 -78 32 -189 35 -80 2 -133 -2 -160 -10z m270 -82 c199 -56 334 -281 310 -520 -18 -190 -120 -332 -283 -396 -46 -18 -78 -23 -162 -23 -96 -1 -110 2 -162 27 -36 17 -76 49 -106 83 -27 30 -52 51 -55 47 -4 -3 -7 -123 -7 -265 l0 -258 -90 0 -90 0 0 655 0 655 90 0 90 0 0 -58 c0 -32 3 -62 6 -65 4 -3 32 14 63 38 124 98 245 122 396 80z"/>
 <path d="M13280 3991 c-61 -13 -109 -42 -159 -97 -60 -65 -81 -123 -81 -220 0 -183 125 -324 285 -324 34 0 77 5 96 11 86 29 176 125 201 213 16 60 14 154 -6 213 -45 134 -205 231 -336 204z m104 -85 c89 -27 153 -101 171 -199 17 -90 -41 -205 -127 -252 -64 -35 -118 -37 -182 -5 -60 29 -99 81 -121 164 -16 58 -16 67 -1 118 27 93 72 145 152 173 49 18 51 18 108 1z"/>
 <path d="M6163 4198 c-27 -30 -523 -1267 -523 -1305 0 -56 20 -63 187 -63 142 0 150 1 170 23 11 12 89 189 172 392 84 204 155 373 159 377 4 4 77 -162 162 -369 85 -207 163 -387 173 -400 18 -22 23 -23 169 -23 123 0 155 3 169 15 15 15 17 14 22 -7 4 -13 27 -43 52 -68 l46 -45 89 0 89 0 46 45 c25 25 48 55 52 68 5 21 7 22 22 7 14 -12 46 -15 168 -15 130 0 152 2 165 18 8 9 81 177 161 372 80 195 152 369 159 387 14 32 15 29 172 -355 88 -213 166 -395 174 -404 13 -16 35 -18 165 -18 123 0 154 3 168 16 16 14 18 14 24 -6 9 -30 63 -88 96 -106 17 -8 56 -14 97 -14 60 0 74 4 108 29 55 39 75 74 81 141 7 76 -9 120 -62 169 l-45 41 -85 0 -86 0 -48 -45 c-26 -25 -52 -59 -57 -75 -8 -27 -34 33 -258 589 -136 341 -256 627 -265 635 -26 23 -306 23 -332 0 -9 -8 -129 -293 -265 -634 -244 -607 -249 -617 -260 -583 -27 79 -84 113 -187 113 -60 0 -80 -4 -107 -22 -42 -29 -70 -67 -79 -106 -5 -25 -44 66 -255 591 -137 342 -256 630 -264 640 -13 15 -35 17 -167 17 -144 0 -152 -1 -172 -22z m524 -660 c133 -332 245 -611 249 -620 6 -16 -3 -18 -103 -18 l-109 0 -173 423 c-96 232 -183 442 -193 466 -16 38 -21 43 -33 30 -8 -8 -84 -185 -170 -394 -86 -209 -170 -413 -187 -452 l-30 -73 -110 0 c-84 0 -109 3 -105 13 3 6 114 281 246 610 132 329 243 603 246 608 4 5 57 9 118 9 l112 0 242 -602z m1763 -21 l248 -618 -111 3 -111 3 -186 450 c-102 248 -189 456 -194 463 -6 10 -12 10 -19 3 -5 -5 -94 -214 -196 -463 l-187 -453 -111 -3 -111 -3 242 603 c133 332 245 611 249 621 6 16 19 17 123 15 l115 -3 249 -618z m-1174 -506 c58 -35 69 -134 21 -179 -52 -48 -114 -50 -167 -6 -80 68 -27 204 80 204 19 0 49 -9 66 -19z m1776 -20 c46 -52 33 -151 -24 -178 -43 -21 -60 -23 -99 -13 -53 14 -79 51 -79 110 0 80 48 123 130 116 34 -3 51 -11 72 -35z"/>
 <path d="M7057 4202 c-15 -17 -17 -68 -17 -529 0 -481 1 -511 18 -526 15 -14 42 -17 149 -17 113 0 132 2 146 18 15 17 17 68 17 529 0 481 -1 511 -18 526 -15 14 -42 17 -149 17 -113 0 -132 -2 -146 -18z m243 -532 l0 -470 -90 0 -90 0 0 470 0 470 90 0 90 0 0 -470z"/>
 <path d="M8817 4202 c-15 -17 -17 -68 -17 -529 0 -481 1 -511 18 -526 15 -14 42 -17 149 -17 113 0 132 2 146 18 15 17 17 68 17 529 0 481 -1 511 -18 526 -15 14 -42 17 -149 17 -113 0 -132 -2 -146 -18z m233 -532 l0 -470 -90 0 -90 0 0 470 0 470 90 0 90 0 0 -470z"/>
 <path d="M10113 4198 c-26 -29 -453 -1255 -453 -1301 0 -61 17 -67 182 -67 128 0 147 2 162 18 9 11 71 176 139 369 l122 349 109 -353 c61 -194 117 -360 126 -368 13 -12 46 -15 147 -15 111 0 132 3 146 18 8 9 64 173 123 364 59 192 109 347 110 345 2 -2 58 -158 124 -347 66 -189 128 -352 137 -362 14 -16 34 -18 163 -18 165 0 180 6 180 70 0 45 -427 1269 -453 1298 -19 21 -28 22 -155 22 -106 0 -139 -3 -152 -15 -9 -8 -63 -167 -120 -354 l-104 -339 -104 337 c-57 185 -111 344 -119 354 -14 15 -35 17 -153 17 -129 0 -138 -1 -157 -22z m265 -90 c50 -178 247 -806 257 -816 10 -11 14 -11 22 0 6 7 68 201 138 431 l128 418 100 -3 101 -3 208 -595 c115 -327 211 -605 214 -617 6 -23 5 -23 -98 -23 l-104 0 -148 428 c-82 235 -153 435 -158 445 -7 13 -13 15 -22 8 -7 -6 -73 -206 -147 -446 l-134 -435 -90 2 -90 3 -136 440 c-92 296 -141 440 -150 440 -9 0 -68 -154 -168 -442 l-155 -443 -103 0 c-57 0 -103 3 -103 7 0 5 396 1145 421 1211 8 21 14 22 108 22 l100 0 9 -32z"/>
 </g>

</svg>