<?xml version="1.0" encoding="UTF-8" ?>
<!DOCTYPE svg PUBLIC "-//W3C//DTD SVG 1.1//EN" "http://www.w3.org/Graphics/SVG/1.1/DTD/svg11.dtd">
<svg width="250pt" height="343pt" viewBox="0 0 250 343" version="1.1" xmlns="http://www.w3.org/2000/svg">
<path fill="#ffffff" d=" M 0.00 0.00 L 250.00 0.00 L 250.00 343.00 L 0.00 343.00 L 0.00 0.00 Z" />
<path fill="#f47d30" d=" M 183.32 18.06 C 168.86 47.74 154.78 77.60 140.44 107.34 C 137.80 113.26 134.64 118.94 132.24 124.97 C 132.26 106.19 132.24 87.41 132.25 68.63 C 152.64 55.61 169.20 37.52 183.32 18.06 Z" />
<path fill="#f47d30" d=" M 63.39 21.80 C 74.81 40.84 89.88 58.54 109.74 69.08 C 109.76 86.08 109.75 103.07 109.74 120.06 C 94.42 87.25 79.07 54.44 63.39 21.80 Z" />
<path fill="#00539b" d=" M 116.49 26.41 C 122.47 24.17 129.59 26.72 133.03 32.05 C 139.24 40.40 136.15 54.36 126.18 58.24 C 118.55 61.57 109.41 56.21 107.11 48.55 C 103.81 40.27 107.95 29.54 116.49 26.41 Z" />
<path fill="#00539b" d=" M 43.67 63.76 C 51.98 63.79 60.29 63.69 68.59 63.82 C 83.47 97.34 98.93 130.61 114.01 164.04 C 116.51 169.27 118.63 174.68 121.40 179.77 C 122.43 178.00 123.41 176.20 124.25 174.34 C 141.21 137.74 158.39 101.25 175.28 64.62 C 183.51 64.62 191.74 64.66 199.96 64.60 C 182.11 101.19 164.19 137.76 146.31 174.34 C 138.15 191.42 129.39 208.23 121.54 225.45 C 95.60 171.54 69.70 117.62 43.67 63.76 Z" />
<path fill="#00539b" d=" M 109.74 67.51 C 117.24 67.49 124.75 67.51 132.25 67.50 L 132.25 68.63 C 132.24 87.41 132.26 106.19 132.24 124.97 C 132.26 131.64 132.25 138.32 132.25 144.99 C 124.75 145.05 117.25 145.01 109.75 145.00 C 109.75 136.69 109.76 128.37 109.74 120.06 C 109.75 103.07 109.76 86.08 109.74 69.08 L 109.74 67.51 Z" />
<path fill="#f47d30" d=" M 40.51 138.55 C 44.43 127.29 51.16 117.21 59.11 108.40 C 62.15 115.24 65.42 121.98 68.80 128.65 C 61.01 139.50 56.01 152.54 56.02 166.00 C 55.48 181.32 60.40 196.90 70.14 208.81 C 80.14 221.51 94.94 230.35 110.94 232.84 C 129.24 236.05 148.84 230.97 163.23 219.21 C 175.88 209.08 184.61 194.09 186.90 178.02 C 189.55 161.97 185.92 144.84 176.57 131.48 C 175.93 130.31 174.67 128.91 175.46 127.52 C 178.57 121.17 181.85 114.90 184.73 108.44 C 198.78 123.83 207.83 144.04 208.25 165.01 C 209.15 185.78 201.91 206.69 188.67 222.68 C 173.28 241.69 149.43 253.69 124.93 254.31 C 109.21 254.97 93.36 251.11 79.68 243.34 C 62.11 233.65 48.25 217.52 41.09 198.80 C 33.60 179.67 33.50 157.83 40.51 138.55 Z" />
<path fill="#00539b" d=" M 0.76 266.28 C 3.64 266.24 6.52 266.24 9.40 266.26 C 12.79 272.77 15.69 279.54 19.23 285.98 C 21.11 286.60 21.32 284.20 22.13 283.08 C 24.73 277.42 27.63 271.91 30.23 266.25 C 33.18 266.25 36.13 266.25 39.08 266.24 C 34.86 275.21 30.45 284.08 26.14 293.00 C 21.96 293.00 17.79 293.00 13.61 293.00 C 9.50 284.01 4.56 275.41 0.76 266.28 Z" />
<path fill="#00539b" d=" M 45.50 266.26 C 47.83 266.25 50.17 266.25 52.50 266.26 C 52.50 268.08 52.50 269.91 52.50 271.75 C 50.17 271.75 47.83 271.75 45.50 271.75 C 45.50 269.91 45.50 268.08 45.50 266.26 Z" />
<path fill="#00539b" d=" M 73.50 266.25 C 76.47 266.25 79.44 266.25 82.40 266.26 C 85.79 272.78 88.69 279.54 92.23 285.98 C 94.12 286.60 94.33 284.18 95.14 283.06 C 97.74 277.41 100.63 271.90 103.23 266.25 C 106.18 266.25 109.13 266.25 112.08 266.24 C 107.86 275.21 103.45 284.08 99.14 293.00 C 94.93 292.99 90.71 293.05 86.51 292.93 C 82.39 283.93 77.73 275.19 73.50 266.25 Z" />
<path fill="#00539b" d=" M 118.51 266.25 C 120.84 266.25 123.17 266.25 125.50 266.25 C 125.50 268.08 125.49 269.92 125.49 271.76 C 123.16 271.75 120.83 271.74 118.49 271.74 C 118.50 269.91 118.50 268.08 118.51 266.25 Z" />
<path fill="#00539b" d=" M 148.75 266.25 C 157.17 266.28 165.60 266.20 174.02 266.27 C 177.47 266.35 181.84 267.10 183.07 270.88 C 184.54 275.72 184.12 280.98 183.64 285.96 C 183.38 289.47 180.57 292.41 177.02 292.59 C 167.64 293.48 158.17 292.78 148.75 293.00 C 148.75 284.08 148.74 275.17 148.75 266.25 Z" />
<path fill="#ffffff" d=" M 156.75 273.00 C 162.25 273.17 167.79 272.64 173.26 273.27 C 176.38 273.75 175.90 277.65 176.04 279.98 C 176.02 282.11 176.00 285.52 173.15 285.70 C 167.72 286.37 162.21 285.84 156.75 286.00 C 156.75 281.66 156.75 277.33 156.75 273.00 Z" />
<path fill="#00539b" d=" M 45.50 274.00 C 47.83 274.00 50.17 274.00 52.50 274.00 C 52.50 280.33 52.50 286.66 52.50 293.00 C 50.17 293.00 47.83 293.00 45.50 293.00 C 45.50 286.67 45.50 280.33 45.50 274.00 Z" />
<path fill="#00539b" d=" M 118.50 274.00 C 120.83 274.00 123.16 274.00 125.50 274.00 C 125.50 280.33 125.50 286.66 125.50 293.00 C 123.16 293.00 120.83 293.00 118.50 293.00 C 118.50 286.67 118.50 280.33 118.50 274.00 Z" />
<path fill="#00539b" d=" M 191.79 277.63 C 193.24 274.04 197.70 274.00 200.97 273.78 C 205.43 273.87 210.43 273.03 214.41 275.54 C 217.13 277.85 216.64 281.80 216.81 284.99 C 210.54 285.05 204.26 284.91 198.00 285.08 C 197.95 290.64 204.96 288.87 208.53 288.68 C 208.84 288.26 209.46 287.41 209.76 286.99 C 212.09 286.99 214.42 287.00 216.75 287.04 C 216.12 293.38 208.93 293.62 204.03 293.53 C 199.83 293.34 193.83 294.10 191.69 289.52 C 190.72 285.69 190.53 281.41 191.79 277.63 Z" />
<path fill="#00539b" d=" M 221.53 274.00 C 224.19 274.00 226.85 274.00 229.52 274.00 C 231.49 278.50 233.42 283.01 235.41 287.51 C 237.31 282.98 239.31 278.51 241.24 274.00 C 243.89 274.00 246.55 274.00 249.20 274.00 C 246.28 280.40 242.94 286.60 239.98 292.99 C 236.93 293.00 233.87 293.00 230.82 293.00 C 227.75 286.65 224.48 280.40 221.53 274.00 Z" />
<path fill="#ffffff" d=" M 198.90 278.86 C 201.49 278.28 204.17 277.98 206.81 278.37 C 208.54 278.35 209.57 279.54 209.83 281.19 C 205.88 281.29 201.93 281.27 197.98 281.20 C 198.21 280.62 198.67 279.45 198.90 278.86 Z" />
</svg>
